<?xml version="1.0" standalone="no"?>
<!DOCTYPE svg PUBLIC "-//W3C//DTD SVG 1.1//EN" "http://www.w3.org/Graphics/SVG/1.1/DTD/svg11.dtd" >
<svg xmlns="http://www.w3.org/2000/svg">
<metadata></metadata>
<defs>
<font id="zinjaro_letplain" horiz-adv-x="925" >
<font-face units-per-em="2048" ascent="1638" descent="-410" />
<missing-glyph horiz-adv-x="294" />
<glyph horiz-adv-x="2048" />
<glyph horiz-adv-x="2048" />
<glyph unicode="&#xd;" horiz-adv-x="294" />
<glyph unicode=" "  horiz-adv-x="294" />
<glyph unicode="&#x09;" horiz-adv-x="294" />
<glyph unicode="&#xa0;" horiz-adv-x="294" />
<glyph unicode="!" horiz-adv-x="442" d="M49 1354l4 8l19 4l43 -4l10 -6l2 -6l4 -43v-60l6 -76v-41l-2 -24l6 -57v-62l4 -53l-2 -45v-31l7 -49v-51l2 -19l4 -94l2 -35l-2 -20v-33l6 -14l-2 -19l2 -10l4 -72l4 -24v-21v-6l-2 -6h-33l-4 4l-4 -6l-4 25l-4 41l-4 24l-4 59l-2 46l4 18l-7 37l-6 106l-10 95v47l-6 59 l-8 78l-4 104v25l-9 47l-6 106l-4 41zM115 147v29l6 29l10 24l2 11l12 12l11 18l26 25l11 4l26 12l29 -10l39 -29l10 -20l12 -33l6 -6l11 -68l-2 -22l-19 -72l-8 -22l-10 -17l-6 -6l-15 4l-16 -22l-14 -8l-46 -7l-10 2l-10 25l-4 -2l-8 8l-13 21l-12 26l-6 6l4 7v14l-12 37z M156 1081v13l2 36l12 46l10 14l19 18l8 -8v-47l-4 -25l-17 -26l-24 -25zM160 1327v23l2 12h33l30 -2h29l14 -10l19 10l82 2l26 -2l-4 -57l-8 -95l-6 -80l-6 -26l2 -25l-6 -102v-45l-7 -68l-10 -76l2 -49l-4 -45l-8 -76l-10 -65l-6 -137l-5 -29l-4 -6l-24 4l-19 2l-10 6h-14 l-37 -2l-6 2l-2 35v16l45 95l12 12h2l6 22l15 27l12 41l-29 70l-16 43l-8 18l-11 6l-12 33l-18 49l-6 12v11l10 12l10 16l86 166l10 31l-39 59l-24 29l-17 31l-8 22l-14 2l-33 51l-10 13zM170 633v18h4l21 -20l8 -15l12 -18l8 -43l4 -25l-8 -12l-8 2l-8 6l-19 29l-10 37z M170 963v6l6 35l14 43l17 30l8 10l21 19l24 12l6 -16l-14 -43l-14 -29l-5 -14l-10 -17l-16 -18l-23 -16zM195 743v15l22 -13l19 -28l12 -25l6 -37l4 -10v-29l-4 -8l-16 8l-15 15l-10 14l-8 29z" />
<glyph unicode="&#x22;" horiz-adv-x="378" d="M49 1116l2 53l4 25l2 12l-4 27l15 82l10 33l18 38l15 19h4l10 -23l39 -122l2 -13l-2 -78l2 -49l-10 -41l-6 -24l-7 -29l-16 -49l-6 -12l-10 -29l-11 6l-28 88l-13 43zM213 1116l2 53l4 25v12l-2 27l14 82l13 33l18 38l12 19h7l8 -23l39 -122l2 -13l-2 -78l2 -49l-11 -41 l-6 -24l-4 -29l-18 -49l-6 -12l-11 -29l-8 6l-30 88l-13 43z" />
<glyph unicode="#" horiz-adv-x="942" d="M74 1346v24l71 -4l5 -6l-3 -12v-129l-4 -78l-2 -21l-2 -18l6 -62l5 -77l-9 -283l-2 -6l6 -47v-49l2 -54v-51l-2 -59v-97l2 -92l-4 -71l9 -25l6 -125l-2 -4l-39 -4l-41 -2l6 49l-4 25l4 73l2 172l4 15l-2 16l-2 25l-2 94l2 53l6 43l-6 35v70l-2 22l2 12v80l4 23v28l-6 37 l2 84v152l-4 65l2 60l-2 24l2 23l-4 24v25zM168 649l2 15l4 4l16 -9l25 -51l10 -26l4 -27v-8v-4h-18l-18 18l-7 12l-10 23zM168 1077v47l4 25l10 33l8 18l13 17l18 6l2 -19l-2 -39l-8 -30l-29 -54l-10 -10zM172 248l8 31l6 22l17 23l14 10l14 2l15 -2l2 -6v-6l-10 -25 l-19 -33l-24 -18l-19 -6zM180 1319v41l2 10h21l59 -2l12 -6l19 6l65 4l4 2h21v-12v-27v-22l-8 -99l-2 -6v-20l4 -53l-4 -35l2 -238l-4 -28l-4 -17l4 -65l2 -68l2 -145v-66l-4 -43l2 -29l4 -18l-4 -70l2 -59l8 -96v-92l4 -62v-12h-4l-21 2h-49l-20 8l-31 -2l-24 4h-39l-6 6 l-5 23l5 12l57 82l16 16l8 2l31 58l17 22v6l-43 95l-7 14h-4l-8 16l-35 68l-8 18l-2 11l12 18l45 98l54 88l-23 48l-31 71l-2 6l-20 19l-27 53l-16 31l8 14l8 10l21 35l24 60l19 26l26 62l6 16l-16 31l-53 78l-21 40l-28 41zM188 133l5 29l2 6l16 43l22 25l23 14h18l7 -10 l-7 -21l-16 -35l-22 -34l-21 -17l-20 -6h-5zM193 979l2 25l6 34l12 25l14 29l19 16l20 12h2l-2 -45l-4 -20l-10 -27l-19 -29l-32 -41l-4 7zM197 760l2 12l18 -10l16 -14l25 -48l8 -24l6 -33v-14l-22 6l-21 18l-10 15l-10 24l-10 29zM387 737l4 8h33l41 -14h14l13 10l22 -6 l84 10l6 -8l2 -18l-63 -168l-25 -78l-8 -16l-4 -19l-12 2l-13 35l-22 62l-17 57l-8 8l-45 123zM606 1300v62l4 8l70 -4l33 2h69l23 -8l-4 6l61 -2l2 -6l-6 -117v-96v-109l-2 -16l4 -213l-6 -70l4 -24v-54v-149l-4 -39l4 -53l-2 -62v-77l4 -58l4 -16l-6 -27v-33l12 -155 l-4 -4l-24 10l-19 4l-16 6l-47 -2l-27 -2h-16l-19 2l-10 -2l-74 -4l4 43l5 166v59l2 41v29l-2 129l2 149l4 29l-4 16l-7 56v131v145l5 74l-7 16l-2 31v70l-2 94z" />
<glyph unicode="$" horiz-adv-x="751" d="M41 967l2 24l2 10l45 -20l10 -6l-4 -31l6 -76l7 -20l2 -29l14 -28l6 -19l33 -59l29 -37l12 -21v-8l37 -22l55 -54l25 -8l45 -39l28 -14l13 -23h8l22 -12l27 -16l18 -29l27 -41l10 -14l17 -35l14 -59v-58l-6 -26v-27l-15 -39l-4 -27l-24 -55l-33 -35l-35 -34l-18 -13 l4 -47v-65l4 -48l-23 -6l-34 6l-21 -2l-6 7l2 8v104v31l-72 6l-14 4l-25 12l-20 -4l-18 13l-41 12l-80 57l-13 13l-2 77v52l-4 24l4 6l9 -10l20 -33l27 -34l24 -17l23 -29l63 -32h13l28 -21l17 4l30 -10h31l4 4v37l2 31v57l4 23v20l-6 29v88v65l29 -18l28 -19l11 -12v-82 l2 -45l-2 -30v-25l2 -76v-20l16 12l12 14l15 13l16 34l8 23l4 31l5 39l-5 45l-10 28l-31 47l-20 23l-20 16l-11 2l-4 11l-18 12h-8l-23 12l-39 31l-24 16l-31 29l-35 20l-25 33l-18 25l-45 55v4l-33 66l-10 16l-12 37l-13 43l2 12l-8 27l-8 61zM45 1047l6 22l2 31l37 92 l25 41l32 47l21 25l6 2l19 4l26 28l25 19l18 6l19 16l26 13l35 2l2 45l-2 26v11l-2 6l-2 18l2 10l-4 9l2 6l10 -6l17 4l16 -4l35 6l6 -8l-2 -33l-4 -27v-22v-17l4 -24h24l66 -15l6 -4l14 -12l21 8l39 -24h8l20 -7l5 -6l32 -22l7 -13v-55l4 -18v-53h-4l-60 38l-20 23l-25 18 l-10 17l-37 16l-29 19l-18 -11l-39 17h-8l-2 -25l2 -112l-6 -35l6 -35v-76v-53l-10 -6l-15 18l-31 23l-12 12v76l-2 24v117l6 21l-4 16l-2 16l-16 -6l-2 -6h-17l-8 -23l-8 -12l-8 -18l-13 -51v-33l-4 -17l4 -16l7 -29l6 -34l4 -13l12 -12l21 -14l30 -39l41 -31l15 -23 l28 -12l27 -22l49 -33l27 -27l18 -24l10 -2l33 -39l45 -60l19 -24l16 -37l23 -82l6 -59v-25l-9 -41l3 -31l6 -28l-15 -72l-10 -27l-8 -43l-35 -63l-8 -25l-37 -49l-29 -29l-14 -10l-4 -8l-6 6l4 12l24 72l11 60l10 22l6 31l12 41v12l23 76l12 84l6 24l-10 11l-20 2l-35 16 l-6 -2l-80 2l-19 129v21l-10 28l-14 98l-4 3l-29 -9l-53 -28l-15 2l-34 -25l-50 -12l-12 -6l-2 2l-6 104l-8 90l4 41l-10 51l-37 3l-31 6l-20 16l-41 12l-45 2zM125 874v29l12 45l19 -45l6 -31v-57l-6 -20l-6 -7l-17 37l-6 25zM182 895l11 53l4 19l18 -52l10 -36l2 -37v-21 l-8 -49l-8 -24l-6 -7l-12 43l-7 35zM315 643l13 27l24 26l27 13l24 4l23 -6l12 -11l-4 -12l-20 -29l-31 -20l-37 -10l-22 10l-2 6zM373 571l16 25l27 22l18 5l19 -5l14 -10l6 -8l-8 -18l-19 -19l-26 -10l-25 2zM561 344l2 49l6 31l6 18l11 17l6 10l6 2l6 -31l4 -30l-2 -29 l-6 -29l-10 -28v-2l-15 -19l-6 6l-4 15z" />
<glyph unicode="%" horiz-adv-x="913" d="M41 1049l4 12l-2 39l14 65l19 54l35 53l14 -41l-6 -6l-23 -35l-16 -53l-8 -29v-61v-35l4 -54l6 -28l27 -84l10 -17v-6l-17 -24l-10 12l-16 35l-13 35l-6 24l-4 19l-6 16l-4 31zM90 1094l10 32l15 27l24 18l13 -4v-12l-9 -31l-18 -30l-6 -9l-17 -8l-8 -6l-2 2zM96 973v14 l4 2l9 -2l12 -10l12 -23l6 -24l6 -31v-6l-2 -10l-8 -2l-10 12l-14 18l-11 31zM111 -6l10 18l61 125l19 45l16 19l14 43l13 22l80 185l14 18l10 35l68 164l12 12l29 82l6 24l29 62l24 59l25 64l6 22l33 78l43 113l6 12l41 131l6 25l10 4l23 -6h30l6 2l31 6h15l4 -8v-7 l-37 -77l-62 -119l-10 -17l-24 -69l-76 -168l-13 -19l-6 -22l-12 -39l-10 -31l-31 -73l-33 -74l-18 -31l-14 -43l-64 -141l-27 -64l-16 -43l-18 -30l-2 -35l-33 -94l-21 -43l-4 -17l-8 -18l-12 -70l-4 -12l-9 -4l-14 8l-22 -4l-23 4h-22l-29 -10zM113 1036l12 17l18 26 l17 23l18 35l-8 30l-23 47l-14 41l-2 19l-6 12l39 47l24 17h15l14 8l19 8l43 -4l43 -12l30 -29l15 -10l8 -13l4 -12l12 -8l8 -16l35 -95l10 -30v-35l9 -37v-51l-9 -84l-14 -70l-10 -18l-10 -35l-7 -14l-51 -76l-18 -12l-27 -13l-41 -10h-6l-12 10h-6l-19 -4l-39 21l-16 8 l-39 37l-10 16l-4 12l10 19l22 45l11 20l16 39v13l-45 90zM197 948l8 -55v-19l2 -22v-23l10 -22v-19l14 -26l5 -14l14 -9h4l12 2l8 7l17 16l20 37l13 53l2 23l-2 6l8 84v41l-4 57l6 31l-6 18v57l-6 54l-9 28l-20 39l-8 6l-4 11l-19 4l-6 2l-20 -15l-19 -51l-10 -47v-37 l-8 -86l-2 -90v-41zM465 301l4 78l12 49v27l21 53l12 31l12 24l6 -2l13 -22l2 -11l-21 -32l-14 -58l-12 -78l-4 -45v-14l6 -35l4 -41l8 -37l16 -45l11 -18l-4 -12l-13 -25l-22 37l-15 47l-8 41l-8 25zM516 375l6 33l8 30l13 17l16 12h8l13 -4v-6l-7 -21l-14 -28l-12 -19 l-17 -10zM520 248v41l4 6l13 -16l12 -17l12 -37l6 -24v-23l-6 -12l-12 6l-12 16l-11 25zM537 332v6l24 24l2 11l17 18l20 35l4 10l-6 21l-23 51l-8 35l-16 39l6 12l18 20l9 7l14 2l14 18l17 4l37 12h24l31 -2l33 -16l14 -16l23 -19l30 -35l37 -102l12 -82l4 -55l-4 -60 l-6 -32l-8 -19v-37l-10 -39l-21 -49l-6 -12l-18 -19v-12l-15 -16l-20 -23l-18 -2l-5 -6l-32 -10l-17 -6l-22 2l-43 10l-21 12l-16 6l-27 29l-16 23l-4 14l14 27l8 18l8 27l27 57l-14 37l-21 26zM623 322l4 -33l-2 -27v-26l2 -23v-41l8 -59l18 -56l13 -16l10 -4l14 10l21 4 l22 33l17 98l4 31v41l4 25l-4 53l4 30l-4 13v35l-4 59v16l-5 35l-10 37l-18 29l-2 8l-23 20l-14 -6l-16 -16l-19 -49l-10 -86v-25l-4 -12v-10l-6 -21v-67z" />
<glyph unicode="&#x26;" horiz-adv-x="972" d="M33 256l12 47v29l10 47l19 43l16 39l12 14h2l11 21l14 20l21 25l16 14l16 18l11 2h2l30 -49v-6l-16 -22l-14 -17l-15 -24l-6 -25l-2 -16v-21l-8 -35l18 -106l8 -23l11 -30v-17l22 -30l17 -11l14 -20l4 -4l4 4l29 -6l20 -4l25 4l4 2l39 41l12 18l31 -49l-12 -23l-17 -30 l-10 -10l-14 -13l-11 -22l-8 -8l-20 -11l-15 -18l-30 -17l-54 -18l-20 4l-12 8h-25l-41 19l-2 6l-6 -2l-16 18l-27 41l-23 37l-2 6l-6 23l-10 51l-4 39zM117 924v49l2 35l6 34l4 11v8l4 12l12 -12l17 -12l8 -7l6 -10l-2 -18l-2 -25l2 -69l2 -21l4 -22l8 -19l5 -12l-3 -33 l27 -65l43 -109l31 -57l10 -19l6 -18l15 -25l8 -18l43 -80l6 -6l29 -56l24 -53l2 -12l29 -41l43 -82l12 -18l10 -25l4 -16l56 -90l22 -33v-6l-43 -7h-22l-8 7l-41 75l-25 41l-12 31l-13 19l-38 69l-13 25l-28 51l-7 8l-2 29l-24 37l-60 116l-12 31h-4l-14 25l-33 69l-23 54 l-4 6l-2 22l-26 56l-11 34l-20 90v15zM133 1124l29 66l18 37l25 39l2 8h10l2 6l17 25l24 16l62 31h12l10 10l70 18h47l28 -8l5 -4h12l4 4l14 -4l49 -18l21 -13l22 -26l11 -2l10 -11l12 -12l31 -59l18 -49l11 -64v-14l-4 -21l2 -8l2 -22v-25l-7 -47l-10 -29l-18 -37l-23 -34 l-26 -29h-9l-36 -31l-23 -10l-14 -8l-15 -6l-14 6l-18 35l-11 20l2 10l29 6l12 7l25 47l10 30l6 35l9 17l-7 59v41l-8 49v12l-12 25l-8 33l-23 32l-20 17l-11 4l-24 18l-37 -6l-20 -12l-7 -21l-16 -12l-14 -26l-6 -23v-25v-34l2 -41l6 -35l20 -60l6 -2l11 -45l18 -24l14 -25 l21 -53l51 -98l14 -39l33 -58l14 -36l64 -111l14 -37l35 -59l39 -99l25 -26l14 -29l25 -57l14 -15l18 -28l11 -25l32 -51l35 -59l10 -9l2 -6l7 -14l2 -6l-2 -13l-19 -6l-20 6l-41 7l-15 4l-30 -4l-13 4h-123v6l11 72l2 51v59l6 109l-14 10l-68 20h-25l-18 4l-33 17l-14 2 l-6 6l2 117l2 2l-4 24v23l8 57l2 41l-2 15l-49 22l-13 8l-24 11l-19 16l-36 6l-33 12l-4 2l-2 39l2 109l6 6v16l-2 35l2 68l-4 26l-10 13l-33 8l-51 33l-13 18h-24l-37 19l-19 16l-8 6zM199 918l2 49l6 39l4 12l12 -19l8 -34l5 -25l2 -29l-5 -28l-4 -19l-4 -18l-6 -10 l-14 47zM260 860l2 41l6 47l4 6h7l10 -20l10 -39l2 -25l-2 -30l-6 -41l-6 -33l-6 -2l-7 10l-8 33zM354 586l4 6l11 8l16 8h18l25 -10l18 -12l15 -19l2 -4l-2 -8l-15 -14l-18 -9h-20l-25 13l-18 12zM379 475l16 10l29 7h20l27 -17l8 -6l4 -6l-2 -12l-12 -13h-4l-23 -12l-32 2 l-15 14l-12 19zM539 190l4 29l2 25l6 28l8 19l4 6l8 -23l4 -12l5 -47l-13 -59l-6 -21h-6l-10 27zM602 141l2 31l2 29l10 22v2l11 25l4 4l4 -4l2 -8l4 -23l2 -49l-8 -61l-4 -27l-15 -27h-4l-6 23l-2 35zM653 557l2 53l4 64l3 12v119l4 8l8 6h41l55 -6l21 4h59l8 2h25l16 8 l35 7l4 -5l2 -16l-8 -18l-43 -37l-74 -88l-39 -35l-10 -21v-6l-80 -94l-6 2z" />
<glyph unicode="'" horiz-adv-x="215" d="M49 1116l2 53l4 25l2 12l-4 27l15 82l10 33l18 38l15 19h6l8 -23l39 -122l2 -13l-2 -78l2 -49l-10 -41l-6 -24l-7 -29l-16 -49l-6 -12l-10 -29l-11 6l-28 88l-13 43z" />
<glyph unicode="(" horiz-adv-x="548" d="M82 645l2 62l4 36l2 76l4 19l6 71l6 39l7 19l2 6l6 43v14l16 14l6 39l15 60l24 59l25 55h4l37 70l8 8l18 -59l7 -12l-2 -9l-13 -16l-49 -100l-14 -47l-6 -25l-11 -16l-18 -78l-10 -60l-4 -22v-21l-11 -47l-6 -69l2 -11l-2 -20l-10 -25l10 -61v-31l6 -84l15 -76l4 -34 l20 -60l8 -33l17 -40l6 -29l23 -51l10 -9l22 -34l25 -37l-27 -72l-2 -8l-28 41l-11 12l-43 80l-18 59l-10 15l-15 47l-24 92l-4 25l-15 61l-2 21l2 24l-10 55zM162 684v6l8 39l12 29l19 26l14 13l10 6l17 -2l8 -13l-21 -45l-18 -24l-4 -6l-21 -15zM182 571l17 60l8 22l16 29 l15 12l20 11h21l6 -11l-17 -41l-32 -53l-29 -25l-21 -10zM215 479l10 13l15 32l14 6l6 23l14 39l19 26l10 27l21 39l-15 39l-12 20l-6 27l-10 8l-27 53l-25 60l-4 18l13 23l16 18l10 4l10 23l23 33l39 47h4l16 39l9 2l-11 45l-4 14l-8 12l-20 70l-5 41l-10 8l-4 27l-10 33 l-10 20v8l45 64h14l12 12l19 25l12 12l29 16l24 11l19 14l14 6l29 10h14l4 -6v-6l-29 -53l-18 -41l-6 -35l-19 -57l-6 -33l-2 -12l-10 -21l-35 -227v-35l-8 -19v-63l-10 -131l2 -119l-10 -47l4 -37l8 -119l-4 -26l24 -191l9 -43l-7 -26l9 -19l14 -71l14 -62l8 -53l11 -21 l10 -8l4 -18l14 -41l29 -47l6 -17v-14h-18l-13 6l-26 6l-23 13l-30 14l-25 29l-10 4l-25 43l-10 -9l-8 7l-29 47l-14 12l26 90l7 19l8 6l8 24l4 29l18 53v17l-18 41l-8 6l-12 20l-33 53l-8 21l-7 6l-49 78l-8 6zM223 350l23 -4l12 -6l14 -12l25 -49l6 -27l4 -27v-18l-4 -4 l-10 10l-33 25l-6 12l-18 37l-7 39zM225 1030v8l19 52l14 24l21 23l12 6l18 2l4 4l9 -6v-4l-11 -23l-28 -49l-21 -18l-33 -19h-4z" />
<glyph unicode=")" horiz-adv-x="548" d="M35 -162l4 10l8 13l39 71l16 70l11 16l2 15l12 63l10 60l13 37l2 10l-2 8l8 63l12 66l4 57l-2 54l4 8l4 84v98v49v88l6 19l2 32l-10 25l-4 55l-18 140l-4 53l2 6l-2 18l-9 29l-12 49l-12 72l-13 51l5 14l-17 41l-4 7l-49 131l6 16l25 -6l22 -17l25 -53l31 -84l12 -49 l14 -47l2 -20l10 -50l19 -96l-6 -27l4 -20l8 -45l6 -6l6 -53v-62l6 -104v-74l-2 -8l-4 -21l6 -35v-65l2 -29l-4 -84l-4 -82l-8 -77l-6 -7v-34v-17l-6 -41l-10 -65l-15 -84l-18 -84l-15 -45h-4l-6 -6l-4 -33l-12 -33l-17 -20l-22 -17l-37 -10l-10 6v6zM158 1466l4 4l18 -10 l45 -47l54 -61l14 -25l20 -33l2 -12l31 -53l19 -35l26 -72l19 -67v-21l14 -47l8 -31l17 -82l8 -55l6 -31v-10l-4 -12v-29l8 -61l-2 -101l-4 -65l-4 -39l-6 -12l-5 -49l-4 -23l-22 -94l-21 -60l-22 -47l-31 -67l-41 -70l-4 -6l-12 -6l-10 -33l-58 -72l-41 -36l-12 -7l-4 7 l22 94l9 61l55 74h4l10 14l82 113l-6 33l-16 59l-7 21l-24 100l4 6l20 45l33 53l8 2l7 17l26 49l15 29l4 4l-37 65l-27 47l-16 31l-8 12l-13 13l-24 41l14 43l29 98l8 8l6 53l-63 111l-11 12l-8 23l-6 8l-14 10l-33 35l-6 8l-13 60l-8 38zM225 184l4 37l11 35l18 47l16 25 l19 10v-4l4 -25v-35l-4 -22l-6 -25l-15 -30l-28 -33l-15 -12zM225 1163l4 6h9l12 -8h6l18 -22l13 -25l20 -57l8 -23l-2 -8l-6 -4l-14 6l-31 29l-12 18l-21 70zM250 700l18 -10l15 -20l16 -39l10 -29l6 -27l2 -18l-2 -8h-8l-14 14l-25 31l-14 49zM279 778l2 6l18 -6l35 -37 l12 -22l14 -60v-6l-4 -6l-24 17l-15 12l-20 39l-6 22z" />
<glyph unicode="*" horiz-adv-x="444" d="M41 854l16 53l11 25l8 12l20 29l23 18h14l12 10l23 9l18 4h7l4 -6l-9 -33l-12 -25l-12 -28l-19 -31l-6 -6l-12 -2l-18 -23l-21 -6l-43 -6zM53 1194l4 6h19l24 -2l15 -6l10 -10l10 -13h8l19 -12l10 -24l14 -19l21 -57v-8l-2 -7l-23 -4l-18 -4l-29 15l-20 18l-15 14l-12 11 l-22 55zM186 823v54l7 26l6 17v22l14 37l6 16h6l11 -32l8 -48l8 -36l2 -25l-10 -92l-15 -39l-6 -14l-6 -2l-10 18l-6 10l-8 43zM193 1204l2 31l-2 27l12 79l14 39h4l8 -20l11 -27l18 -63l6 -19l-2 -16v-41l-16 -59l-4 -27l-15 -39l-6 -6h-4l-16 59l-4 29zM240 1055v6l16 37 l10 22l19 27l24 33l10 2l41 26h29l2 2l10 -6h2v-10l-12 -31l-39 -67l-12 -9l-18 -20l-3 -4l-40 -12zM242 1008l2 8h30l43 -15l21 -12l24 -39l9 -12l24 -70l-8 -12l-39 6l-20 4l-15 11l-10 14l-4 6l-14 6l-11 17l-24 65z" />
<glyph unicode="+" horiz-adv-x="702" d="M57 145l9 148v31l4 14v96l2 90l6 33l-6 21l4 38v25v55v240l2 84l-8 41l-4 102v25v14l4 8l12 -6h43l29 6l4 -2l-2 -26l-11 -97l2 -47l-2 -47l2 -24l-6 -35v-156l2 -33l-4 -20v-27l4 -18l-2 -21v-159l-2 -33l-2 -2l6 -29l4 -123v-39l7 -86l4 -28l-4 -8h-70l-18 -7zM162 684 v4l2 6l18 25l31 57l18 37l13 12h4l10 31l33 59l20 46l6 12l13 16h4l8 31l25 59l24 56l12 20l17 -41l8 -10l14 -35l21 -41l2 -8l-4 -10l-19 -13l-32 -36l-21 -35l-22 -23l-50 -94l-16 -18l-29 -66l-14 -18l-4 -19l-4 -16l35 -62l14 -35l16 -16l25 -43l18 -22l13 -23l32 -47 l7 -12l57 -66l4 -8l-2 -4l-10 -12l-19 -19l-16 -29l-14 -22l-11 -14l-6 -7l-39 91l-6 18l-20 31l-29 57l-37 66h-2l-18 43l-17 26l-18 37l-37 72zM309 684l21 27l30 30l23 15l37 16l26 6l11 6l16 -2l12 2l15 7l14 4l59 -29l23 -23l47 -53l4 -12l-39 -41l-35 -21l-14 -10 l-27 -2l-18 -10h-14l-15 -4l-51 4l-2 2l-12 22l-17 -6l-30 13l-39 24l-23 27z" />
<glyph unicode="," horiz-adv-x="303" d="M29 -193l2 13l16 53l6 6l4 19l11 28l2 25l18 72l12 47l15 41v14l16 84l4 43l4 29l11 10h4l41 -107l4 -34l16 -31l18 -53l15 -37l2 -9v-10l-2 -6l-66 -45l-26 -29l-17 -10l-4 -12l-88 -105l-8 -6h-4z" />
<glyph unicode="-" horiz-adv-x="479" d="M49 631l8 12h11l34 -12l68 -15l14 -12l41 12h51l60 7l8 -7l29 9l43 10h6l6 -10v-103l-2 -24l4 -86l-4 -9l-20 3h-5l-28 12l-54 -2l-34 6l-11 6l-20 -6h-55l-23 -4h-63l-29 -6l-2 -2l-14 -4l-9 -3l-8 7l2 28l4 62l-4 39l-2 61z" />
<glyph unicode="." horiz-adv-x="303" d="M49 127v35l8 43l11 39l28 53l25 6l10 10h16l15 6h18l43 -38l10 -29l11 -35l6 -33v-26l4 -6v-15l-6 -45l-17 -43l-16 -22l-16 -19l-13 -8l-12 -2l-6 -6l-10 -10l-15 4l-32 8l-17 14l-8 21l-6 2l-14 18l-11 43z" />
<glyph unicode="/" horiz-adv-x="628" d="M8 -119l8 23l97 231l10 12l18 84l68 205l27 60l14 67l37 129l39 94l6 50l8 20l39 121l20 65l15 33l2 21l12 47l43 139l4 6l6 25l25 149l6 19l16 -6h33l8 -9l37 15h10l5 -8l-29 -70l-19 -49l-6 -13l-14 -57l-2 -18l-8 -13l-25 -69l-4 -6l-6 -7l-8 -28l-17 -72l-39 -119 l-12 -18l-31 -111l-47 -153l-14 -56l-35 -75l-24 -107l-45 -131v-8l-41 -121l-21 -90l-16 -49l-2 -10l-6 -7l-13 -49l-10 -73l-6 -15h-12l-15 6l-10 -4l-27 4l-45 -10z" />
<glyph unicode="0" horiz-adv-x="915" d="M41 690v23l4 35l2 49v47l10 57l4 19l15 49l2 22l18 60l19 45l20 39l12 26l9 13l14 6l6 24l17 23l32 37l29 28l12 13l13 4h6v-70l-37 -41l-25 -31l-16 -18l-31 -64l-12 -22l-37 -119l-12 -55l-11 -35v-96l-4 -29v-53l-4 -47l10 -99v-45l5 -20l10 -31l4 -6l4 -18l35 -113 l29 -51l20 -56l4 -6l4 2h10l31 -36l23 -13l2 -6v-35l2 -37l2 -12l-4 -14h-6l-13 10l-12 16l-8 13l-17 2l-55 82l-26 47l-25 49l-6 6l-19 70l-22 59l-6 51l-13 37l-8 55l-4 35v29v22v13v22l-4 25zM129 657l4 39l6 29l8 23l9 18l18 18l19 11h6l4 -7l-4 -24l-13 -39l-14 -25 l-18 -30l-17 -19h-6zM154 522l2 37l8 39l14 33l15 26l24 25h12l7 -6l-9 -41l-10 -35l-12 -31l-17 -24l-26 -23h-8zM182 913v11l64 65h6l12 15l51 53v92l2 27l-8 34l2 45l-2 15l6 59l4 4l3 6l40 25l41 18l17 7h4l14 -7l25 7h29l40 -13l31 -6l10 -6l33 -16l29 -19l20 -26 l13 -5l26 -22l54 -68l24 -51l21 -41l4 -18l4 -19l12 -12l14 -47l13 -53l16 -78l8 -47v-19l10 -41v-28l-6 -47l6 -50l-4 -75l-14 -123l-20 -90l-11 -35l-12 -25l-10 -37l-17 -39l-16 -36l-4 -4l-14 -27l-9 -14l-14 -9v-6l-18 -31l-56 -59l-24 -10l-8 -12l-19 -17l-53 -31h-8 l-11 3l-26 -9l-23 2l-8 -2l-55 6l-19 13l-16 -6l-20 12l-19 6l-22 18h-2l2 136l-2 6l2 12v10l-2 19l-3 43l3 22l-48 76l-4 14l-22 21l-8 12l-45 62l-2 6l4 16l24 53l25 35l14 35v12l25 62l-19 39l-26 65l-13 15l-16 34l-8 23l-8 41zM188 1010v6l5 20l18 43l20 23l21 20l20 4 l7 2l6 -2v-12l-15 -35l-26 -43l-19 -22l-26 -6zM203 338l2 12l14 -4l23 -18l14 -17l18 -43l15 -53v-6l-4 -6l-17 10l-20 18l-31 56l-12 45zM334 748l6 -25l-2 -160l10 -94l-2 -29l-4 -12l14 -59l15 -90l14 -74l2 -27l14 -33l7 -20l18 -25l27 -28l2 -4h34l17 -7l20 7l11 6 l14 22l6 19l23 30l10 21l14 39v22l19 58v34l8 62l4 37v28l2 23v49l6 107l-6 80l4 30v31l-6 29l-8 108l-13 111v18l-4 31l-8 16l-20 109l-21 53l-10 21l-16 14l-17 22l-18 13h-17l-30 -8l-4 -5l-21 -6l-25 -43l-12 -39l-8 -28l-4 -2l-19 -90l-12 -127l4 -21l-12 -63l2 -37 l-8 -54v-40z" />
<glyph unicode="1" horiz-adv-x="512" d="M-8 1055v10l12 8l41 23l31 28l18 9l21 28l18 17l41 55l8 6h4l2 -6v-16l-2 -166l-4 -9v-28l4 -25l-4 -12l4 -86v-156l-4 -22v-21l4 -47v-113l2 -34l2 -47l3 -41l-7 -19v-141l4 -12l-2 -23v-133l2 -14l-4 -9v-12l2 -10l2 -43l-12 2l-4 -2h-20l-35 -4l4 63v66l2 67l2 21v24 l-4 17l4 67l4 152l-4 37l-2 6v29l2 59v154l2 65l4 35l-4 27l-4 4l-2 153l-21 -16l-26 -19l-15 -12l-16 -12l-4 -4l-6 -2l-33 71zM199 647l2 23l14 -6l21 -19l18 -39l6 -18l6 -37v-23l-16 4l-19 19l-16 24l-10 31l-4 17zM207 1108v31l4 22l10 25l21 28l16 7l4 -7l-4 -36 l-8 -33l-21 -41l-14 -19l-4 5zM211 240l2 14l4 20l8 19l13 26l6 9l18 12l23 6l4 -6l-6 -27l-11 -28l-22 -31l-21 -16l-10 -5zM221 137v10l15 43l14 23l18 14l19 11h20l2 -7l-6 -22l-10 -29l-21 -30l-22 -15l-14 -4h-13zM225 2l4 23l-4 16l17 18l57 82l12 9l6 22l25 35l12 26 l-30 64l-9 31l-22 34l-4 17l-39 74l6 22l29 47l14 35l23 29l24 43l12 30l-30 66l-4 6l-7 23l-38 69l-25 56l12 28l21 51l10 15l14 16l11 19l38 84v6l-43 65v4l-6 25l-18 18l-33 54l-14 22l-10 12v13l32 51h11l36 -4l9 4l6 -10l16 6l14 10l19 -4l35 4v-154l-4 -6l4 -22v-31 v-76l4 -47l-2 -14v-74l-6 -26l4 -52v-127v-186l-4 -72l4 -35v-24v-109l2 -57l-6 -29l6 -37l4 -102v-45l2 -41l-2 -14h-31l-63 8l-4 4l-13 -10l-80 6zM229 772l7 12l8 4l30 -34l17 -31l12 -31l6 -35l2 -18v-27l-2 -2h-6l-4 2l-16 21l-15 20l-14 25l-8 22zM236 983l4 31l6 28 l8 29l27 47l18 8l8 -2v-20l-8 -49l-8 -25l-12 -29l-11 -16l-14 -12l-16 -2z" />
<glyph unicode="2" horiz-adv-x="749" d="M8 -4l2 10l49 129l7 6l12 47l16 19l27 69l6 21l39 96l22 35v25l23 51l20 65l29 68l8 37l62 133l4 31l4 12l51 160l10 16l-2 10l4 47l2 13v94l-8 33l-12 16l-18 35l-27 18l-29 2l-22 -10l-2 -2l-6 2l-11 -6l-14 -10l-29 -25l-8 -4l-12 -14l-19 -27l-22 -47l-12 -25 l-15 -12v-29l-20 -45l-17 -53l-6 -18l-12 -51l-6 -9l-13 6l-4 9l-2 45l4 35l-4 38l6 95l5 20l-5 27l-2 78l2 14v24l9 15l8 4l33 12h6l39 23l6 -2l22 12h11l26 8l49 12h31l12 -2l15 -16l35 4l20 -8l8 -16l31 -31l14 -25l15 -18l2 -45l8 -25l6 -59l-4 -72l-14 -78l-13 -22 l-6 -45l-35 -82l-14 -41l-41 -107l-6 -8l-25 -80l-24 -49l-15 -55l-8 -8l-8 -17l2 -16l-59 -137l-13 -45l-14 -19l-4 -22l-35 -107l-31 -78l-10 -45l-8 -16h-21l-14 4l-33 -4h-6zM121 -4v8l20 68l25 12l24 6l39 21l21 12l16 -4l15 20l65 37l6 10l-6 52l-4 65l-6 43l-2 78 l-4 35l4 12l39 41l28 14l23 2l51 39l12 6l2 54v28l-4 35l2 15v38l2 31l-8 31v39l-2 6l51 65l21 11l14 16l53 59l7 11l-19 32l-24 64l-33 57l-27 52l-14 18l-68 121l-6 2l-2 6l10 4l54 -8l32 -17l31 -26l14 -17l7 -18l30 -31l31 -59l21 -62l10 -57v-65l-4 -27l-2 -35l-15 -53 l2 -16v-17l-43 -149l-18 -41l-4 -27v-2l-47 -98l-6 -19l2 -10l-7 -18l-18 -43l-37 -88l-16 -27l-2 -14l-13 -41l-30 -74l2 -6l35 -2l26 4h21l4 2l16 -8l17 12l38 10l31 12h19l51 37l14 15l10 4l4 -6l-16 -131l-6 -29l-2 -45l-4 -74l-6 -14l-117 6l-25 14l-12 -2l-20 -8h-35 l-62 -4l-14 6h-18l-17 -4l-26 6l-21 -6l-104 -2l-21 6zM205 248l2 24l4 37l4 6l10 -6l17 -30l4 -37v-25l2 -4l-6 -55l-4 -4l-7 -4l-14 18l-10 45zM262 344l8 64h6l17 -35l16 -39l6 -35v-35l-2 -28l-6 -29l-4 -8l-24 34l-9 27l-6 35zM332 567v11l20 30l21 21l12 8l14 4h25 l33 -8l2 -6l-2 -6l-11 -17l-26 -24l-25 -15l-22 -8l-21 2zM360 690v6l11 23l18 24l25 23l12 4h14l27 -14v-11l-21 -22l-2 -8l-34 -27l-31 -6l-12 2zM471 1049v10l4 2l6 2l15 -14l12 -15l12 -35l10 -24l2 -19l-2 -6l-4 -4l-14 6l-12 11l-2 2l-17 30zM496 1153l4 6h2l12 -8 l6 -4l35 -49l6 -17l6 -20l6 -27v-14l-6 -4l-4 4l-39 24l-10 19l-2 6l-8 21l-4 22l-2 29z" />
<glyph unicode="3" horiz-adv-x="712" d="M16 53l4 17l31 49l17 35l14 12l12 -23l41 -45l8 -16l21 -4h18l45 -12l29 4l25 24l28 19l13 18l14 21l10 30l25 49l10 41v41l2 49l-2 46l-6 34l-2 25l2 16l-10 31l-3 18l-16 41l-29 37l-34 35l-33 6l-25 6h-8l-10 13l-14 41l-7 18v4l56 19l12 -4l25 26l28 21l10 10l29 43 l21 63l4 7v36l2 45l-2 121l-9 17l-2 22l-14 43l-8 17l-10 24h-4l-33 25l-12 4l-17 8l-16 4l-39 -29l-43 -43l-8 -16l-13 -31l-14 -28l-16 -23l-2 -20l2 -7l-9 -14l-41 -119l-8 -6l-8 10l4 95l-4 41l6 67l-2 13l-4 116v23l4 8l33 18l43 21l10 -6l17 8l28 10l13 2h47l22 -2 l31 -10l4 -12l18 -7l33 -24l23 -27l18 -37l19 -55l14 -74l8 -53l2 -45l-4 -70l-4 -18l-12 -33v-45l-8 -33l-7 -8l-26 -57l-25 -19l-12 -22l-14 -14l43 -47l12 -19l4 -4l4 -23l21 -26l26 -76l6 -35l6 -59l2 -37l-2 -21l-6 -20v-12l2 -13l-2 -10v-37l-14 -63l-14 -49l-15 -33 l-4 -35l-20 -31l-47 -49l-41 -28h-9l-4 -7h-16l-23 -4l-8 11l-35 -13l-30 8h-13l-34 11l-17 22l-12 2l-12 4l-37 29v2zM371 1337v6l10 7h10l19 6l24 -2l62 -17l20 -18l6 -6l13 -6l8 -15h24l45 -67l6 -19v-12l17 -20l16 -68l6 -39l5 -43l-3 -23v-24l-6 -53l-12 -43l-23 -52 l-14 -20l-12 -4l-2 -6l-10 -19l-19 -28l-43 -37l-8 -4v-6l51 -41l33 -37l4 -11l6 -18l19 -8l34 -98l9 -37v-25l-4 -20l6 -21l4 -33l-4 -43l-9 -71l-8 -25l-14 -41l-14 -35l-29 -41l-12 -12l-17 -4l-28 -27l-15 -12l-16 -20l-17 -2l-12 -7l-43 -16l-31 -8h-12l-8 8l8 18 l41 72l25 27l20 53l68 109l20 16l4 22l25 54v12l-78 143l-4 25l-25 29l-24 43l-49 79l-4 15l45 71l10 13l6 4l37 72l8 10l23 24l6 25l45 82v2l-21 39l-39 71l-47 66l-2 10l-18 13l-33 47l-14 20l-25 27l-10 14zM451 1008v20l2 19l6 26l12 35l16 22l9 7h10v-2l-4 -68l-6 -14 l-15 -19l-22 -33h-4zM455 348v23l8 8l14 -6l15 -11l24 -38l10 -33l4 -21l-8 -6l-35 15l-14 22l-14 35zM463 510l2 4h6l35 -25l20 -34l19 -41l10 -31v-10l-6 -6l-23 10l-20 14l-14 17l-11 16l-16 61zM463 883v39l8 26l16 35l27 37l25 20h6v-4l-2 -28l-17 -47l-14 -31l-23 -35 l-16 -12h-10z" />
<glyph unicode="4" horiz-adv-x="868" d="M0 360l2 11l61 112l15 37l16 23l27 53l20 25l35 81l17 31l20 45l8 19l12 8l11 33l16 34l59 115l9 23l73 147l13 31l16 35h6l2 -11l-2 -129v-86l-6 -34l6 -183l-2 -67l-2 -11l4 -100l-2 -96l-4 -19l4 -38v-166l-4 -50l6 -38l4 -21l-2 -27l2 -120l4 -23l-4 -6h-59l-12 6 l4 43l4 23l-4 69l4 8v93v36l-4 25v27l4 67v47l4 31l2 4l-2 47l2 31l-2 6l-2 23v137l2 35l2 2l-4 39v159h-2l-21 -34l-12 -31l-25 -45l-34 -78l-29 -53l-4 -13l-10 -16h-6l-9 -18l-2 -25l-37 -65l-22 -52l29 -2l43 2l4 -8l28 8l78 4l4 -6l2 -4l-2 -8v-59v-54v-28v-19l-4 -6 h-18l-15 -4l-55 4l-14 2l-13 6l-34 -6l-23 6l-31 -2l-36 -6l-37 2l-19 -2h-45zM453 240l2 8l10 28l18 41l13 13l26 10h10v-10l-4 -25l-10 -24l-14 -21l-10 -12l-23 -12l-14 -3zM453 1092v24l8 35l8 31l14 24l25 19h4l2 -13l-2 -30l-8 -29l-21 -41l-28 -25zM459 633v51l6 -4 l12 -8l12 -27l19 -53l8 -49l-2 -4l-2 -2l-18 12l-13 16l-10 15l-8 22zM471 10v37l80 76v4v14l20 29l33 47l-29 66l-8 34l-22 56l-4 4l-27 53l-10 29v6l8 18l29 60l20 12l2 4l2 19l33 65l10 19l-33 65l-18 41l-10 18l-19 48l-24 57v6l10 31l33 57l4 2l14 31l4 6l11 14l20 49 l4 7v4l-41 84l-12 12l-43 88l-25 35v2l19 47l43 -6l22 -4l6 4l11 -6l22 12l17 -2l26 6h23l2 -10l-6 -19l-2 -81l-2 -95l-2 -12l4 -31l-2 -129l2 -6l-11 -41l9 -94l-2 -139l-9 -74v-14l4 -11l5 -30l-3 -72v-158l5 -65v-53l-2 -31l4 -19v-57l2 -88l4 -18v-21l-4 -10l-56 4 l-8 -4l-12 4l-10 8l-31 -2h-19l-55 -4zM471 133l10 29l13 26l18 27l25 21l14 10l10 -4v-2l-4 -13l-12 -41l-19 -32l-20 -19l-19 -8h-14zM477 979l10 51l15 35l10 27l12 14l27 31l6 -9v-24l-2 -12l-4 -23l-14 -35l-13 -22l-28 -27l-15 -10zM481 780l6 13l13 -13l12 -12 l12 -18l17 -31l10 -51l4 -29l2 -8l-2 -6l-12 8l-23 16l-18 35l-15 53l-4 35zM684 532l8 7l47 -9l39 7l15 -5l10 -2l37 9h10l2 -9l-27 -94v-6l-12 -16l2 -33l-8 -39l-31 4h-16l-10 2l-29 -6h-23l-12 10v43v25v10v72z" />
<glyph unicode="5" horiz-adv-x="745" d="M49 57v6l10 13l47 82l5 2l6 -6l22 -31l51 -41l25 -10l29 -6l51 -3l65 19l31 24l6 5l11 6l32 53l15 25l20 47l12 49l2 35l9 32v31l2 47l-15 96l-4 31l-28 62l-21 32l-24 29l-29 23l-37 8l-49 6l-17 14l-8 2l-2 -8l-16 -4l-19 4l-41 2l-2 -2l-32 -8v4l-4 10l4 45l32 64 l43 57l5 10l8 2l8 37l29 43l30 54v6l-61 104l-8 23l-11 10l-67 108l-2 21v39l2 8l4 4h70l12 -10l29 6l18 2h39l6 -4l23 2l2 -2l4 -10l-4 -37l-2 -84v-100v-17v-8l-7 -27l7 -77l-5 -72v-19l5 -34l-11 -70l4 -14l31 2h37l31 -2l14 -15h35l31 -12l53 -33l10 -16l10 -4l15 -15 l24 -45v-14l10 -18l19 -39l18 -72l6 -41l5 -53l-5 -19l3 -34v-19l-13 -43l-10 -20v-9l-4 -22l-19 -47l-22 -47l-27 -35l-20 -25l-17 -8l-41 -41l-43 -12l-24 -19v-8l-86 -26l-45 -11l-23 5l-28 -11l-35 6l-6 5h-19l-24 6l-25 2l-4 12l-8 4l-35 -4l-16 12l-27 15zM59 721v16 l11 115l2 8l2 60l2 12v45l-2 141l8 21l-2 4l-4 41l-4 137l-4 47l2 6l12 -4h57l2 -45l-4 -35v-24l-4 -25l4 -37v-45l2 -41l-4 -37v-77l2 -39l-4 -15v-51l4 -49l-10 -94v-33l-4 -8l-35 8l-25 -8zM152 1049l2 16l8 25l20 36l29 19l8 2l10 -2v-12l-6 -27l-20 -33l-21 -20 l-24 -13h-4zM170 930l6 31l14 34l13 21l26 28l33 21h4v-4v-21l-6 -24l-20 -35l-11 -18l-30 -25l-17 -8l-8 -4zM393 1278l4 74l-2 12h21l47 6l14 -10l25 4l96 -2l12 2l6 -2l19 6l35 -2l2 -6l-4 -35l-2 -90l-4 -37v-76l-7 -10l-6 4l-22 27l-52 20l-8 13l-35 -2l-14 -5l-33 9 l-55 10l-35 4l2 65z" />
<glyph unicode="6" horiz-adv-x="854" d="M41 705l6 14l-2 31l2 81l6 27l4 35l13 53l18 82l6 6l8 37l11 23l65 118l17 23l18 14l16 27l27 20l23 15h12l-6 -99l-25 -12l-24 -24l-17 -23l-12 -23l-21 -18l-24 -65l-6 -9l-21 -61l-16 -68l-15 -35l-2 -77l-2 -23v-31v-63l-4 -29l4 -14l4 -66l13 -98l14 -49v-6l14 -60 l5 -30l22 -33l12 -31l9 -22l8 -19l26 -37l4 -4l15 -35h10l23 -26v-76l-23 12l-37 37l-31 33l-8 14l-4 17l-12 18l-27 41l-41 102l-35 127l2 31l-10 60l-10 49v80zM127 659l4 43l12 41l13 25l8 12l20 19l9 4l2 6h4l2 -16l-4 -21l-15 -45l-22 -41l-15 -18l-14 -17zM152 508v31 l6 53l14 45l23 41l18 14h6l4 4l4 -6l-4 -28l-16 -62l-14 -41l-25 -35l-14 -16h-2zM184 467l19 51l28 49l9 25l26 47l8 23l-32 96l-21 45l-20 71l-13 31l-4 13l33 38l43 56l12 6l25 39l18 24l7 76l-5 8v88l-2 66l23 22l33 15l39 20l20 -6l27 12h16l39 9h53l15 -7l14 5l63 -19 l9 -14l16 -2l55 -31l4 -6l-2 -111l2 -18l-8 -12l-22 28l-35 31l-14 22l-33 3l-11 10l-24 8h-12l-33 10l-8 -4l-52 -27l-47 -40l-4 -11v-10l-8 -12l-16 -21l-35 -86l-27 -100v-25l-12 -73v-27l-2 -37l2 -43l-2 -80l-6 -26l4 -27l2 -25v-65l4 -53v-66l6 -22l4 -29v-19l8 -59 l7 -78l14 -43l18 -39l27 -49l20 -22l37 -9l11 -14l22 10l10 17l19 14l14 27l23 39l12 26l8 19v22l10 68l2 35l4 16l5 47v27l-5 10l5 31l-11 88l-10 37l-14 51l-8 18l-7 23l-18 12l-4 8l-35 29l-20 6l-33 -2l-41 -23l-12 -10l-15 -18l-4 4v12l6 76l19 14l43 41l12 6h16l33 23 h15l63 12l33 -6l28 -12l39 -33l19 -18l6 -2l10 -29l15 -12l10 -7l14 -30l19 -54l10 -34l12 -95l2 -28l-4 -19l4 -63l-12 -115l-17 -35v-18l-4 -25l-4 -20l-8 -19l-31 -53l-10 -20l-6 -6l-8 -17l-17 -4l-41 -59l-8 -9l-20 -10l-27 -12l-43 -23h-14l-51 -12l-5 6l-24 -2l-2 2 h-14l-35 11l-8 6h-35l-19 6l-37 28l-6 9v34l-2 72l6 35l2 88l-24 41l-27 41l-18 47l-17 8l-12 13zM193 1022v8l6 21l14 30l18 25l19 12l20 10h17l2 -16l-8 -14l-9 -17l-16 -18l-20 -23l-23 -12zM201 340l2 6h14l29 -35l24 -45l17 -55v-4l-2 -6l-17 6l-32 20l-19 37l-10 29z " />
<glyph unicode="7" horiz-adv-x="718" d="M16 1085v111l2 12v25l-2 29v100l4 6l13 -6l4 2l67 -2l41 2l13 -6h18l17 6l104 -2l12 -8l23 6l10 -2l74 4l16 -4l31 4h14l-2 -16l-37 -125l-16 -93l-12 -14l-4 -16l2 -35l-19 -70l-8 -45l-14 -74l-15 -49l-6 -10l-6 -24l2 -23l-6 -18l-10 -31l-60 -275l-33 -125l-2 -12 l-2 -4l-8 -16v-15l-14 -45l-14 -100l-15 -35l-10 -74l-6 -22l-27 2l-43 -4l-4 10l57 199l7 2l6 41l12 71l25 86l18 76l12 31l4 12l-2 13l4 22l19 88l22 88l21 55l-2 15l2 18l22 90l9 45v9l6 22l6 35l18 72v22l11 53l-5 2h-30l-54 -4l-34 11l-15 -15l-84 -10l-24 -6l-27 -19 l-35 -20l-18 -18l-6 -5l-2 -8l-11 -6zM199 -4v10l8 35l4 12l27 23l24 6h23l14 18l25 23l24 10l19 19l18 10l16 12l-18 84l-8 41l-10 25l-29 125l78 90l12 8l51 67l-6 50l-6 43l-2 22l-8 19l-15 77l-6 52l-2 6l8 14l56 68l28 22l15 17l32 47l-16 67l-10 45l-8 13l-41 124 l-4 7v8l10 28l4 17l6 6l8 -4l55 -2l13 -6l39 4h12l53 -2h25l4 -13l-4 -10l-27 -94l-14 -61l-8 -13l-13 -80l-10 -24l-20 -105l-13 -30l-12 -31l-6 -33l-2 -31l-37 -141l-8 -18l-2 -39l-10 -41l-9 -49l-14 -54v-38l-16 -43l-7 -29v-41l-12 -59l-12 -43l-6 -46v-6l-8 -49 l-11 -20v-19l4 -6l-10 -70l-2 -24l-6 -8l-12 2l-78 4l-17 6l-57 -2l-37 2l-24 -4h-2zM233 266l3 6h4l28 -28l19 -43l6 -23l4 -41l-4 -12l-19 10l-22 19l-10 18l-6 41zM291 317v43l4 7l16 -13l17 -30l18 -54l6 -30v-45l-2 -19l-4 -2l-18 19l-11 14l-12 35zM336 573l6 13 l18 35l17 20l14 14l17 9h24l12 -7l-24 -47l-17 -26l-28 -19l-13 -4l-24 4zM336 698l12 23l23 35l14 10l21 10l16 -4l8 -6l-8 -23l-14 -24l-23 -19l-20 -10l-25 2zM428 1063v53l2 6l14 -12l21 -37l10 -37l2 -41l-2 -24l-4 -6l-2 6l-16 14l-21 45zM459 1186v12l4 16h4l22 -18 l23 -31l8 -35l8 -55v-26h-6l-20 20l-15 27l-18 43z" />
<glyph unicode="8" horiz-adv-x="813" d="M41 299l4 51l-2 23l8 47l25 67l20 19l4 14l15 19l22 18l23 12l2 2l8 -6l10 -8h6l19 -12l20 -23l6 -2v-14l-24 -53l-8 -27l-4 -10l2 -10v-39l-2 -7v-45l4 -18l6 -18l14 -48l2 -10l17 -49l16 -25l33 -28l16 -19l33 -22l31 -6l16 -6h33l16 2l14 -2l9 6l20 6l14 12l5 4h8 l37 39l8 33l10 41l6 24l-8 25l-4 51l-10 31l-15 22l-24 27l-10 16l-25 13l-37 24l-16 11l-19 6l-30 28l-13 13l-6 2h-16l-74 51l-27 20l-14 17l-10 16l-12 8l-15 4l-24 29l-29 53l-23 60l-6 26l-2 27l-14 20l-4 46v41l-4 36l8 19l29 4h16v-6v-35l6 -29v-22l8 -54l31 -65 l8 -27l74 -88l41 -33l10 -6v-6l21 -8h16l41 -29l10 -4l4 -8l43 -22h2l56 -29l22 -14h4l4 -25l4 -8l11 -6l22 -19l4 -2l25 -53l18 -64l8 -53v-14l-10 -45l4 -25l-4 -24l-28 -60l-39 -63l-6 -2h-17l-31 -29l-4 -6l-63 -19l-23 -4l-6 4l-16 -4h-23l-14 11h-45l-37 8l-41 18 l-27 21l-6 8l-24 10l-21 25l-18 8l-35 61l-14 37l-13 35l-10 25l-4 30zM78 1032l6 41l8 29l4 18l19 60l18 28l10 9l29 51l6 2l23 35l49 41l31 18l16 -2l27 24l41 7l18 10l57 2l25 -12l4 -4l27 10l18 -13h31l47 -22l37 -25l18 -18l6 -18l15 -7l8 -6l10 -20l10 -25l15 -43 l8 -12l10 -57v-41l-4 -29l2 -19l-4 -12l-29 -71l-51 -48l-35 -12l-2 -6l-16 2l-41 33l-8 14l14 17l18 36l7 21l4 2l-2 6l4 31l2 45l2 31l-8 28l-15 31l-22 45l-6 25l-21 12l-37 31l-35 10h-24l-12 2l-23 -8l-45 -6l-8 -5l-31 -24l-4 -4l-25 -74l5 -39l2 -20v-17l14 -43v-6 l12 -10l12 -17l19 -14l24 -22l41 -35l35 -25h4l11 -22l6 4l18 -10h6l9 -9l4 2l51 -28l41 -37l10 -4l20 -27l5 -4l28 -14l15 -17l51 -71l12 -23l6 -22l6 -15v-12l21 -47l8 -57l4 -56v-22l-4 -29v-31l-16 -75l-6 -15l-5 -10l-18 -41v-18l-16 -41l-35 -54l-31 -28l-2 -6l-16 -7 l22 88l6 17l2 14l17 92l2 2l10 25v6l6 21l-4 14l16 129l3 22l-23 9h-23l-16 12h-20l-19 4h-35l-14 -6l-6 8l-19 94l-6 41v6l-10 19l-12 86l-4 14h-2l-9 -2l-28 -4l-21 -12h-18l-6 -2l-11 -21h-18l-25 -12l-24 -14l-12 -4l-17 47l-4 22v25l-12 41v12l-10 18l-7 25l-14 66 l-39 8h-22l-2 6l-23 6l-4 2l-10 -8l-70 6l-10 2zM164 883l4 37l2 10l16 -12l9 -17l12 -35l4 -18v-76h-4l-23 33l-10 24l-6 29zM225 891l4 4l7 2l16 -18l12 -19l10 -37l7 -41v-47l-2 -6l-25 29l-10 18l-13 47zM367 666v6l24 35l4 4l35 20l23 4l28 -6h2v-6l-8 -18l-24 -35 l-17 -17l-20 -6h-19l-20 10zM420 582v6l14 22l19 19l30 10h17l22 -10v-6l-10 -17l-25 -24l-22 -13l-27 2zM612 438l6 35l5 8l14 25h4l6 -19l8 -36l2 -25v-39l-4 -20l-16 -41h-8l-11 34l-4 37z" />
<glyph unicode="9" horiz-adv-x="849" d="M41 874v93l4 43v6l18 53l9 45l8 21l24 57l17 29l24 43l48 47h18l16 18l37 35l4 2l25 4l10 6h25l14 6h29l6 -2l12 -4l21 10l34 -10l43 -16l15 -2l24 -12l19 -17l2 -18v-76l-8 -25l4 -34l4 -109l47 -70l4 -10l4 -14l10 -6l25 -29l22 -31l9 -10l-9 -31l-24 -51l-10 -14 l-9 -6l-2 -27l-24 -68l16 -65l17 -51v-9l6 -18l37 -88l6 -29l-60 -53l-14 -6l-25 -25l-24 -26l-19 -19v-80l-4 -41v-16l4 -24l-4 -123l-18 -13l-51 -28l-27 -2h-20l-50 -19l-81 2l-31 6l-19 11l-4 6l-28 2l-21 16l-16 4l-35 21l-23 18l-6 10v11l56 67l10 6l14 -20l31 -29 l31 -10l18 -14l23 8h26l37 12l25 17l14 10l14 8v6l21 37l18 23l37 106l16 66l7 18l4 39l8 49l10 135v35l4 14l2 23l-2 131l2 6l-4 82l4 18l-2 13l-14 39v20l-4 53l-2 39l-8 43l-5 17l5 18l-11 12l-22 54l-43 71l-21 11l-39 -5l-14 -6l-14 -2l-13 -24l-18 -23l-12 -39 l-25 -80l-10 -92l-2 -119l-8 -14l-2 -4l12 -96l4 -53l18 -72l2 -6l17 -17l12 -24l21 -17l24 -12l35 -4l41 20l27 21l8 -6l-15 -74l-10 -20l-24 -9l-31 -24l-14 2l-25 -17l-12 -6h-68l-14 6l-10 -2l-15 17h-8l-45 20l-18 19l-13 10l-28 49l-9 23l-20 18l-10 39l-13 59l-4 41 l-8 49zM555 51l2 51l8 50l33 32l29 33l16 14l41 66l31 86l18 63l4 37l11 45l2 41l2 33l2 117v12v47l-4 41l-11 43l-10 53l-4 13l-2 22l-23 78l-43 98l-10 19v6l-16 4l-19 25l-24 37l-19 18l4 70l7 12l18 -12l25 -25l26 -39l13 -24l28 -35l15 -27l20 -45l18 -53l11 -17 l18 -61l19 -82v-29l10 -49l6 -63l2 -21v-129l-6 -28l-2 -13l-4 -76l-25 -112l-14 -37l-8 -12l-5 -25l-12 -29l-39 -71l-32 -51l-15 -13l-31 -41l-36 -30zM557 264l16 33l21 31l24 18l29 10l2 -4l8 -2l2 -4l-4 -16l-12 -31l-10 -14l-31 -27l-12 -6l-29 4zM580 1141l2 4l22 -6 l19 -19l18 -33l12 -26l9 -27v-12v-6l-3 -2l-28 8l-17 18l-16 29l-10 29l-6 22zM631 696l10 45l14 43l35 54l6 6h4l2 -6l3 -19l-9 -47l-16 -57l-14 -21l-15 -16l-16 -8l-2 6zM662 559l4 31l8 39l16 30l6 13l23 18l6 4l4 -6v-26l-10 -50l-8 -16l-13 -21l-28 -18l-4 -4z" />
<glyph unicode=":" horiz-adv-x="303" d="M49 127v35l8 43l11 39l28 53l25 6l10 10h16l15 6h18l43 -38l10 -29l11 -35l6 -33v-26l4 -6v-15l-6 -45l-17 -43l-16 -22l-16 -19l-13 -8l-12 -2l-6 -6l-10 -10l-15 4l-32 8l-17 14l-8 21l-6 2l-14 18l-11 43zM49 799v32l8 46l11 36l28 54l25 8l10 8h16l15 8h18l43 -41 l10 -26l11 -35l6 -35v-25l4 -6v-16l-6 -43l-17 -45l-16 -23l-16 -18l-13 -6l-12 -4l-6 -6l-10 -9l-15 2l-32 9l-17 16l-8 18l-6 2l-14 19l-11 45z" />
<glyph unicode=";" horiz-adv-x="303" d="M29 -193l2 13l16 53l6 6l4 19l11 28l2 25l18 72l12 47l15 41v14l16 84l4 43l4 29l11 10h4l41 -107l4 -34l16 -31l18 -53l15 -37l2 -9v-10l-2 -6l-66 -45l-26 -29l-17 -10l-4 -12l-88 -105l-8 -6h-4zM49 799v32l8 46l11 36l28 54l23 8l12 8h16l15 8h18l31 -28l12 -13 l8 -26l13 -35l6 -35v-25l4 -6v-16l-6 -43l-17 -45l-16 -23l-16 -18l-13 -6l-12 -4l-6 -6l-10 -9l-15 2l-34 9l-15 16l-10 18l-4 2l-14 19l-11 45z" />
<glyph unicode="&#x3c;" horiz-adv-x="602" d="M57 199v16l33 49l19 29l14 37l82 137l26 65l19 17l37 59l18 -16l21 -33l10 -33l26 -20l84 -131l25 -23l12 -26l23 -45l39 -70v-16h-148l-24 4l-11 6l-98 -10l-71 20l-37 -10l-78 -10zM127 686v10l25 49l26 60l10 16l27 29l29 59l41 66h6l49 -72l12 -33l17 -26l22 -27 l66 -115l14 -16v-12l-14 -4l-33 10l-62 -6l-16 6h-53l-43 10l-29 -10zM172 1024v16l10 11l19 39l24 32l6 17l56 92h6l37 -49l18 -33l10 -27l17 -22l16 -17l21 -43l2 -16l-45 6l-43 4l-27 -4l-25 4h-38z" />
<glyph unicode="=" horiz-adv-x="798" d="M57 625l2 96l7 18l12 9l6 -5h53l15 -14l43 4l43 -8l4 27l8 45l-19 22l-51 35l-24 8l-43 35l-19 31l27 76l10 22l12 12l7 27l36 53l7 10l18 9l27 -62l22 -63l12 -21l33 -88l37 25l10 10l-6 47l-12 76l2 14v4l-21 66l-16 61v6l4 17l33 14l41 4h63l17 -14l6 -12v-31 l-19 -107v-53l-8 -57l-4 -27h2l29 -8l18 -10l13 33l6 30l14 31l2 27l4 20l25 76l8 26l10 5l49 -48l41 -71l9 -8l4 -27l4 -31l-17 -22l-41 -35l-22 -37l-21 -27l-34 -26l8 -31l12 -47l18 8l58 45l35 31l39 39l16 -53l10 -35l2 -23l2 -45l6 -20v-37l-2 -25v-37l-4 -8l-10 -8 l-72 16l-22 19h-64l-4 -4l-6 -35l-8 -37l49 -39l35 -8l39 -27l24 -6l9 -12l-9 -53l-24 -70l-56 -80l-8 -14h-10l-27 53l-18 49v12l-18 37l-37 70l-35 -27l-6 -12l12 -53l8 -31l17 -80h2l10 -30l12 -58l8 -22l-6 -9l-39 -18l-61 -8h-31l-35 8h-2v31l10 65l5 19l4 18l2 43 l8 98v13h-2l-31 4l-14 18h-6l-19 -96l-12 -37l-10 -35l-21 -69l-4 -29l-12 -4l-33 27l-33 41l-18 22l-27 47l-8 23l-2 14l61 66l21 12l14 22l17 23l30 35l-24 84l-53 -35l-27 -27l-10 -8l-11 -10l-16 -8l-20 -23l-15 -12h-6l-14 22l-10 62v43zM319 698l3 -34v-39l12 -41 l4 -9l24 -30l21 -4l20 -11l25 11l8 4l17 20l4 15l22 30l8 72v12l-14 62l-29 37l-16 12l-37 4l-53 -35l-10 -26l-9 -31v-19z" />
<glyph unicode="&#x3e;" horiz-adv-x="602" d="M57 1210v17l21 4l78 -10l37 -11l71 21l98 -10l11 6l24 4h148v-17l-39 -69l-23 -45l-12 -27l-25 -22l-84 -131l-26 -21l-10 -33l-21 -32l-18 -17l-37 60l-19 16l-26 65l-82 138l-14 37l-19 28zM127 729v10l94 6l29 -10l43 10h53l16 7l62 -7l33 11l14 -4v-13l-14 -16 l-66 -115l-22 -26l-17 -27l-12 -33l-49 -71h-6l-41 65l-29 59l-27 29l-10 17l-26 59zM172 385v16l64 -10h38l25 4l27 -4l43 4l45 6l-2 -16l-21 -43l-16 -16l-17 -23l-10 -27l-18 -32l-37 -49h-6l-56 92l-6 16l-24 33l-19 39z" />
<glyph unicode="?" horiz-adv-x="591" d="M16 985v27l7 110l4 25l-4 16l-3 19l3 49v80l4 6l14 8l22 18l52 27l14 -6l29 18h49l43 -16l22 -16l15 -19l16 -12l14 -25l13 -28l10 -35l2 -25l4 -8l4 -35v-69l-8 -66l-6 -35l-4 -12v-23l-10 -43l-19 -57l-35 -74l-2 -16l-12 -23l-31 -49l-22 -37l-66 -86h-4l-10 13l-8 22 l-4 4l-13 21l80 92l10 20l56 101l12 41l18 31v14l7 14l6 33l12 39l2 33v32l4 58l-4 41l-8 35l-19 36l-12 17l-12 8l-37 12l-6 -6l-31 -8l-10 -12l-51 -70l-19 -31l-26 -86l-7 -30l-14 -35l-2 -15l-8 -22l-2 -6l-8 -6l-9 2zM162 121v31l2 24l12 45l2 19l4 8l25 28l14 13 l15 10l14 2l24 6l29 -2l21 -22l14 -25l8 -16l10 -27l6 -22v-35l-2 -6l5 -23l2 -6l-2 -25l-19 -53l-16 -31h-8l-15 -26l-20 -8l-2 -5l-15 -6h-16l-14 11h-11l-22 16v2l-12 16l-13 25l-8 22zM164 512l4 2l68 35l18 6l14 -2l56 20l38 13v41l-2 65l5 39l-7 27l2 39l-4 43l2 12 l7 4l53 66l22 12l41 45l21 27v6l-21 45l-14 26l-14 33l-29 60l-14 36l-13 13l-51 110l-10 29v6l18 -4l56 -18l28 -19l13 -16l12 -2l20 -21l11 -12l32 -61l15 -35l-4 -29l18 -41l4 -35v-55l-2 -35l-8 -65l-14 -41l2 -29l-29 -90l-12 -25l-27 -41l2 -18l-20 -41l-21 -37 l-53 -100l-23 -29v-4l-12 -12l-18 -15v-16l-7 -18l-18 -25l-25 -39l-4 -14h-4l-37 71l-10 31l-24 31l-13 26l-14 19zM205 602v6l43 37l31 10h34l15 -10v-8l-17 -23l-20 -18l-17 -10h-26l-23 4zM250 702v5l12 20l21 18l20 7h27l16 -9v-6l-10 -18l-12 -12l-27 -21l-27 4z M362 1030v23l5 12l18 -8l10 -19l11 -22l8 -25l4 -33v-14l-2 -10l-2 -6l-13 10l-6 8l-12 19l-10 26zM377 1157l4 8l8 -2l27 -22l18 -31l15 -53l4 -27v-18l-4 -6l-11 6l-12 18l-16 23l-19 51z" />
<glyph unicode="@" horiz-adv-x="897" d="M57 674v14l37 49l6 8l13 11l4 10l8 14l16 15l21 34l20 25h4l21 -10l16 -19l21 -34l26 -25l45 -68l7 -2l12 17l16 30l10 5l13 18l35 39l41 49l4 2l41 -55l10 -19v-8l24 -24l47 -60h3l36 66l15 14l18 10l19 33l26 35l13 12v-2l43 -55l20 -31l20 -24l3 -11l14 -14l26 -41 l9 -6v-6l-21 -31l-63 -80l-29 -39l-22 -22l-13 12l-26 31l-27 45l-27 30l-39 50l-18 -29l-25 -39l-16 -12l-12 -19l-33 -45l-20 -28l-25 30l-14 19l-13 32l-12 11l-12 8l-45 72l-11 12h-2l-22 -43l-23 -25l-8 -22v-2l-14 -15l-12 -6l-43 -69l-7 2l-51 80l-8 6l-21 30l-38 50 zM244 524l4 6l14 -2l31 -30l10 -13l6 -18l10 -37v-37l-2 -4l-8 2l-28 29l-17 31l-14 49zM246 844l12 47l21 33l26 18l23 8h6l2 -6l2 -10l-12 -25l-27 -35l-20 -22l-25 -14h-6zM303 580l2 6l10 -2l29 -21l21 -28l18 -37l4 -35l-2 -12l-2 -5l-18 11l-23 20l-18 23l-13 32 l-4 19zM305 793v4l17 41l18 28l20 17l11 6l22 6h6l-6 -25l-4 -12l-12 -22l-10 -17l-19 -16l-14 -8l-10 -4h-15zM492 901l2 4l2 2l28 -10l29 -25l16 -30l11 -29l8 -35l-2 -6l-29 6l-25 19l-20 37l-12 30zM502 467l6 22l12 29l4 6l19 25l18 16l21 10l12 5h6l6 -7l-10 -28 l-21 -39l-20 -23l-20 -16l-15 -6h-14zM547 963l4 6l16 -6l27 -19l20 -26l17 -37l2 -25l-2 -10l-19 2l-20 16l-25 31l-10 37zM557 399v11l12 24l21 33l18 18l17 11h30v-2l-4 -23l-14 -33l-16 -22l-27 -19h-19z" />
<glyph unicode="A" d="M8 0l10 31l15 39l8 24l16 51l9 9l14 63l31 117l14 47l18 76l25 94l8 24l10 37l13 23l12 76l8 43l19 67l8 31l12 31l10 22v39l17 109l10 47l8 28h2l6 -8l4 -26l11 -43l8 -35l16 -80l10 -33l17 -67v-17l-10 -31l-11 -22l-4 -31l-18 -41l-6 -51l-31 -119l-10 -24l-25 -76 l-2 -33l-33 -143l-16 -58l-4 -47l-12 -53l-2 -24l-9 -54l-6 -12l-4 -4l-55 8h-62l-18 -6l-16 4zM276 377l5 6h43l41 -16l43 6h55l29 4l16 -6l-8 -31l-33 -82l-6 -6l-10 -27l-17 -28l-26 -82l-13 -27l-10 -4l-25 59v13l-10 16l-41 115l-24 55zM281 1354l2 12l41 -6h30l4 -6 l13 -56l14 -71l16 -72l2 -25l9 -16l4 -22l14 -56v-24l6 -17l25 -92l22 -112l17 -66l2 -33l16 -37l4 -28l35 -174l12 -41l6 -54l13 -39l4 -22l12 -47l27 -127l33 -125l-72 2l-4 6l-8 55l-15 84l-2 23l-14 59l-25 125l-12 43l-6 51l-4 37l-13 25l-28 131l-21 90l-6 41l-12 23 l-25 112l-10 47l-10 39l-4 25l-15 47v22l-10 37l-10 25l-10 35l-15 63l-16 62zM383 1352v10h82l29 -8l110 14l6 -4l4 -6l2 -31l5 -18l4 -37l18 -92l6 -39l19 -70l30 -160l11 -59l10 -18l31 -185l14 -31l2 -2l41 -196l12 -33l8 -31l7 -65l12 -31l8 -16l8 -37l49 -168l9 -35 v-6l-9 -6l-43 6l-47 2l-8 8l-25 -8l-55 2l-31 -4l-6 10l-6 27l19 53l26 62l2 12l11 20l14 39l26 72l-20 29l-47 47l-21 32l-18 11l-55 63l-4 6l32 176l13 33l4 62l-29 34l-49 45l-64 66l27 125v16l12 35l2 23l15 71l-33 31l-53 43l-25 29l-18 2l-49 33l-11 6l-4 6zM434 1212 l23 2l24 -8l39 -35l6 -10l23 -61l-2 -6h-21l-14 6l-39 28l-22 31l-11 21zM438 1094l21 -4l18 -9l27 -24l16 -29l6 -18l-2 -6l-12 -7l-18 -4l-19 19l-18 24l-17 35zM532 678v37l5 35l10 28l14 29l4 6h4l11 -37l-5 -35l-8 -47l-20 -47l-4 -4l-4 4zM575 582l3 53l4 29l16 41 l14 22l11 12l6 -6l2 -26l-6 -66l-9 -35l-10 -37l-14 -30l-6 -9l-4 15zM618 362l5 11h28l25 -15l29 -24l10 -17l12 -36v-13l-18 -2l-29 10l-27 25l-20 27l-4 8l-6 20zM623 238v10h32l17 -10l18 -19h2l13 -33l6 -18l-2 -8l-23 -6l-18 12l-15 10l-16 21z" />
<glyph unicode="B" horiz-adv-x="899" d="M74 1352l4 10l74 -2v-51v-84l-2 -17l-3 -37l-4 -104l-4 -20l4 -29l2 -176v-140l-4 -16v-18l4 -138v-180l2 -39l5 -26l-7 -49v-23l7 -41v-174l-25 2h-12l-23 -6h-4l-10 6l4 25l2 41l2 24l-2 53l4 95v49l-4 22l2 25l4 22l-4 164l2 74v39l2 26l-6 39l2 80l-2 4v37l6 60v16 l-8 35v108v76l4 64l-6 20l-4 145zM160 1063l8 65l2 13l8 22l25 31l14 16l6 2l2 -2v-18l-8 -47l-4 -23l-8 -18l-35 -41l-4 -4zM168 614v43l2 11h4l21 -25l10 -18l14 -31l6 -33v-20v-11h-8l-16 11l-2 6l-13 14l-10 19zM174 139l6 25l15 29l12 24l22 16l15 11l28 2l4 -6v-7 l-12 -34l-26 -37l-13 -12l-37 -17h-12zM174 254l6 39l13 18l20 23l10 6h15l4 -6l-11 -41l-18 -29l-23 -18l-14 -4zM180 8v31l4 14l17 15l65 65l27 41l18 29l11 12v6l-35 92l-13 15l-43 88l-20 35l-4 10l18 33l49 84l13 10l32 80l-26 61l-4 16l-19 19l-34 67l-15 31l-10 19 l18 41l29 45l33 53l28 72l5 16l-66 109l-29 36l-30 52l-17 14l2 31l2 10l7 4l24 -4l74 -2l76 8l20 -6l16 6l97 2l100 -2l18 -6l17 -8l33 -4l24 -15l41 -35l15 -14l45 -82l8 -26l2 -17v-22l6 -13l8 -55l2 -35l-2 -35l-12 -65v-12l-21 -45l-39 -64l-16 -18h-6l-21 -19l-12 -22 l-49 -33l68 -31l41 -22l14 -15l6 -2l14 -37l7 -10l20 -18l29 -86l14 -58l4 -30l2 -6l-4 -19v-72l-4 -41l-18 -69l-19 -47l-37 -68l-4 -2l-14 -25l-80 -49l-51 -18l-23 -4l-12 -4l-19 6l-26 -12l-8 2l-52 6l-67 14l-2 10l10 29l14 37l45 -8l25 2l31 20l22 4l6 2l11 13l6 16 l31 53l8 19l20 94l4 41l-2 59l-4 39l-10 84l-16 37l-23 47l-16 14l-13 11l-14 20l-27 17l-16 2h-61l-37 -7l-4 15l18 47l8 20l43 2l8 -2l17 4l8 7l27 12l20 18l21 23l14 29l14 18l2 39l6 24l11 70l-2 39l-9 74l-6 30v29l-16 31l-14 24l-29 37l-33 19l-35 24l-55 -10l-47 -6 l-2 -33l-4 -14l-2 -199l2 -49l-6 -18l10 -113l-2 -141l-2 -160l-8 -41l10 -82v-227l6 -80v-43l-2 -29l10 -49l-4 -6l-29 6l-32 -2l-17 6h-8l-16 -8l-103 6zM182 958l11 41l8 45l12 25l12 18l23 27l16 12h10l5 -10l-13 -47l-6 -20l-8 -27l-10 -21l-17 -22l-24 -21l-13 -6z M199 719v59l6 6l47 -59l14 -47l2 -12v-50h-8l-27 21l-14 22l-12 25l-4 16z" />
<glyph unicode="C" horiz-adv-x="833" d="M41 709v34l6 48l14 112l2 43l15 55l10 31l23 66l2 10l22 25l10 28l5 13l8 16l24 31l99 98l6 -8l6 -41v-35l-33 -18l-47 -62l-39 -55l-6 -35l-14 -23l-9 -22l-26 -107l-4 -49l-9 -35v-75l-4 -95v-49l11 -63l-4 -29l4 -24l-2 -23l10 -20l24 -101l21 -53l43 -80l10 -24 l35 -46l25 -24l2 -21v-75l-33 28l-68 76l-33 43l-10 51l-16 21l-25 71l-20 70l-21 107l-4 24l-2 37l2 27l-8 43zM125 678v4l4 31l10 41l25 32l14 15l12 4h7v-6l-2 -19l-7 -22l-14 -43l-22 -39l-13 -17l-8 -6l-4 4zM147 514l3 33l6 45l14 47l14 18l15 17l24 18l8 -2l-6 -45 l-12 -47l-16 -41l-25 -35l-16 -18h-6zM186 907v4l52 76l41 47l10 4l8 17l20 24l5 35l2 49v19l-7 32l2 95l-2 2l2 18l5 6l65 33l25 -6l41 22l16 5h35l10 4h45l12 -7l43 -6l33 -8l23 -18l24 -2l21 -6l47 -23l6 -6l2 -27l-4 -147l4 -51l-6 -37l8 -13l-2 -10l-2 -67v-39l-4 -13 l4 -10l-4 -12l-6 -6l-12 6l-31 96l-37 94l-6 41l-15 19l-28 59l-31 51l-8 23l-25 22l-4 7l-20 6l-8 8h-23l-37 -12l-35 -23l-26 -41l-11 -27l-10 -14l-2 -16l-20 -86l-13 -80l-6 -29l-8 -18v-47l-8 -54v-59l-4 -14l2 -121l-4 -47l-2 -17l2 -34l10 -80l6 -31v-45l6 -60 l15 -83l12 -41v-29l10 -25l25 -49l37 -61l2 -6l47 -23l6 -2l39 10l24 13l25 22l37 47l16 12l8 11l7 22l24 47l33 97l39 129l6 10l8 -6l6 -43l-4 -47v-21l-2 -72v-219l-2 -14l-43 -27l-29 -18l-39 -10h-12l-33 -4l-28 -17l-39 -4l-41 -6h-35l-31 8h-24l-23 12l-22 9l-58 24 l-4 6v70l8 162l-47 78l-22 47l-17 8l-41 70v8l11 20l35 90l30 76l-4 23l-24 90v10l-15 37l-6 2l-10 29zM193 1022v8l18 53l20 39l29 23l19 6l2 2l18 -6l-6 -21l-8 -22l-25 -39l-33 -31l-24 -16zM205 332l4 10l18 -12l21 -29l14 -31l10 -22l4 -25v-33l-4 -4l-14 9l-10 10 l-21 35l-14 36l-4 29z" />
<glyph unicode="D" horiz-adv-x="919" d="M74 1352l6 12l67 -4l5 -12l-7 -230v-125l2 -28l-4 -17l2 -37l-2 -53l2 -149l-2 -23l2 -24l-2 -13l2 -139l2 -8l-4 -23l2 -112l5 -121v-92l-5 -23l5 -45l4 -86l-2 -8h-13l-22 2l-35 -4l-4 6l10 182v107l4 41l-2 30l-4 29l2 209v145l4 33l-6 41l2 78l-4 174l2 68l-4 16 l-6 121zM166 236l4 24l14 45l9 12l24 23l21 4l6 -4v-2l-2 -27l-23 -41l-12 -14l-25 -16l-10 -7zM166 657v21l4 2l8 -2l23 -31l12 -29l8 -47l-2 -36l-6 -5l-27 31l-10 25l-6 28zM168 1087l2 48l6 24l12 29l15 16l18 13h4l4 -7l-6 -36l-6 -29l-14 -35l-29 -39zM182 127l13 35 l2 8l8 23l10 12l14 12l21 16h16l2 -8l-10 -35l-8 -20l-12 -18l-23 -23l-14 -8h-15zM182 1356l2 8l76 -2l47 6h23l10 -8l111 6l38 -4h39l52 -6l49 -19l24 -20l17 -25l32 -24l31 -37l35 -60l18 -28l9 -2l6 -19l30 -104l31 -121l2 -23v-34l13 -68l4 -117l-7 -125l-6 -41 l-12 -49l-2 -4v-41l-14 -53l-17 -47l-28 -78l-19 -29l-24 -41l-13 -4l-24 -47l-29 -28l-6 -11l-55 -43l-21 -10l-47 -20l-14 6l-27 -6l-12 -2l-10 2l-15 -4l-24 4l-17 6l-8 2l-8 6v12l16 45l2 6l11 2l8 -2h28l25 11l33 28l24 41l19 52l22 94l21 137l6 25v26l-2 78l4 53 l-2 31l2 22v25l4 29l-2 67l-4 60l-2 94l-4 22v41l-2 7l-8 2l-9 59l-22 72l-8 16l-9 35l-28 43l-21 18l-16 13l-23 8h-14l-35 24l-12 -6h-39v-4l-6 -90v-84l-2 -92l-2 -47l-4 -31l6 -166l-4 -112v-76l-2 -31l6 -76v-90l-4 -57l8 -266v-74l-2 -4h-49l-2 -4l-19 4l-33 12 l-51 -2l-22 -2l-10 2l-5 10l5 31l67 92l14 8l23 35l25 39l-11 25l-12 22l-45 109l-29 49l-10 35l45 84l16 32l17 23l16 31l10 36v11l-16 28l-16 31l-41 80l-27 47l-8 16v9l18 34l23 46l27 28l4 31l26 53l10 23l3 10l-5 2l-14 37l-18 24l-6 17l-39 61l-56 76zM186 956l2 25 l17 66l18 32l13 13l24 18l8 4h4l2 -4l-12 -43l-20 -57l-17 -25l-28 -29l-9 -4zM193 784l2 9l22 -15l29 -41l8 -14l14 -47l2 -17l2 -30l-6 -4l-4 4l-24 18l-21 33l-14 39l-8 33z" />
<glyph unicode="E" horiz-adv-x="800" d="M74 1360l2 6h26l19 -2h31l4 -6v-12l-4 -17l2 -53l-2 -100l-9 -160l7 -21v-71l2 -15l-2 -18l-5 -47v-53v-78v-31l5 -31l-3 -14l3 -234v-32v-45l2 -21v-37l-2 -37l6 -235l-2 -2l-62 -2l-10 4v2l4 104v78l4 103v26l-2 84l4 43l-2 131l6 60l-6 73l-2 80l-2 4l4 50v53l-6 63 l4 47l2 13l-8 71l2 66l-2 35v37l4 26l-4 21v12l-4 57zM164 1098l4 35l4 28l10 23l15 24l10 17l12 2l6 -13l-4 -34l-4 -25l-10 -22l-19 -25l-14 -12h-6zM168 645l2 33l8 -4l17 -15l18 -32l16 -58l7 -26v-4l-11 -7l-12 3l-14 20l-17 25l-10 24zM172 227l2 21l10 31l15 24 l28 29l9 4h12l2 -12l-6 -29l-11 -25l-14 -20l-18 -19l-15 -6h-12zM182 129l11 31l22 37l18 22l35 21l6 2l2 -2v-13l-4 -20l-4 -19l-22 -36l-21 -23l-18 -6l-14 -4l-7 2zM184 1343l2 15l9 4l67 -2l96 2l11 -6l41 6h59l37 4l18 -6h27l61 4l4 -2l19 2l78 2l8 -6v-17v-43l2 -124 l2 -11l-6 -12l4 -49l2 -19v-75l2 -78l-8 -14h-6l-8 14l-7 31l-18 47l-45 110l-8 13l-4 22l-41 53l-39 37l-37 21l-29 6l-18 10l-45 2l-31 -4l-2 -94l-2 -148l-6 -28l4 -25l2 -166l-2 -100v-88l-8 -72l6 -31l4 -49l-2 -123l2 -63l-4 -68l4 -16l8 -103l4 -16l17 -2h51l20 -12 l35 22l43 23l27 24l65 99l23 41l14 20l4 25l35 84l10 16l6 -2l2 -10v-23l-2 -71l-6 -84v-37l-6 -23v-100v-76l-12 -8l-17 4l-45 4l-73 -2l-27 6l-25 -6h-186l-33 -6l-84 2l-28 -8l-6 10l2 25v12l12 16l35 45l18 25l12 16l19 23l24 43l7 16l-43 103l-13 34l-12 13l-39 80v4 l8 8l4 14l27 49l22 52l43 69l7 6v6l-70 144l-37 71l-2 9l2 6l19 33l24 53l10 18l13 19l14 45l23 49l-62 119l-12 10l-43 63l-17 17zM193 965l2 26l6 45l10 25l16 29l15 12l30 22l9 -8l-7 -29l-14 -40l-16 -37l-21 -29l-22 -20zM197 748v28l2 4l18 -4l14 -14l21 -39l14 -39 l8 -45v-12l-2 -2l-6 2l-26 22l-21 25l-8 14l-10 35zM397 713l4 10l29 31l33 28l24 17l76 90l12 12h11l2 -10v-41l-6 -49l4 -64l-4 -61l4 -160l-6 -6l-52 61l-14 9l-18 22l-7 19l-14 6l-61 59l-4 2z" />
<glyph unicode="F" horiz-adv-x="749" d="M74 6v33l6 113l-2 26l4 23l-2 88v170l4 18v21l-4 57v129l4 53l4 8l-10 35l6 113v78l-2 47l8 22l-6 35v66l-2 41v100l-4 53v27l16 4h53l9 -10l-6 -27l-3 -53l-4 -39l-2 -8l2 -39l7 -31l-5 -47l-2 -70l2 -32l-2 -15l-2 -90v-59l-2 -2l2 -27l4 -31l-2 -30l-4 -195l4 -76v-49 l-2 -84v-73l4 -27l-2 -23l4 -225l-4 -4h-63zM164 657l2 17l4 4l12 -16l19 -31l14 -29l4 -41l4 -37l-4 -4l-18 12l-21 35l-10 35l-4 25zM168 246l2 20l6 25l6 14l13 14l20 13l25 4l4 -12l-25 -52l-16 -14l-23 -16h-10zM168 1096v39l8 36l19 29l22 12h8l4 -4l-4 -26h-2l-6 -33 l-6 -14l-12 -17l-17 -18l-12 -6zM176 35l6 10l33 29l47 65l25 25l22 41l6 8l-24 70l-15 24l-10 23l-18 30l-39 89l-4 10l31 49l38 65l13 7l22 45l17 30l-31 66l-27 49l-6 27l-20 24l-17 37l-12 33l6 18l29 47l20 48l23 32l24 60l4 20l-79 133l-50 64l-8 8l-2 16v25l64 -2 l43 -4l28 2l88 4l11 -2h69l19 -2l18 6l41 -2h82l12 -8l19 10h35l4 -2l6 -21v-65l-2 -14v-39l-4 -41l4 -133l-2 -58l2 -37l-4 -18l-8 -12h-7l-2 2l-8 28l-20 66l-31 72l-12 22l-9 31l-16 10l-68 90l-47 37l-28 4l-23 12l-51 -16l-4 -41v-135l-2 -135l-8 -29l4 -33v-118l2 -11 v-137l-6 -104l6 -74l-2 -158v-61l-6 -17l8 -53l4 -190v-4l-19 4l-53 2l-16 10h-103l-8 12zM176 139l17 54l10 20l22 23l31 10h12l8 -4v-2l-14 -41l-22 -39l-17 -19l-28 -14h-15zM188 993l7 31l20 53l8 17l17 24l20 17l12 2h9l-2 -13l-7 -34l-12 -33l-12 -27l-33 -31l-12 -6 l-13 -4zM190 762l5 31v4h4l20 -21l14 -24l11 -19l10 -41l8 -49v-22l-4 -3l-22 15l-23 35l-14 47zM401 664l2 16l15 18l53 54h4l92 100h2l6 -8v-68l-6 -39l2 -92l2 -100v-62l-6 -10l-12 10l-23 29l-20 20l-41 54l-14 24l-17 11z" />
<glyph unicode="G" horiz-adv-x="864" d="M41 659v50l6 84v53l16 72l9 75l6 25l47 129l14 16l21 41l28 39l19 23l18 12l11 16l45 41h6l2 -4l-4 -88l-35 -31l-43 -67l-4 -8l-15 -9l-8 -12l2 -12l-18 -39l-25 -43l-28 -143l-9 -64l-2 -29l-4 -28v-49l4 -2l-4 -68v-49l8 -43l5 -68l4 -18l12 -41l14 -53l37 -109 l19 -31l18 -26l6 -19l10 -14l7 -10l20 -19l29 -22v-78l-6 -10l-15 6h-4l-12 20l-55 60l-17 14l-20 57l-4 7l-13 6l-8 16l-29 61l-6 23v2l-20 66l-19 88l-6 34l6 23l-12 78zM125 653l2 43l12 47l13 29l12 19v2l18 12l13 4l2 -4l-4 -47l-15 -43l-6 -17l-12 -20l-17 -19l-4 -6 l-10 -10zM154 580l10 47l16 26l25 27l10 4h8l-4 -41l-12 -53l-8 -19l-17 -24l-22 -17l-4 2zM182 911l29 39l74 68l28 47l2 16v70l4 37l-4 22l2 109l5 24l94 41h18l58 13h34l15 -8l34 2l50 -13h10l18 -6h13l24 -24h25l37 -13l22 -22l4 -19l-2 -65l-2 -84l-8 -62l6 -20 l-4 -191l-8 -8l-6 8l-39 127l-47 136l-27 41l-10 24l-13 35l-20 25l-29 30l-39 23h-12l-10 6l-14 -12h-17l-12 -4l-21 -13l-18 -14l-10 -16l-25 -54l-24 -94l-7 -12l2 -17v-36l-6 -9l-4 -34l-10 -117l-12 -180l-2 -27l-4 -84l10 -66v-34l2 -56l12 -141l23 -84l6 -29l18 -57 l25 -41l14 -18h4l19 -19l18 -12l14 -6l9 2l20 12l33 14l29 37l6 19l16 65l4 54v40l-2 35l4 35l-2 41l-6 47l-2 15l-25 57l-10 12l-53 94l4 9l10 4h37l23 -7l14 3l14 -7h15l20 -8l19 6h53l14 9h17l51 -3l4 -4l2 -18l-10 -166l-4 -43l4 -51l4 -35v-162l4 -112l-2 -13l-8 -6 l-23 21l-67 6l-31 -12l-12 -3l-11 3l-20 -13l-27 -22l-10 -6l-78 -21l-47 -4l-10 4l-13 -6l-16 2l-27 12l-57 19l-22 14l-11 14l-2 47l4 48l-2 28l2 35l2 72l-18 28l-14 45l-23 21l-33 41l-28 49l-15 29l7 12l32 84l31 47l18 57l-12 37l-12 35l-2 21l-17 26l-26 60z M193 1022v2l14 53l16 29l15 18l36 21h19v-8l-8 -31l-17 -29l-22 -26l-45 -33zM199 340l2 8l20 -14l15 -10l20 -37l4 -17l12 -41l2 -24l-2 -17l-34 33l-7 12l-12 21l-12 29l-4 34z" />
<glyph unicode="H" horiz-adv-x="993" d="M74 1346v24l71 -4l5 -6l-3 -12v-129l-4 -78l-2 -21l-2 -18l6 -62l5 -77l-9 -283l-2 -6l6 -47v-49l2 -54v-51l-2 -59v-97l2 -92l-4 -71l9 -25l6 -125l-2 -4l-39 -4l-41 -2l6 49l-4 25l4 73l2 172l4 15l-2 16l-2 25l-2 94l2 53l6 43l-6 35v70l-2 22l2 12v80l4 23v28l-6 37 l2 84v152l-4 65l2 60l-2 24l2 23l-4 24v25zM168 649l2 15l4 4l16 -9l25 -51l10 -26l4 -27v-8v-4h-18l-18 18l-7 12l-10 23zM168 1077v47l4 25l10 33l8 18l13 17l18 6l2 -19l-2 -39l-8 -30l-29 -54l-10 -10zM172 248l8 31l6 22l17 23l14 10l14 2l15 -2l2 -6v-6l-10 -25 l-19 -33l-24 -18l-19 -6zM180 1319v41l2 10h21l59 -2l12 -6l19 6l65 4l4 2h21v-12v-27v-22l-8 -99l-2 -6v-20l4 -53l-4 -35l2 -238l-4 -28l-4 -17l4 -65l2 -68l2 -145v-66l-4 -43l2 -29l4 -18l-4 -70l2 -59l8 -96v-92l4 -62v-12h-4l-21 2h-49l-20 8l-31 -2l-24 4h-39l-6 6 l-5 23l5 12l57 82l16 16l8 2l31 58l17 22v6l-43 95l-7 14h-4l-8 16l-35 68l-8 18l-2 11l12 18l45 98l54 88l-23 48l-31 71l-2 6l-20 19l-27 53l-16 31l8 14l8 10l21 35l24 60l19 26l26 62l6 16l-16 31l-53 78l-21 40l-28 41zM188 133l5 29l2 6l16 43l22 25l23 14h18l7 -10 l-7 -21l-16 -35l-22 -34l-21 -17l-20 -6h-5zM193 979l2 25l6 34l12 25l14 29l19 16l20 12h2l-2 -45l-4 -20l-10 -27l-19 -29l-32 -41l-4 7zM197 760l2 12l18 -10l16 -14l25 -48l8 -24l6 -33v-14l-22 6l-21 18l-10 15l-10 24l-10 29zM387 737l4 8h33l41 -14h14l13 10l22 -6 l84 10l6 -8l2 -18l-63 -168l-25 -78l-8 -16l-4 -19l-12 2l-13 35l-22 62l-17 57l-8 8l-45 123zM606 1300v62l4 8l70 -4l2 -2l-4 -84l4 -164l-4 -201l-4 -26l6 -23l-4 -125l4 -266l-4 -41l8 -47l-4 -10l4 -84l6 -125v-107l2 -30v-25l-4 -4l-74 -4l4 43l5 166v59l2 41v29 l-2 129l2 149l4 29l-4 16l-7 56v131v145l5 74l-7 16l-2 31v70l-2 94zM700 1069l7 53l4 27l10 18l20 29l9 6h4l4 -4l-4 -33l-6 -39l-13 -28l-18 -21l-12 -14zM702 659l5 17l20 -23l12 -20l13 -35l6 -37l-4 -20l-2 -2l-19 8l-10 18l-12 29l-6 31zM709 240v6l8 35l12 22l16 19 l15 10h16l8 -8v-7l-10 -22l-16 -29l-17 -12l-24 -16l-4 -5zM713 1368h69l23 -8l14 2l33 4l61 -2l2 -6l-4 -117l-2 -96v-109l-4 -16l2 -51v-56l4 -106l-6 -70l4 -24v-54l2 -149l-6 -39l4 -53l-2 -62v-77l4 -58l4 -16l-8 -27v-33l13 -155l-2 -4l-25 10l-70 4l-16 6l-47 -2 l-27 -2l-10 4l-2 21l2 16l29 33l14 2l10 16l12 25l23 33l41 71l-18 43l-21 39l-4 14l-21 35l-38 97l14 38l14 33l23 51l41 64l6 16l-4 15l-25 71l-12 13l-39 77l-23 37l-2 13l19 39l39 75l8 2l41 92v11l-35 57l-18 27l-17 37l-4 12l-49 59l-12 13zM721 131l2 12l18 58l19 28 l22 15l27 10l4 -6l-12 -49l-10 -21l-19 -24l-18 -17l-21 -6h-12zM723 961v30l12 41l15 35l14 18l18 23l17 6l2 -2l-2 -25l-4 -22l-13 -37l-16 -35l-10 -16l-29 -33zM729 764v12l4 6h6l15 -18l14 -12l10 -17l10 -26l7 -13l4 -20l2 -37l-2 -12l-4 -4l-19 12l-22 29l-19 43z " />
<glyph unicode="I" horiz-adv-x="462" d="M74 1362l4 2l67 -2l7 -6l-9 -254l-2 -29l-4 -24l6 -138v-163l-2 -3l-2 -28l4 -6l4 -17l-4 -71v-172l4 -76l-4 -31l2 -18l7 -17v-143l-5 -19l5 -28l6 -119l-2 -10l-78 4l-2 2l4 53l4 86v53l4 60v121l-4 22l-2 94l6 43l6 4l-4 43l-6 52l4 47l-6 102l6 64v26l-4 15v202v72 l-8 31l4 65l-4 68v33zM164 1100l2 24l14 47l10 19l11 8l22 10l-4 -28l-8 -37l-6 -17l-17 -26l-6 -10l-12 -11l-4 6zM168 645l6 6l21 -16l14 -31l4 -10l14 -62v-4l-4 -6l-28 19l-13 22l-12 35zM172 225l2 23l6 31l15 30l14 10l24 7l5 4l4 -8l-17 -46l-20 -38l-12 -13l-13 -2 l-4 -4zM176 1321v35l4 8h56l20 -6l31 6h92v-14l-2 -82l-6 -23v-172l2 -86l4 -117l-8 -28l6 -135l4 -127v-72l-4 -29l2 -41l-6 -22l8 -84l4 -31l-4 -57l4 -68l-6 -26v-56l12 -100l-4 -6l-98 8l-8 8l-56 -4l-22 -6l-8 6l2 47l57 78l14 6l49 88l-28 70l-13 14l-18 57l-4 9 l-8 10l-17 37l-14 39l43 77l47 82l14 33l-24 53l-21 45l-6 7l-12 12l-43 102l16 41l39 88l17 19l8 12l24 64l-32 65l-31 47l-14 37l-19 10zM184 125l9 29l12 36l14 23l17 18l12 7h18l6 -7l-10 -30l-22 -45l-31 -33l-16 -6zM188 965v18l11 47l12 41l12 19l13 16l22 14l4 6 l4 -8l-4 -39l-4 -32l-14 -39l-19 -25l-30 -22zM195 748v12l4 4l6 4l14 -10l8 -13l21 -28l18 -53l2 -35l-2 -13l-10 -2l-12 13l-21 26l-10 27l-12 37z" />
<glyph unicode="J" horiz-adv-x="462" d="M-90 -139l49 2l23 12h14l10 16l53 72l4 19l15 45l16 104v55l2 13l8 10v29l-4 30v250l-2 72l2 47l2 22l-2 56v53l-2 176v78l8 22l-10 62l-6 98v109l-2 16l-4 35l6 2l62 -2l6 -2l2 -23l-4 -77l-4 -158l-2 -12l2 -48l4 -83l4 -144l-10 -22l2 -25l-2 -41l6 -31v-22v-51 l2 -109v-41l-6 -29l6 -40v-91l-2 -18v-94l-13 -144l-12 -67l-18 -66l-13 -30l-16 -13l-14 -35l-37 -47l-68 -55h-6l-18 41l-13 35l-18 33v6zM100 -186l37 92l6 6l9 25l6 30l6 15l22 24l62 82l12 4l12 29l21 37l18 28l17 31l-19 45l-12 14l-6 35l-21 35l-18 27l-23 63l-2 15 l37 88l51 79l15 29l-19 55l-32 48l-15 30l-45 88l43 101l10 16l21 19l12 34l25 49l-27 60l-18 18l-13 23l-2 6l-10 16l-10 19l-37 57l-16 12l-13 23l2 41l4 6l11 4l22 -4l64 -4l14 -4l23 4h55l10 -8l-2 -35l-4 -35l-4 -131v-76l2 -24l-4 -103v-39l8 -88l-4 -53l2 -6l-6 -219 l-6 -31l6 -49l2 -53l2 -11l-2 -96l4 -26l-8 -134l-10 -32l-5 -31l-6 -25l-30 -73l-15 -19l-18 -28l-6 -11l-25 -30l-16 -17l-25 -16l-14 -2l-23 -27h-18l-6 -2l-39 -22l-15 -5zM176 633l4 35l10 -4l11 -17l18 -33l10 -24l2 -27l2 -37l-8 -10l-18 12l-14 33l-11 37zM178 1106 l2 31l13 30l14 23l20 16l4 2l5 -6l-5 -26l-10 -39l-10 -25l-16 -22l-11 -13l-4 6zM180 236l2 20l13 35l10 18l31 17h8l8 -7l-8 -30l-21 -39l-18 -19l-19 -12v2zM199 125v12l8 27l14 41l2 2l13 16l14 13h24l2 -7l-8 -28l-10 -25l-18 -35l-19 -16l-6 -2h-12zM205 952v41l8 56 l14 26l23 31l24 12l5 -2l-7 -39l-16 -61l-14 -29l-25 -33l-10 -2h-2zM209 733v29h8l21 -23l16 -24l12 -29l10 -43v-29h-12l-16 13l-15 24l-10 23z" />
<glyph unicode="K" horiz-adv-x="954" d="M74 1364l67 -2l11 2l4 -12l-13 -138v-90v-65l-6 -29l6 -112l2 -74l-2 -109v-12l2 -51l-2 -78v-53l7 -56v-57l-7 -31l4 -30l3 -9l-3 -71l3 -68l2 -86v-8l2 -53v-45l4 -27l-6 -10l-43 2l-25 -2l-4 2l2 53l2 96l10 29v29l-4 67l-2 221l2 15l-8 106l6 238l-10 82l4 24v54 l-2 73l-2 25l4 37l2 35l-4 30l4 35l-8 39zM164 1102l4 33l8 28l17 29l26 16h4l-4 -37l-8 -36l-8 -25l-17 -25l-10 -12l-6 -4l-4 6zM166 643l4 12h6l19 -22l14 -21l8 -26l4 -31v-25l-2 -14l-10 4l-4 6l-15 23l-12 33l-8 30zM170 244l4 30l6 23l10 20l15 13l6 6l14 2h17v-12 l-13 -29l-20 -39l-31 -22zM182 1319v39l4 12l41 -2h17l8 -4l24 6h39l64 -2l4 -4v-47l-4 -17l-2 -124l-6 -78l-4 -6l8 -31l-2 -66v-110l-6 -19l4 -41v-94v-90v-41l2 -102l-4 -6l4 -46l6 -112v-17l-6 -36v-41l6 -31l-2 -72l6 -51v-43l2 -35l-2 -16l-86 4l-25 -4l-14 4l-27 -8 l-24 4l-12 -6l-9 4l2 37l5 12l34 55l31 37l2 6l12 8l13 7l18 43l14 24l-26 57l-23 58l-12 16l-43 99l16 26l43 94l43 62l11 18l-29 60l-18 39l-11 28l-8 6l-37 64l-12 18l2 19l27 53l30 53l6 21l48 86l-2 10l-35 51l-33 41l-33 64l-18 22zM184 135l6 33l7 20l22 37l23 13v4 l24 -4v-11l-18 -47l-6 -14l-17 -25l-24 -14l-11 -4zM193 778l4 2l32 -32l13 -25l18 -51l2 -27v-16h-14l-19 10l-12 18l-16 41l-6 27zM193 958l2 39l6 43l10 29l25 33l26 12l4 -4l-2 -18l-12 -56l-8 -28l-25 -37l-22 -15zM391 635l2 12l51 62l19 24l24 15l7 20l34 57l23 49 l18 33l25 54l14 14l6 16v25l23 65l10 68l2 41l6 31v53l-4 20l-2 43v23l4 8l92 -6l11 -6l57 12l74 4l39 -2l6 -16l-29 -51l-47 -66l-22 -12l-15 -25l-51 -88l-37 -55l-35 -66l-24 -39v-6l-10 -16l-27 -43l-8 -21l-2 -8l-19 -20l-20 -43l12 -41l29 -68l4 -8l4 -10l2 -25 l20 -29l11 -22l14 -33l31 -63l45 -113l30 -57l48 -93l10 -40l18 -39l19 -25l12 -20l12 -31l23 -39l12 -23l6 -14l-2 -14l-10 -4l-117 8l-43 -2l-12 10l-49 -10h-17l-6 -4l-12 8l-49 127v6l-10 37l-27 61l-64 148l-14 47l-4 10h-6l-31 64l-37 73l-6 11l-26 30z" />
<glyph unicode="L" horiz-adv-x="757" d="M74 1356l4 10h16l56 -8l2 -2l-2 -41v-25l-7 -82v-34l2 -13l-2 -18v-137l-10 -48v-22l8 -47v-295l-8 -59l10 -74l2 -254l-8 -66l10 -41l5 -24v-53l-2 -7v-12l-5 -4h-39l-24 -6l-6 10l2 19l6 233l-2 12l6 39l-2 15v151l2 88l-2 68l-4 22l6 60l-2 43l-2 69v172l4 72l-6 23 v118l-4 82v25zM162 238v16l6 25l6 10l14 30l15 13l16 6h17l4 -2l-7 -27l-14 -26l-16 -23l-29 -22h-12zM164 633v20l2 15l4 6l16 -17l27 -43l6 -22l6 -41l-2 -12l-28 18l-19 25l-8 26zM164 1112l2 35l2 2l6 25l16 22l25 18l4 5l4 -7v-32l-8 -33l-6 -17l-10 -16l-29 -24l-2 6z M180 147l13 43l6 13l10 16l24 17l29 8l6 -2l2 -6l-12 -33l-29 -43l-20 -13l-19 -6l-6 -4zM180 1315v41l4 2l56 -6l8 -9l18 9h21l24 6l6 4l7 -4l49 8l6 -4l4 -10l-6 -172l-10 -80l6 -53v-23l-2 -207l-2 -37l2 -170l-9 -24l5 -47v-164l-5 -2l3 -47l4 -31v-139l4 -56l6 -18 l33 -4l39 4l10 -6h4l70 37l26 18l21 25l4 6h12v8l12 33l13 16l14 25l6 28l29 43l30 74l19 37l2 2l6 -2l4 -10v-78l-2 -35l-8 -24v-84l-2 -107v-45l-4 -37l-2 -10l-19 -2l-67 2l-17 -2l-12 6h-135l-8 6h-13l-28 -6h-19l-32 6l-35 -6h-107l-24 -4h-11l-4 8l2 45l7 4l2 6l28 31 l13 21l12 6l20 39l31 45l12 22l4 8l-12 25l-27 66l-16 16l-2 4l-8 31l-37 84l47 84l10 10l15 35l32 67l2 4l-26 60l-33 53l-4 4l-45 115l39 90l12 10l17 41l32 64l-61 127l-12 10l-43 67zM195 739v35l4 6h2l28 -32l15 -25l14 -43l4 -41l-8 -10l-6 4l-25 20l-16 39zM195 977 v41l12 47l12 31l14 12l25 12h8l4 -12l-8 -53l-12 -23l-39 -53l-12 -6z" />
<glyph unicode="M" horiz-adv-x="1126" d="M74 1348v16h4l59 -6l15 4l10 -23l45 -159l-2 -21l16 -45l25 -78l37 -114l10 -43l4 -35l12 -25l19 -71l34 -103l7 -41l16 -31l23 -69l20 -74l21 -72l14 -63l12 -49v-13l31 -77l10 -39l8 -21l-8 -22l-8 -29l-2 -10l-10 -27l-11 -16h-8l-20 71l-31 127l-14 52l-2 34l-25 64 l-12 45l-37 131l-8 33l-2 22l-25 66l-10 29l-17 59l-12 33l-24 88v18l-23 47l-39 121l-18 53l-37 123l-10 49l-23 54zM78 -2l4 25l8 86v47v47l6 18l-2 203l2 12v154l2 24l-4 68l2 74l-2 112v25l-4 115v125l4 24l6 12l11 -24l20 -60l21 -65v-31l16 -35l51 -155l6 -23l-4 -24 l-2 -72v-16v-74l-2 -33l-2 -41l6 -45l4 -14l-2 -25l2 -254l-4 -14l8 -51l9 -101l4 -14l-4 -12l-15 2l-16 6h-55l-31 -4l-39 -4zM184 1362l47 -2l56 4l12 -6l31 6h45l43 2l4 -4l12 -62l19 -71v-21l16 -59l39 -150l6 -65l12 -8l76 -279l10 -24l19 -68l6 -27l-4 -8l-19 -53 l-8 -29l-6 -47l-10 -4l-10 16l-35 15l-8 16l-23 31l-18 18l-15 9v26l4 21l7 53l8 10l-2 47l10 113l-25 31l-49 36l-33 37l-28 25l-13 10l15 113l10 22l4 6l-2 23l8 96l4 25l-18 12l-88 55l-19 17l-16 -4l-27 18l-24 2l-8 23l-13 47zM242 1196l4 6l33 -4l32 -12l31 -41 l10 -19l-4 -16l-4 -2l-25 -4l-22 8l-33 37l-16 33zM262 1075v2l6 6l21 -2l12 -6l29 -24l8 -17l10 -20l-2 -10l-6 -3l-21 -4l-12 7l-16 14l-19 26zM373 692v37v19l10 45l14 20l9 4l4 -6l4 -18v-64l-8 -41l-11 -37l-4 -6l-8 -4l-6 23zM422 641l4 35l8 22l35 52l4 -5l4 -8v-32 l-6 -54l-8 -41l-12 -41l-11 -14l-4 -6h-4l-6 49zM467 426v4l4 2l29 -4l14 -12l23 -29l16 -31l8 -22v-6l-6 -4h-27l-14 6l-12 10l-21 37l-12 37zM475 301l12 6h13l20 -18l23 -33l6 -12l6 -23l-4 -10h-12l-9 -2l-18 8l-16 29l-15 24zM578 842l26 76l27 75l10 13l6 22l6 53 l19 66l49 221l92 -8l-6 -191l-4 -2v-12l4 -65l6 -254l-6 -37l6 -45v-29v-121l2 -45l2 -125l-6 -49l4 -35v-88v-41l-2 -41l2 -33l2 -112l2 -33l-2 -6l-29 4l-28 -2l-6 -2l-4 2l2 10v41l2 90v107l6 18l-6 41l4 25l-6 176v76l2 24l-2 49l2 136l6 40l-8 31l-4 76l-19 -57 l-20 -56l-23 -57l4 -23l-22 -83l-13 -54l-4 2l-12 25l-14 51l-13 55l-18 41zM831 244l3 39l8 20l10 27l25 20l22 4l8 -2l2 -10l-22 -59l-10 -17l-21 -18l-22 -12zM831 647v27h7l26 -25l13 -20l10 -21l6 -30l4 -33v-8l-25 6l-14 8l-8 22l-12 37l-4 19zM831 1096v16l5 33l8 26 l18 35l21 19l10 -2v-15l-6 -47l-6 -14l-25 -41l-20 -16zM840 1325l2 18l4 23l59 -4l25 2l6 -2l33 2l67 2l6 -6l2 -10l-2 -88v-52l-4 -20l4 -289l-8 -35l4 -43v-30l-2 -45l4 -121l7 -58l-9 -61l-2 -33l2 -35l9 -55v-143l-5 -35l7 -70l6 -125l-6 -12l-58 2l-10 10l-43 -10 l-82 -2l-4 12v29l2 6l25 29l39 57l12 6l51 78l-14 70l-23 30l-14 25l-4 25l-13 20l-30 68l16 28l33 82l12 17l17 24l26 53v7l-6 16l-39 84l-4 18l-12 13l-8 14l-19 41l-20 35l34 71l11 13l6 4l18 41l25 51l14 35l-24 33l-56 90l-10 24l-35 54zM846 141l4 13l18 51l11 14 l26 27l21 6l12 -4l2 -6l-2 -6l-18 -48l-25 -34l-27 -19l-16 -4zM852 967v28l14 54l8 18l21 35l29 22l8 -2l2 -12l-4 -12l-10 -39l-11 -25l-14 -28l-12 -19l-21 -22l-8 -4zM862 768v20l15 -8l30 -28l21 -39l14 -41l2 -35l-12 -4l-33 29l-14 18l-8 22l-13 39z" />
<glyph unicode="N" horiz-adv-x="892" d="M74 6l8 96v35l6 37l-4 25v28v41l4 43v51l4 23l-4 53v86l6 94l-6 41v148l6 123l-6 26v201l2 33l-2 24l-4 121l-4 23l2 10h16l33 -88l53 -125l6 -27l5 -20l41 -94l67 -183l21 -65l30 -49l41 -101l35 -92l12 -37l17 -24l59 -166l14 -12l15 -64l24 -47l4 -2l23 -51l27 -55 l37 -66l-5 -6l-43 2l-8 6l-20 -6h-17l-12 12l-22 72l-25 59l-6 33l-47 109l-72 178l-8 33l-12 18l-19 61l-6 23l-18 24l-11 29l-24 43l-39 107l-6 20l-29 47l-2 -82v-135l-6 -22l4 -68l4 -47l2 -53l-4 -58l-2 -18l8 -119l-2 -53v-84l10 -135l-69 6l-11 10l-18 -6l-21 -6h-26 zM137 1358l2 6l6 4l11 2h47l24 -2l17 -6l4 -4l35 10h92l22 -51l29 -82l8 -39l23 -45l14 -53l55 -127l6 -27l3 -14l26 -51l53 -136l35 -77l13 -25l10 -18l6 -31l20 -47l19 -47l18 -29l25 -70l28 -55l21 -35v-125l-2 -12l2 -57v-60v-35v-12l4 -8l-8 -6l-64 2l-6 96l2 64 l-14 57l-2 49l-6 90l-23 17l-47 24l-16 19h-23l-67 28l-4 6l2 11l-2 73l-3 70v25l11 69l2 64l-27 20l-20 17l-15 6l-28 2l-21 20l-26 2l-41 29l4 100l-2 7l8 22l-2 8l2 25l8 145l-41 41l-37 15l-45 28l-10 19h-8l-4 -9l-15 9l-45 22l-12 12l-12 17l-13 33zM223 1161l6 6 l23 7l43 -17l20 -18l19 -25l6 -18l-4 -6l-21 -11l-32 4l-21 13l-24 30zM256 1022l2 8l18 6h21l18 -6l25 -20l12 -37l-12 -6l-25 -4l-24 10l-19 22l-14 21zM408 676v65l10 31l10 16l10 -22l6 -18l7 -41l-5 -43l-6 -33l-14 -21l-12 25zM469 610v47l2 21l14 47l9 -2l12 -29 l8 -59v-35l-12 -72l-6 -18h-7l-8 25l-10 34zM557 344l12 8l13 6l24 -2l23 -6l18 -12l17 -19l14 -28l-4 -6l-25 -13l-26 2l-31 19l-12 12l-11 14l-8 15zM594 209v6l6 6l12 4l31 -4l14 -6l17 -12l18 -29l13 -20l2 -15l-15 -12l-14 -2l-25 8l-28 23l-21 34zM678 1329v27l6 14 l31 -2l37 -4l14 -6l10 4l27 2l10 4l6 -4l2 -6l-4 -66l-4 -100l-6 -29v-20l2 -58l-2 -36v-107l2 -72v-39l-12 -65l10 -18l2 -25v-100l-4 -25l4 -35v-92v-49l-2 -6l-10 16l-31 68l-21 39v14l-16 18l-22 45l-11 31l-8 10l4 453l-6 59l-2 54z" />
<glyph unicode="O" horiz-adv-x="958" d="M41 655l2 70l2 47l2 2l4 53l15 111l12 27l16 75l17 52l32 73l9 19l24 22l17 25l22 29l51 43l19 8l2 -8l2 -27v-39l-15 -18l-22 -25l-37 -47l-10 -10l-35 -56l-6 -28l-10 -29l-7 -8v-10l-22 -91l-4 -36l-8 -23l-11 -117l-8 -53l6 -31v-16l2 -66l11 -73l12 -76l6 -23 l-2 -12l2 -8l12 -10l37 -88v-2l13 -21h2l8 -24l18 -35l53 -60l11 -12l-6 -8l6 -33l-4 -37l-2 -10l-7 -2l-10 8l-47 45l-47 66l-8 22l-4 13l-35 53l-35 100l-16 68l-9 41v28l-16 78l-2 76zM119 662l6 22l10 49l10 25l15 20l28 27l5 -6l-5 -49l-6 -25l-12 -27l-6 -6l-12 -18 l-17 -15l-10 -6zM152 532v35l8 41l10 29l29 43l24 18h2l2 -2l2 -28l-4 -37l-8 -39l-12 -27l-29 -35l-2 -4l-20 -6zM182 455v6l11 12l36 57l9 37l12 19l24 53l-28 86l-15 59l-16 27l-33 100v7l56 57l12 16l14 6l10 13l25 34l10 9l4 28l2 138l4 24l3 94l26 19l43 16l12 -2 l17 8l35 13h57l8 -2h23l8 -7h18l23 -4l24 -8l25 -14l53 -43l15 -6l55 -60l8 -24v-6l25 -27l22 -43l17 -43l16 -29l10 -35h2l17 -55l26 -141l-4 -33l15 -80v-92v-59l-13 -78l-18 -72l-2 -31v-28l-17 -47l-18 -48l-62 -135l-55 -65l-12 -13h-19l-22 -30l-53 -29l-33 -24h-21 l-22 -13l-14 2l-31 -2l-37 -10l-31 6l-55 17l-31 16l-24 14l-15 17l-2 18l-2 90l2 10l6 9l-2 69l-2 31l-16 39l-35 49l-26 31l-37 53zM186 1010v12l19 55l22 29l25 22l18 7h17l-6 -29l-11 -37l-10 -16l-18 -23l-45 -26h-9zM199 330v18h12l25 -18l18 -29l16 -37l4 -35l5 -12 l-9 -2l-14 6l-18 12l-15 19l-12 29l-8 20zM330 727l6 -18l-2 -60h2v-24l6 -76v-55l4 -39v-54l6 -34l19 -127l16 -60l16 -45l13 -20l16 -17v-6l10 -12l13 -6l26 -19l13 -4l61 19l25 39l20 18l12 31l19 35l16 53l4 24l6 49l13 29l-2 82l8 41l8 162l-2 41l4 28v19l-2 29v43 l-8 63v18l-4 17l-2 43l-8 47v53l-3 41l-30 84l-6 25l-9 41l-26 32l-8 3l-11 18l-37 29l-30 -7l-15 7h-10l-35 -23l-34 -49l-19 -45l-12 -31l-2 -29l-10 -53l-11 -80l-12 -63v-84l-6 -66zM373 690v6l49 37l45 25l47 8h16l27 -10l66 -49l2 -17l-15 -12l-30 -19l-23 -10 l-31 -10l-32 4l-19 -4l-37 14l-47 21l-14 10zM401 489v7l58 34l39 9h10l22 -2l17 -5l22 -6l43 -30l6 -7v-12l-61 -43l-39 -10l-43 6l-16 6l-27 17l-22 20zM406 915l14 17l37 31l16 6l29 6l41 -6l30 -17l41 -26l2 -8l-2 -3l-14 -16l-20 -12l-54 -19h-18l-31 4l-43 19l-14 12 h-4l-8 6z" />
<glyph unicode="P" horiz-adv-x="872" d="M74 16l6 68l4 20l4 13l-4 18v76v190l4 91l-4 34v17l6 133l-6 22l4 60l-4 71l4 82v111v68l-4 28v72l-6 137l-4 39l2 2l14 -2l27 2l30 -2l5 -6l-2 -82v-41l-7 -29v-24l4 -47l-2 -90v-164l-6 -49l6 -46l2 -79v-113l-8 -64l6 -30v-185l-4 -53l2 -28l4 -19v-100l3 -86l6 -8 v-19l-4 -6h-31l-27 -4l-14 4l-4 2zM164 231v11l12 34l14 21l17 20l24 9l13 -2l4 -7l-8 -28l-11 -19l-14 -22l-29 -17l-6 -2h-14zM166 651v4l4 13l18 -19l17 -26l18 -37l4 -23l4 -33l-6 -8l-20 8l-2 2l-17 31l-10 27l-6 24zM168 1083l2 41l6 37l10 29l13 16l18 13l2 2l8 -7 v-34l-8 -25l-10 -29l-14 -20l-15 -19l-6 -6zM182 1354l4 12l9 2h86l106 -2l98 2l17 -8l24 2h52l4 -2l53 -4l14 -13l35 -4l43 -26l29 -35l26 -41l9 -31l22 -59l10 -45l4 -15l7 -40v-41l-5 -13l2 -41l-6 -22l-4 -25l-8 -35l-8 -24l-14 -43l-25 -62l-21 -39l-24 -26l-16 -31 l-48 -37l-32 -22l-21 -13l-22 2l-25 -18l-59 -14l-23 -4l-35 -2l-14 6l-6 8l-23 65v13l11 -2l24 -4h14l31 6l12 -2l78 61l19 35l26 92l13 49l6 13l4 24l-6 33l2 49l-2 23l-4 59l-11 35l-20 71l-12 23l-25 27l-6 12l-62 33l-18 2l-29 18l-2 4l-12 -10h-45l-4 -2l-2 -16 l2 -209l-8 -41l4 -125l-2 -146v-77l-4 -43l4 -99l-2 -86l6 -47l-2 -45l-2 -27v-116l6 -43v-54v-98l-2 -14l-41 6h-25l-10 6l-29 -10h-86l2 18l-2 23l2 6l15 18l24 23l27 41l12 8l45 74l4 8l-28 70l-6 30l-19 25l-2 4l-12 31l-19 28l-16 37v11l35 81l10 27l57 92v6l-28 74 l-21 35l-6 35l-10 10l-33 59l-6 21l37 69l6 17l12 14v4l10 19l21 49l14 29l4 16l-43 82l-28 49l-13 10l-30 47l-13 6l-4 9zM184 131l11 33l14 33l14 22l17 17l14 6l12 2h15l4 -13l-19 -36l-24 -41l-17 -17l-24 -14h-13zM193 770v16l2 2l32 -32l11 -15l18 -30l10 -35l2 -25 l-2 -22l-12 4l-25 22l-10 13l-18 41l-2 14zM193 969l2 53l12 39l16 29l19 22l20 14l6 -2l4 -6v-10l-6 -14l-18 -58l-6 -14l-19 -35l-12 -12l-16 -10z" />
<glyph unicode="Q" horiz-adv-x="958" d="M41 616l4 35l-2 21l-2 33l6 120l14 95l9 36l2 23l16 35l14 49l33 74l27 49l18 16v6l6 15l33 41l41 41l19 16h2v-78l-7 -16l-14 -13l-24 -30l-13 -15l-71 -118h-2l-7 -21l-10 -53l-12 -45l-10 -60l-7 -30l-4 -78l-4 -39v-61l4 -78v-35l4 -25l15 -47l6 -51l20 -72l19 -47 l24 -78l5 -10l18 -8l33 -51l30 -29l5 -6l2 -59v-15l-2 -10l-25 18l-31 29l-37 43l-18 21l-21 36l-36 89l-5 6l-2 30l-16 37l-27 99l-8 36v35l-10 64zM121 676v12l8 47l6 19l21 34l26 19h11l4 -8l-2 -17l-11 -37l-16 -28l-12 -17l-31 -24h-4zM150 532v43l6 29l8 31l29 47l4 2 l14 10h12v-22l-6 -33l-16 -47l-19 -35l-26 -29zM184 920l68 88l51 47l4 119l4 16l-4 20l6 113l9 12l30 23l29 16l47 12l10 -4l86 11l33 -13l45 -6l53 -31l25 -20l10 -18l37 -29l70 -100l32 -56v-22l29 -56l29 -98l12 -72v-30l4 -23l10 -74l-6 -86l6 -47l-10 -96l-8 -59 l-8 -31l-6 -29l-7 -18l-28 -100l-17 -33l-16 -19l-12 -41l-19 -30l-67 -78l-31 -29l-29 -18l-12 -13h-16l-52 17l-30 24v7l24 28l33 60l27 61l14 16l4 54l10 43l15 190l10 33l-4 106l2 27l-6 127l-2 43l-6 57v72l-11 21l-12 67l-20 90v23l-13 18l-18 53l-23 19l-10 18l-27 6 l-30 13h-15l-24 -21h-10l-31 -26l-12 -15l-31 -75v-17l-14 -55l-17 -101l-8 -118l-10 -45l2 -25l-2 -61v-64l8 -78l2 -59l-4 -39v-18l12 -101l4 -31l4 -34l35 -174l39 -54l14 -26l35 -25l21 -22l41 -15l45 -30l26 2l29 -13l57 -10l47 -2l13 -12l37 8h114l39 6l4 4l9 -10 l2 -8l-31 -45l-39 -43l-35 -43l-12 -23l-21 -24l-51 -95l-16 -10l-13 12l-53 64l-30 49l-19 23l-12 6l-51 63l-11 15l-34 34l-9 13l-18 16l-6 2h-35l-35 10l-37 19l-10 -6l-27 10l-39 24l-6 13l-2 24v82l2 25l-6 112l-37 70l-34 37l-43 70v8l36 116l31 66l-8 59l-14 41v19 l-2 16l-15 12l-33 113zM188 1026v16l15 37l14 23l19 20l24 15l25 2l-4 -13l-7 -22l-20 -37l-14 -18l-23 -17zM203 332l4 8l16 -8l21 -17l22 -36l13 -52l2 -18l-2 -6h-7l-12 10l-24 25l-19 36zM377 688v6l14 17l53 34l19 7l10 2h45l33 -6l41 -19l31 -31v-6l-29 -22l-45 -25 l-19 -6h-28l-43 2l-64 25l-14 16zM391 918l6 6l41 26l35 17l33 4l39 -6l47 -33l10 -25l-12 -10l-58 -27l-26 -10h-23l-20 4l-41 13l-23 20l-4 6v4zM395 481l2 6l37 31l43 23h23l16 4l31 -10l28 -17l33 -31l4 -8l-2 -14l-12 -8l-66 -35l-30 4l-49 12l-43 27z" />
<glyph unicode="R" horiz-adv-x="919" d="M74 4v25l6 73l8 76l2 25l-6 22l4 60l2 37v34l4 33l-4 25l2 735l-8 37v57l-4 76v49l72 -4l4 -12l-4 -27l-2 -129v-164l-3 -84v-190l-4 -19v-24l7 -41l-3 -119v-94l-2 -10l5 -19l2 -53v-160l-5 -18l3 -23l2 -106l4 -66l-13 -2h-28l-35 -8zM168 645v19l2 4l20 -15l19 -18 l20 -47l4 -37l-4 -23l-16 11l-29 36l-14 46zM168 1077l2 29l6 33l8 26l17 25l22 16h8l5 -8l-5 -24l-8 -31l-18 -31l-25 -27l-10 -8h-2zM170 242l6 26l12 39l11 19l28 24l9 4l4 -4v-22l-11 -39l-18 -33l-12 -14l-17 -13h-6zM182 1350l6 18l97 -6l6 -6l28 6l60 6l47 -4l72 4 h22l19 -12l41 2l61 -6l21 -6l40 -19l25 -22l37 -37l16 -35l4 -19l21 -22l4 -14l16 -66l9 -59v-23l-9 -22v-37l-4 -29l-8 -35l-4 -26l-21 -62l-16 -12v-8l-35 -64l-16 -14l-41 -29l-2 -12l-12 -18l-21 -17l-10 -4v-6l10 -25l53 -125l13 -43l30 -67l25 -60l18 -41v-14l7 -18 l16 -27l20 -53l29 -56l33 -75l16 -27v-8l-10 -8l-12 2l-35 6h-17l-18 8l-33 -4l-20 -6l-21 2l-24 10l-62 -10h-18l-29 88l-16 51l-8 43l-21 51l-39 103l-10 49l-2 14l-21 27l-12 39l-51 131l-10 18v17h26l35 8l19 -8l22 24l25 17l18 14l25 33l16 33l12 45l7 43l4 10l6 74 l-2 28l6 45v13l-6 24v37l-4 6l-2 19l-25 69l-29 64l-24 12l-51 41l-23 -6l-18 6l-25 2l-41 -6l-10 -6l-2 -76l2 -209l-6 -16l-4 -21l10 -51l-4 -29v-65l2 -56v-129l-4 -36l-4 -66l10 -59l-2 -23v-123l4 -47l-6 -39l4 -47l2 -59v-45l4 -35v-33l-4 -10l-17 6l-59 4l-10 6 l-25 -4l-14 6l-41 -2h-14l-6 8l2 25l30 45l29 43l29 29l12 16l24 39l-4 14l-43 99l-10 41l-39 63l-6 17v12l49 86l51 98l-2 12l-24 64l-17 43l-16 18l-45 113l6 10l47 82l13 19l12 26l14 6v11l19 53l-66 119l-14 16l-25 35l-35 47zM188 123l5 37l10 28l16 27l21 23l16 6h10 l2 -8l-6 -35l-14 -31l-25 -29l-20 -16l-10 -6zM188 977l7 37l12 47l29 39l24 18h16l-8 -39l-8 -30l-24 -41l-13 -15l-20 -16l-10 -4zM190 770v18l5 5l8 -7l22 -22l15 -16l16 -31l16 -53v-25l-18 2l-16 12l-21 33l-16 35z" />
<glyph unicode="S" horiz-adv-x="768" d="M49 1008l6 34l4 25l4 6l5 23l20 67l6 11l8 18l13 25l8 4l8 -23l12 -31l2 -6l-18 -51l-12 -41l-6 -33l-7 -20l4 -33v-41l9 -70l2 -16l16 -53l2 -15l6 -18l47 -47l19 -23l16 -24l15 -33v4l63 -53l21 -12l30 -25l6 -4l15 -25l59 -36l19 -21l28 -31l23 -34l26 -72l4 -37 l5 -70l-9 -65l-6 -35l-8 -6l-10 -37l-21 -37l-14 -22l-25 -23l-49 -29l-18 -2l-23 2l-18 -2l-27 -12h-18l-43 8l-25 17l-28 2l-33 16l-17 23l-20 -7l-14 7l-39 28l-4 84l-2 62l6 26l-6 25l2 84v45l-2 43l2 12l10 10l10 -6l39 -104l10 -23l15 -45l8 -8l43 -74l22 -24l25 -35 l20 -23l15 -2l12 -16l22 -12l23 -11l16 7l15 -2l47 14l10 6l16 23l13 36l14 11l4 24l6 64l-2 12l-12 72l-25 37l-6 20l-16 6l-27 27l-28 26l-25 15l-27 35l-10 12l-18 4l-35 25l-59 63l-11 14l-16 11l-23 30l-34 58l-19 43l-31 94v22l-8 56zM137 948l13 -4l32 -31l17 -24 l12 -29l6 -24v-25h-18l-31 25l-16 30l-13 47zM145 1245v6l7 17l28 35l43 30h15l34 29l56 14h10l35 10l10 3h35l22 -13l11 6l73 -2l39 -10l37 -22l16 4l56 -23l16 -12l8 -35l2 -20l-2 -101l-6 -33l6 -36l-4 -50l4 -57v-41l-10 -14l-6 2l-23 57l-20 49l-27 58l-6 20l-18 12 l-19 39l-37 47l-77 72l-31 6l-12 11l-33 12l-47 -23l-27 -30l-18 -48l-4 -34v-11l-9 -30l11 -35l18 -49l18 -33l27 -21l33 -32l47 -60l37 -12l39 -27l35 -45l43 -37l20 -28l10 -23l43 -41l25 -43l31 -84l-4 -12l16 -63l4 -60l2 -63l-6 -62l-14 -59l-11 -12l-16 -58l-14 -37 l-17 -22l-12 -29l-12 -12l-19 -12l-16 -21l-12 -10l-21 -4l-43 -15v9l29 65l22 70l17 43l12 22l4 31l23 61l8 15v10l12 72l21 78l-87 30l-22 -8l-53 6l-11 6v11l-10 59v14l-8 35l-2 25l-10 53l-8 53l-7 25h-32l-78 -31l-64 -14l-12 -4l-4 94l6 18l-6 47v103l-25 57l-16 35 l-2 18l-16 19l-25 63l-14 33zM150 1057v26l2 7h4l14 -7l16 -20l17 -25l10 -24l12 -53l2 -17l-4 -8l-28 18l-13 15l-20 35l-10 40zM299 688l16 17l21 18l29 12l20 2l35 -8l6 -6l2 -16l-20 -19l-17 -16l-37 -15h-26l-23 13l-4 8zM358 592l19 26l31 19h18l27 -8l8 -11l-10 -26 l-15 -14l-30 -13l-37 6l-7 11zM555 326v45l2 39l8 34l13 21l8 12h6l8 -33l4 -34l-4 -35l-6 -31l-8 -22l-19 -43l-4 -5z" />
<glyph unicode="T" horiz-adv-x="804" d="M25 1004l4 108l6 35l-4 41l-4 57v68l-2 53l2 6h59l45 -12l8 -8l15 8h16l31 6h116l5 -2l-3 -6l-2 -29l2 -137l-6 -23l2 -90v-151l-4 -31l6 -31l-2 -63l-2 -207l6 -53l-6 -127l-2 -8l8 -33l-4 -27l7 -61l-3 -119l5 -88l4 -70l-2 -6l-17 -6l-41 4l-14 -4l-8 6l4 25v22l8 82 l2 43l2 6v47l-2 140l2 53v98l-2 39l2 8v170v37v17l-2 34l2 156l-2 16l6 31l-8 72v86l-2 80l-12 6l-21 -2l-24 -13l-47 -47l-15 -30l-12 -11l-12 -16l-2 -20l-19 -46l-22 -61l-27 -94l-8 -6l-8 12v37zM334 653l2 21l16 -8l19 -19l16 -39l8 -53v-12l-4 -15l-14 9l-19 22 l-14 35l-4 14zM338 248l4 22l12 35l13 23l30 24h17l6 -4l-10 -39l-7 -16l-20 -31l-25 -14l-16 -2zM338 1085v25l10 47l6 19v6l15 18l16 10l12 2l4 -2v-28l-6 -29l-12 -25l-10 -18l-19 -16zM344 129l10 33l29 53l14 12l33 13l10 -4v-7l-14 -43l-25 -36l-12 -15l-24 -8l-19 -4 zM348 1329v37l25 -2h33l14 -6l26 6h17l16 -4l58 4l69 -6l17 6l14 -6h31l24 -4l17 6l65 6l6 -6v-53l-8 -25l2 -29v-43l-2 -10l2 -88v-31l-2 -18l4 -59l2 -58l-10 -12l-4 -2l-6 2l-10 35l-17 57l-14 47l-6 12l-11 27l-4 10l-41 78l-6 23l-18 6l-25 16l-14 19l-17 6l-8 2 l-20 -2l-4 -195l-6 -43l4 -59l2 -189l-2 -30l4 -17v-47l-4 -16v-31l6 -49l4 -86l-10 -55l2 -76l4 -23l-2 -12l4 -8v-29l-4 -24l4 -72v-74l4 -20v-47l2 -58l-2 -18l-16 4l-31 2l-37 6l-8 4l-43 -10l-56 4l-4 8v35l11 16l32 43l21 17l10 22l55 84l-34 101l-9 24l-32 49l-11 27 l-10 14l-4 11l21 47l28 53l2 8l15 6l41 92v13l-5 8l-20 68l-25 20l-34 72l-25 39v6l6 8l41 88l12 12l17 41l18 45l15 31v6l-60 88l-8 19l-4 16l-12 8l-17 23l-31 47zM358 967l2 30l11 35l10 33l14 16l33 23l8 2v-12l-14 -60l-8 -18l-17 -25l-12 -16l-25 -17zM365 766l6 8 l24 -8l13 -16l18 -29l12 -47l6 -37l-10 -12l-8 2l-25 26l-16 27l-12 29z" />
<glyph unicode="U" horiz-adv-x="864" d="M66 1360l6 12h24l17 -4l32 -2l5 -6l-5 -12v-82v-31l-12 -33l6 -65v-228l-2 -28v-23l2 -29v-79l6 -158l-6 -27l6 -80l-6 -65l6 -25v-155l7 -74l-7 -8h-6l-22 88l-8 47l-7 24l-12 95l4 18l-8 55l-2 117v156l-2 45l2 35l-2 65l-4 78l8 43l-8 39v133l-4 70v43l-4 34z M160 1063v31l8 12l10 -10l29 -43l10 -37l2 -21v-26l-2 -6h-8l-16 12l-15 20l-6 17l-8 28zM164 662l4 28l2 15l6 18l19 33l12 12l12 6h10l2 -4l-6 -39l-12 -29l-10 -18l-27 -22h-12zM168 213v18l6 9l12 -9l19 -14l8 -12l10 -23l8 -59v-6l-14 6l-24 16l-7 13l-12 36zM176 1350 l6 16h6l15 -4h41l12 -6l16 6h47l9 4h49l2 -6l2 -12l-4 -33v-74l-4 -39l-8 -24l2 -48v-81v-131l-7 -68l-2 -47l4 -33l3 -108l-3 -58l-4 -43v-31l9 -98v-125l18 -82l6 -39l4 -4l17 -37l8 -28l18 -31l21 -12l30 -8l37 4l15 -11l20 17l39 37l14 6l27 92l8 18l8 25v78l11 76v106 l4 70v71l6 31l-4 37l-2 16l6 52l-6 18v154l-4 77l4 56v34l-10 23v66l-7 137l2 12l58 -2l33 -10l28 10l19 2l6 -2v-4l-2 -47l-2 -127l-6 -17l6 -34l-2 -27l2 -104v-41l-4 -31l-5 -60l-6 -34l6 -13v-125l-2 -57l5 -31v-16l-5 -18l2 -60l-6 -65l-4 -43l-2 -52l-10 -34v-21 l-4 -29l-17 -65l-10 -35l-6 -16l-39 -68l-4 -10l-35 -29l-10 -20l-23 -27l-26 -18l-62 -21h-16l-8 8l-23 -18h-39l-12 2l-37 -2l-30 12l-23 19l-23 -2l-71 47l-6 8l-4 12l22 58l8 24l31 43l25 45v13l-21 47l-16 24l-6 19l-5 16l-12 4l-55 105l39 79l18 35l19 27l12 29l12 43 v10l-28 43v14l-17 31l-4 29l-22 26l-25 41l-2 23l14 30l21 39l16 45l29 45l20 47l6 15l-36 57l-21 41l-39 66l-12 10l-8 12l-17 21zM184 555l4 18l9 31l20 41l29 33l14 6h6l-6 -39l-6 -27l-18 -32l-11 -19l-16 -12l-23 -6zM184 1214l21 -8l16 -16l21 -31l6 -12l8 -29l8 -35 l2 -20l-14 -4l-16 10l-13 14l-18 33l-12 27l-7 33zM195 330v24l2 6l10 -2l10 -10l21 -24l14 -23l8 -22l6 -39l-2 -27l-22 16l-23 29l-10 18z" />
<glyph unicode="V" horiz-adv-x="892" d="M8 1370h43l8 -4l41 -156l2 -18l17 -41l37 -147l30 -119l13 -62l39 -118l41 -173l16 -51l4 -30l4 -19l10 -16l17 -78l30 -105l11 -47l4 -30l51 -150v-10h-45l-23 -2l-10 37l-14 69l-6 19l-4 31l-31 106l-19 72l-20 82l-12 65l-6 25l-19 51l-49 174l-14 51l-15 53l-2 29 l-6 21l-16 32l-15 54l-16 65l-21 86l-6 21l-6 30l-4 23l-24 59l-7 31l-4 35l-2 20zM92 1354v12h17l24 -4l64 4l8 -6l106 6l25 -70l29 -122l8 -82l24 -60l4 -6v-8l56 -213l6 -60l14 -32l6 -19l15 -49l26 -74l49 -178l9 -18l8 -15l-17 -75l-18 -72l-10 -6l-8 -57l-25 -89 l-2 -14l-8 -41l-10 -6h-23l-10 8l-10 33l2 20l20 93l6 20l8 57l15 62l12 74l2 18l-16 25l-39 34l-19 2l-45 35l-35 23l-2 6l7 31l2 53l4 18l4 11l20 116v9l6 24l-53 57l-10 15l-16 8l-25 25l-43 36l10 78l10 60l11 41l8 59l6 35l-45 28l-27 23l-22 25l-6 2l-17 4l-53 30 l-16 7l-7 18zM145 1223l9 8h14l22 -14l41 -43l15 -41l-6 -7l-29 4l-29 21l-18 29l-17 34zM164 1090v6l4 2h18l27 -19l18 -24l15 -47l2 -7l-12 -4l-29 4l-21 23l-18 39zM256 745l8 43l10 23l11 14l14 11v-7v-51l-10 -59l-17 -43l-6 -6l-6 28zM303 592v43l4 41l8 31l17 38 l10 19l12 2l4 -2l-2 -41l-4 -37l-24 -76l-15 -16l-6 -6zM348 410v6l17 4h26l29 -17l14 -16l25 -37l10 -28l-2 -7h-14l-35 7l-33 22l-31 55zM365 279l2 6l6 2h22l23 -6l14 -13l17 -24l8 -29l2 -18l-29 6l-24 18l-23 27zM537 664l18 67l23 80l8 27l8 20l4 21l25 65v23l36 135 l15 43l12 72v6l35 139l6 4l64 -4h94l2 -10l-19 -35l-47 -143l-6 -7l-20 -77l-19 -54l-41 -145l-30 -68v-39l-35 -114l-8 -35l-5 -17l-8 -6l-6 -41l-20 -71l-17 -68h-4l-4 12l-12 31l-13 47v25l-12 35z" />
<glyph unicode="W" horiz-adv-x="1224" d="M8 1354l4 6l70 -2l6 -21l33 -166l10 -49l12 -35l7 -63l24 -104l8 -54l6 -32l5 -60l12 -31l12 -59l23 -106l22 -99l6 -26l2 -37l6 -41l21 -72l20 -80l7 -57l34 -156l-4 -10l-63 -6l-4 18l-6 35l-23 137v13l-25 106l-51 262l-8 13l-4 14l-18 113l-7 26l-6 53l-12 66l-12 24 l-2 33l-41 191v20l-19 56l-2 34l-14 41l-10 43l-11 43l-6 11zM119 1333v17l65 -2l15 6h30l39 -2h43l11 8l12 -6l10 -54l12 -57l21 -131l-4 -22l4 -21l14 -51l37 -176l29 -154l8 -22l4 -29l8 -31l12 -24l13 -56l30 -123l-2 -36l-22 -93l-12 -32l4 -23l-8 -45l-11 -20l-14 -62 l2 -26l-16 -54v-10l-19 -4l-45 -2l-2 12l14 55l9 54l14 41l45 221l-53 43l-19 33l-12 -2l-18 8l-21 24l-12 11v14l26 108l13 27l14 64l2 43l-2 8l-10 8h-4l-19 25l-18 12l-6 -2l-8 8l-48 66l-24 30l18 70l4 35l9 8l6 57l18 88l-20 19l-29 20l-45 47l-21 2l-43 31l-14 6 l-8 10zM160 1210l4 7h22l21 -13l29 -35l20 -49v-10l-10 -6l-27 6l-20 16l-27 45zM164 1083l4 11h14l21 -19l10 -12l20 -35l15 -27v-4l-10 -6l-19 4l-26 19l-17 30zM246 725l10 41l25 35h6l4 -13v-24l-4 -45l-8 -33l-29 -45l-2 37zM285 561l2 49l6 43l8 21l8 18l17 31l4 6 l12 14l4 -22l-2 -31l-8 -47l-19 -63l-20 -35l-4 -6h-4zM319 408l5 12l16 4l20 -6l13 -10l16 -19l21 -37l12 -24l4 -17l-4 -8h-10l-21 4l-24 19l-25 34zM324 295l2 8l28 -10l15 -10l14 -17l16 -43l9 -30l-7 -11l-30 6l-17 19l-14 24zM481 760l21 74v14l22 86v6l15 37l4 41 l14 37v16l12 64l21 77l4 7l14 -48l29 -149l6 -37l2 -22l14 -48l33 -155l31 -133l-2 -27l12 -49l58 -272l12 -78l2 -27l2 -10l10 -17l27 -139v-6l-72 -2l-8 72l-23 145l-10 49l-4 29l-10 43l4 22l-14 39l-17 86l-10 33v10v23l-16 65l-9 43l-8 41l-12 66l-10 41l-2 20l-5 7 l-18 -89l-2 -20l-12 -35l-4 -33l-2 -24l-17 -55l-8 -35l-4 -47l-2 -11l-6 -2l-4 6l-23 115l-4 37l-12 25l-17 79zM616 1323l7 29l8 14v4l61 -8h17l8 -6h16l8 2l60 4l20 -4l23 -139l6 -31v-25l10 -55l17 -98l16 -80v-35l8 -29l17 -49l6 -39l14 -43l18 -94l15 -72l4 -14 l10 -31l16 -80l15 -55v-29l-27 -108l-4 -23l-6 -12v-33l-8 -26l-15 -52l-10 -65l-6 -33l-6 -12l-57 2l-7 4l19 84l22 82l7 33l4 32l18 76l8 58l-39 43l-22 14l-31 35l-31 30v5l27 100l18 108v23l4 12l-10 17l-26 32l-37 54l-19 10l-34 39l-7 10v19l17 94l8 22l20 125l-32 31 l-43 47l-39 33l-19 18l-32 25zM633 1227l2 12h14l33 -22l29 -39l20 -25l10 -35l-10 -4l-20 4l-15 4l-24 21l-19 33l-12 24zM647 1092h2l23 -2l12 -7l25 -28l18 -25l8 -24l-4 -11l-12 -4l-21 4l-20 19l-25 41zM735 686v37l8 45l2 8l13 23l8 16h10l2 -18l4 -39l-12 -53l-6 -19 l-10 -18l-13 -11h-2zM776 580v41l8 43l19 51l6 12l8 10l8 -6l2 -35l2 -47l-4 -22l-6 -27l-22 -49l-15 -21l-4 7zM795 424l2 6h14l31 -12l24 -21l29 -51l14 -27l4 -10l-2 -10h-10l-24 4l-19 12l-16 15l-33 51zM809 283v6l18 4l13 -6l26 -29l17 -27l14 -45l2 -6l-6 -6l-21 -2 l-24 14l-19 31l-10 25zM963 770v6l41 166l12 33l2 24l2 35l16 66l8 51l11 41l-2 25l14 108l2 37l18 2l7 -4l34 2l39 -4l21 8l18 -10l8 4l5 -12l-23 -82l-22 -107l-15 -22l-31 -183l-34 -166l-7 -45l-8 -14l-14 -70v-16l-18 -100l-7 -31l-4 -31l-6 -4l-2 6l-22 107l-29 108z " />
<glyph unicode="X" horiz-adv-x="841" d="M16 1348l7 14l79 -2l9 -6l32 -131l2 -27l7 -18l12 -31l10 -39l8 -14l8 -29l33 -90l13 -39l20 -74l6 -26l10 -19l27 -67l29 -93l28 -94l9 -14l6 -23l6 -47l14 -24l25 -78l8 -33l4 -8l10 -19l8 -32l74 -232l6 -12l15 -49l-9 6h-45l-22 2l-33 125l-12 45l-6 29v14l-8 10 l-27 82l-21 66l-47 141l-8 45l-4 4l-53 144l-15 51l-24 94l-21 37l-53 166l-8 28l-6 15l-15 28l-32 88l-29 78l-14 23zM27 6l28 76l15 31l24 63l8 19l37 100l23 49l6 27l25 41l10 39l28 86l15 43l2 10l2 2h4l37 -119l16 -47l8 -25l-28 -94l-13 -24l-57 -191l-24 -88l-7 -4 h-28l-11 6h-51l-8 -2l-49 -4h-10zM135 1350v6l2 4l31 -6h33l30 -6l17 6h59l35 6h35l14 -41l19 -84l4 -23l6 -22l47 -156l14 -51l4 -20l15 -33l16 -53l19 -54l24 -78l4 -28l29 -74l37 -104l8 -25l4 -25l25 -71l20 -45l4 -43l23 -47l37 -101l26 -59v-12l19 -29l26 -70l4 -14 v-10l-20 4h-39l-31 6h-26l-23 8l-53 -8h-45l-10 29l-3 6l15 71l4 13l12 24l6 54l11 59l12 70l-23 18l-24 25l-10 10l-13 6l-14 23l-10 -11l-15 13l-24 24l-25 29l-8 4l-2 6l2 31l4 78l12 53v29l4 88l-8 8l-63 45l-8 8l-31 6l-37 33l-14 12l4 37l6 25l4 45l10 35l2 12l-2 39 l6 69l4 25l-83 63l-13 -4l-49 29l-37 29h-8l-10 12l-19 53zM223 1143v6l17 6h16l23 -6l20 -21l14 -20l11 -27v-6l-27 -6h-16l-27 21l-18 26zM242 1024l12 6l25 -2l20 -16l12 -19l11 -22l2 -15l-21 -6h-14l-21 13l-14 26l-8 21zM346 715l10 49l15 29l8 -29l6 -33v-26l-10 -43 l-10 -19l-9 -10l-2 6l-6 29zM403 602v23l3 24l8 41l12 31l6 10l6 -4l11 -37l4 -28v-31l-11 -45l-18 -41l-10 -15l-8 33zM481 332v6v6l8 8h25l16 -8l35 -25l17 -20l16 -27v-2l-4 -4l-21 -8h-24l-19 12l-34 41zM487 213l5 12l16 6l10 5l8 -5l35 -26l19 -29l10 -18v-13l-21 -14 l-28 8l-15 13l-20 18l-12 25zM510 999l6 7l19 57l24 49l10 10l9 43l20 54l14 55l23 80l2 6l76 -6h39l20 6h21l8 2h6l2 -12l-39 -72l-31 -47l-10 -19l-6 -30l-14 -29l-23 -63l-6 -9l-10 -16l-33 -100l-31 -82l-20 -74l-11 6l-20 68l-6 14z" />
<glyph unicode="Y" horiz-adv-x="839" d="M8 1364l2 4l74 -8l4 -4l43 -152l14 -41l5 -28l12 -21l49 -162l4 -26l14 -25l15 -43l35 -108l12 -35l20 -62v-151l-6 -17l4 -43v-36l2 -93l2 -73l4 -52l-2 -61l-2 -35l4 -6v-59l5 -13l-3 -12l-18 -4h-51l-6 12l2 6l2 35l8 86l-2 123l8 41l-6 61v74v37l-6 129l2 31l-25 74 l-24 81l-2 23l-15 47l-10 19l-55 167l-6 21l-2 20l-13 37l-24 47l-21 72l-35 98zM121 1358l2 6l59 -6h25l37 -8l49 10l26 -2l17 2l18 -2l11 2l4 -6l8 -49l18 -72l27 -137l14 -25l25 -102l16 -64l10 -24l19 -84l12 -47l45 -115v-17l-6 -40v-60l-2 -41v-24l-4 -35l2 -23 l4 -112l2 -37l-2 -47l-2 -11l6 -20l2 -107l4 -36l2 -23l-2 -6l-2 -4l-39 10l-12 2l-20 -4l-25 6l-18 -6l-72 -2l-21 -2l-4 6l4 37l4 22l25 23l43 70l8 2l31 57l33 76l-58 92l-12 10l-47 84l-10 14l4 15l14 49l21 45l18 41l8 49l11 41l8 33l4 12l-23 19l-12 6l-45 37l-16 14 l-13 24h-18l-31 19l2 63l4 13l8 106l9 29l10 59l4 35l-80 45l-12 17l-25 2l-22 8l-15 4l-51 31zM182 1192v6l13 10h26l15 -2l20 -16l33 -47l12 -15l-2 -12h-8l-31 -2l-22 6l-15 10l-35 44zM199 1051v6v10l12 10l31 -4l24 -20l19 -25l12 -35l-6 -6l-35 2l-27 17l-16 20z M311 698v41l13 47l4 11l8 16l22 18h2l5 -2l2 -26l-2 -25l-7 -28l-22 -35l-10 -13l-11 -6zM330 270l6 6l12 -6l25 -20l10 -19l16 -45l7 -43l-5 -4l-26 19l-17 26l-26 68zM342 561v29l2 28l10 44l13 38l18 37l16 17h2l5 -6l-5 -78l-6 -35l-12 -25l-20 -32l-13 -15l-6 -4z M352 375l2 12l4 2l15 -4l22 -16l19 -29l18 -59l6 -39l-4 -6l-16 8l-19 24l-26 43l-15 35zM514 887l55 153l13 17l14 57l10 41l12 37l17 57l2 29l10 25l8 36v23l4 6l29 -6l14 6l64 -4h16l37 4l10 -4l5 -6l-9 -19l-14 -39l-39 -83l-18 -25l-19 -62v-12l-18 -28l-43 -113 l-8 -16l-7 -7l-6 -47l-30 -76l-41 -143h-7l-22 74l-18 57z" />
<glyph unicode="Z" horiz-adv-x="835" d="M16 -4l17 39l63 178l15 23v30l14 45l14 51l68 191l10 41l8 16l17 52l12 20l8 45l29 88l20 55l4 21l23 74l18 49l4 30l7 19l36 113l9 38l18 54v24h-41l-27 -4l-12 -6l-16 6l-23 -12l-28 -14l-39 -23l-17 -12l-20 -17l-27 -41l-22 -36l-23 -29l-14 -25l-10 -10v-22 l-39 -107l-4 -6h-11l-4 18l4 107l-2 78l4 51l-4 14l-4 78l-2 82l4 10l62 -6h53l20 2l15 -10l35 6l55 2l35 -2l78 4l22 -6l98 4l6 -6v-10l-16 -35l-45 -129l-12 -19l-6 -41l-19 -65l-33 -92l-18 -60l-27 -88l-24 -69l-21 -68l-24 -74l-17 -35l-32 -126l-31 -97l-14 -20 l-9 -51l-26 -88l-35 -107l-8 -47l-15 -39l-4 -8h-24l-49 -8l-5 4zM133 2l14 37l58 49l24 18l11 -4l18 21l33 16l57 47l-20 95v67l-11 12v7l-12 69v6l-6 7l-6 24l26 12l50 39l16 17l16 6l25 18l29 33l20 16l-4 43l-12 78l-2 58l-6 30l-9 88l2 7l70 45l76 51l26 8l-8 39 l-14 65l-6 74l4 29l-10 16l-7 6l-14 60v20l19 41l88 -8l18 -8h4l19 6l51 4l18 4l10 -4l7 -8l-19 -47l-24 -68l-4 -6l-9 -14l-22 -76l-23 -82l-73 -205l-23 -41l-25 -106l-6 -19l-37 -98l-10 -45l-16 -47l-8 -33l-13 -29l-2 -28l-28 -88l-13 -72l-14 -47l-8 -14l-10 -48v-20 l-11 -39l2 -2l54 -2h36l17 -6l24 16l25 6l37 17l39 35l24 28l37 66l25 35l6 28l14 39l11 14l8 33l24 60h11l4 -7v-4v-41l-11 -102l-8 -78l2 -33l-8 -47v-30v-54l-6 -65l-6 -6l-129 4l-13 10l-22 -4l-25 2l-71 2h-54l-127 -2l-43 6l-43 -10l-96 -4l-2 6v6zM205 180v47l4 41 l8 33v2l4 -2l12 -29l9 -34l2 -66l-6 -29l-2 -8l-7 -4l-6 6l-10 17zM256 283v65l2 35h2l14 -18l15 -29l10 -35l2 -35l-2 -33l-6 -32l-6 -11l-11 23l-10 18l-4 25zM330 584v16l18 27l19 22l28 17h37l6 -7l-8 -24l-10 -12l-25 -27l-33 -14l-20 -2zM342 719l12 29l11 18l18 16 l12 2l19 4l18 -12l6 -6v-6l-20 -33l-21 -14l-26 -15l-23 5zM467 1047l2 38l4 33l4 19h6l17 -31l6 -31l4 -26l2 -19l-8 -37l-8 -18l-7 2l-16 41zM518 1176l2 20l4 33l6 -4l15 -15l10 -28l8 -29l6 -43l-2 -59l-8 -23h-4l-4 10l-8 13l-17 43l-6 41z" />
<glyph unicode="[" horiz-adv-x="548" d="M98 -127l13 160l2 80v10l6 10l-4 109l-2 129v78l6 18l-6 35l2 37v65l-2 86v74l8 59v11l-6 2v38l-2 76l-2 84l2 35l-2 68l2 125v14v18l-4 47l-7 138l-4 18l2 6h2l68 -6l4 -6l-4 -43v-47l-2 -66v-133l-6 -20l-2 -29l6 -37l2 -45v-96l2 -47v-191l-8 -20l6 -33l2 -27v-196 l4 -434l-10 -27l8 -25l2 -24l6 -70v-6l-4 -2h-33l-30 -6l-7 -4zM186 188v19h4l21 -19l18 -30l15 -39l4 -43v-23l-4 -6l-27 29l-10 16l-8 25l-9 35zM188 1155l2 4l15 -6l10 -10l27 -37l14 -47l6 -31l-6 -6l-20 12l-21 25l-14 35l-11 41zM193 655l6 37l2 6l10 33l14 25l17 12 l12 6h8l2 -10l-6 -21l-16 -38l-23 -35l-18 -19h-6zM195 1487v10v4l10 -6l33 -4h86l10 -10l16 4l29 6l86 -4l72 10l2 4l6 -10l-2 -64l2 -24l-2 -14l-25 6l-22 2h-27l-14 12l-19 -8l-28 -10l-5 -148l-6 -8l2 -33v-53l2 -25l-4 -41l2 -114l-2 -58l-4 -41l-2 -30l10 -25l-2 -6 v-252l-2 -14l-6 -11l2 -28l8 -37l-2 -31v-28l4 -154l-2 -25v-18l-4 -10l2 -8l2 -58l7 -90l-5 -6l7 -35l2 -10l-4 -8l-5 -4v-7l13 -16l39 4l16 4l8 -10l35 12l35 11l-2 -117l-4 -2l-4 2h-2l-29 10l-12 2l-7 -2l-8 14l-28 -8h-113l-4 6l-21 -6h-82l-16 -4l-8 4l-4 6v41l10 15 l49 82l2 4l10 -4l9 18l-2 6l4 16l20 37l19 33l6 14l12 17l4 12l-18 43l-39 82l-10 29l-9 6l-8 22l-22 50l-6 16l67 131l21 23l-2 14l14 35l8 12l6 18l-6 23l-47 111l-6 8v10l-6 18l-11 7l-10 22l-6 14l-14 29l-8 16l32 74l29 53l4 7l10 8l6 30l19 25l10 35v2l-55 117l-4 18 l-4 12l-7 7l-22 40l-10 7l-45 88zM205 1284l2 4l16 -6l29 -29l14 -24l13 -39l12 -41l2 -21l-2 -4l-19 6l-28 31l-15 29l-12 41zM213 537l2 34l4 21l12 39l13 18l32 35l11 8l6 -6v-22l-6 -25l-15 -37l-32 -53l-21 -19h-2zM217 311l2 8l10 -6l27 -20l10 -10l19 -47l12 -54 l2 -18l-2 -10l-16 6l-19 22l-18 25l-4 10l-17 55z" />
<glyph unicode="\" horiz-adv-x="628" d="M8 1473l4 8h8l39 -15l11 9h30l17 6l6 -19l4 -35l20 -114l9 -25l2 -6l43 -139l12 -47l2 -21l14 -33l19 -65l39 -121l10 -20l6 -50l39 -94l37 -129l14 -67l27 -60l39 -119l28 -86l19 -84l12 -12l103 -254l-5 -6l-45 10l-28 -4l-8 4l-15 -6h-12l-6 15l-2 6l-8 67l-13 49 l-4 7l-4 10l-16 49l-21 90l-41 121v8l-14 35l-31 96l-24 107l-37 75l-13 56l-47 153l-30 111l-13 18l-2 4l-37 115l-24 100l-6 7l-2 6l-29 69l-6 13l-2 18l-17 57l-4 13l-18 49l-27 70h-2z" />
<glyph unicode="]" horiz-adv-x="548" d="M2 1481l2 4l53 -4h23l8 -13l8 7h92l17 -2l2 -193l-8 -33v-20l4 -125v-166l2 -96l-4 -23l-4 -14l8 -86v-107l-2 -78v-55l4 -69v-64l-6 -53l2 -31l4 -31v-172l-2 -22l2 -31l4 -63l2 -72l-16 -4l-39 8l-8 6l-31 -6l-27 -8l-22 8l-25 -4l-33 -10l-4 16v25l-4 45v30h21l28 -6 l4 -4l9 -8l30 6l15 -4l20 4h12v2l7 60l4 98l-4 55v4v35v133v117l6 12l-11 64l5 12l-5 147l5 33l2 45l-2 25l-5 51l-2 51v58l7 57v72v41l-5 32l-2 146l-4 61v10l-14 2l-29 11l-43 -11l-49 -2v2zM229 1171l2 31l5 29l12 41l12 14l12 14l15 9h2l4 -2l-4 -33l-4 -27l-13 -33 l-2 -6l-10 -14l-14 -16l-10 -7h-7zM231 211v6l5 21l4 20l14 43l14 18l17 17l4 2l8 -2l-2 -35l-6 -18l-8 -29l-13 -18l-22 -19l-6 -6h-9zM231 686l5 23l20 -21l18 -26l11 -17l4 -29l6 -26l-2 -21h-2l-17 6l-14 17l-14 29l-10 41zM231 1468l7 7h65l2 4h6l17 -13l8 2l22 5l27 2 h16l31 4l12 -4l-6 -132l-4 -59l-6 -18v-4l6 -66v-182v-37l4 -59v-62l-8 -57l4 -41l4 -178l6 -43v-5l-6 -34l-4 -37l-2 -101v-47l-2 -2l8 -88v-71l2 -11l-6 -24v-17l4 -49l6 -41l2 -41l3 -51l2 -45v-10l-7 -4h-6l-24 4h-43l-29 2l-18 14l-5 2l-4 -12l-16 4l-35 -4l-16 4l-4 2 l-2 6l-2 51l41 62l24 35l4 24l8 19l25 41l39 94v4l-19 53l-8 19l-22 47l-13 20v6l-4 21l-4 2h-6l-24 57l-7 8l58 129l12 23l10 6l17 55l18 31l-12 27l-21 35l-18 32l-23 76l-34 66l-7 6v16l50 96l4 11l8 2l4 10l16 47l11 29l12 24v6l-37 66l-14 37l-23 35l-20 41l-29 36 l-6 11l-14 22v33zM240 78l6 33l14 36l12 35l13 19l26 28l6 2l11 -2l-4 -34l-9 -31l-12 -27l-18 -31l-19 -14zM240 1036l4 25l16 51l21 37l22 25l21 16h4v-29l-9 -41l-34 -55l-41 -35zM254 799v6l6 6l14 -2l29 -29l14 -18l11 -33l4 -24l4 -23l-4 -8l-10 2l-29 26l-12 13 l-15 30z" />
<glyph unicode="^" horiz-adv-x="688" d="M57 530v70l2 45l-2 115l2 119l4 12l74 -94l2 -11l60 -92l2 -12l-25 -43l-20 -39l-17 -10l-59 -88l-12 -10l-9 6zM205 334l2 698h8l61 -141v-12l17 -37l49 -94l61 114l48 105l22 59h10v-164l-2 -4l-4 -49l4 -94v-207l-4 -27l6 -55v-98l-6 -6l-20 38l-54 115l-18 55l-16 33 l-11 27l-16 26l-6 7l-37 -93l-12 -22l-66 -154l-4 -16zM266 317v5l8 6l19 -17l26 -26l21 -45l12 -60l2 -39v-4h-8l-20 17l-33 49l-12 37zM266 1032l8 43l13 55l22 44l25 22l14 16h10l4 -26l-10 -39l-12 -49l-14 -33l-29 -27l-23 -12zM319 442l5 17l24 -17l17 -16l24 -33 l19 -49l10 -49l-4 -39h-11l-20 16l-25 33l-22 39l-10 55zM324 934l6 39l24 53l15 23l22 22l17 10h6l4 -10l-6 -55l-21 -49l-22 -33l-33 -27l-10 4zM489 678l33 53l21 23l6 22l72 86h8l2 -184l-10 -45l8 -37v-115h-8l-84 125l-31 39z" />
<glyph unicode="_" horiz-adv-x="614" d="M0 -272h614v-220h-614v220z" />
<glyph unicode="`" horiz-adv-x="466" d="M82 1686l8 14l6 14l15 31l12 29l16 53l4 14l9 6h6l18 -41l27 -43l14 -16l37 -59l16 -37l13 -19l14 -12l25 -41l57 -100l6 -23v-8l-6 -4h-8l-146 119l-12 6l-14 28l-41 19l-37 31l-35 26z" />
<glyph unicode="a" d="M8 0l10 31l15 39l8 24l16 51l9 9l14 63l31 117l14 47l18 76l25 94l8 24l10 37l13 23l12 76l8 43l19 67l8 31l12 31l10 22v39l17 109l10 47l8 28h2l6 -8l4 -26l11 -43l8 -35l16 -80l10 -33l17 -67v-17l-10 -31l-11 -22l-4 -31l-18 -41l-6 -51l-31 -119l-10 -24l-25 -76 l-2 -33l-33 -143l-16 -58l-4 -47l-12 -53l-2 -24l-9 -54l-6 -12l-4 -4l-55 8h-62l-18 -6l-16 4zM276 377l5 6h43l41 -16l43 6h55l29 4l16 -6l-8 -31l-33 -82l-6 -6l-10 -27l-17 -28l-26 -82l-13 -27l-10 -4l-25 59v13l-10 16l-41 115l-24 55zM281 1354l2 12l41 -6h30l4 -6 l13 -56l14 -71l16 -72l2 -25l9 -16l4 -22l14 -56v-24l6 -17l25 -92l22 -112l17 -66l2 -33l16 -37l4 -28l35 -174l12 -41l6 -54l13 -39l4 -22l12 -47l27 -127l33 -125l-72 2l-4 6l-8 55l-15 84l-2 23l-14 59l-25 125l-12 43l-6 51l-4 37l-13 25l-28 131l-21 90l-6 41l-12 23 l-25 112l-10 47l-10 39l-4 25l-15 47v22l-10 37l-10 25l-10 35l-15 63l-16 62zM383 1352v10h82l29 -8l110 14l6 -4l4 -6l2 -31l5 -18l4 -37l18 -92l6 -39l19 -70l30 -160l11 -59l10 -18l31 -185l14 -31l2 -2l41 -196l12 -33l8 -31l7 -65l12 -31l8 -16l8 -37l49 -168l9 -35 v-6l-9 -6l-43 6l-47 2l-8 8l-25 -8l-55 2l-31 -4l-6 10l-6 27l19 53l26 62l2 12l11 20l14 39l26 72l-20 29l-47 47l-21 32l-18 11l-55 63l-4 6l32 176l13 33l4 62l-29 34l-49 45l-64 66l27 125v16l12 35l2 23l15 71l-33 31l-53 43l-25 29l-18 2l-49 33l-11 6l-4 6zM434 1212 l23 2l24 -8l39 -35l6 -10l23 -61l-2 -6h-21l-14 6l-39 28l-22 31l-11 21zM438 1094l21 -4l18 -9l27 -24l16 -29l6 -18l-2 -6l-12 -7l-18 -4l-19 19l-18 24l-17 35zM532 678v37l5 35l10 28l14 29l4 6h4l11 -37l-5 -35l-8 -47l-20 -47l-4 -4l-4 4zM575 582l3 53l4 29l16 41 l14 22l11 12l6 -6l2 -26l-6 -66l-9 -35l-10 -37l-14 -30l-6 -9l-4 15zM618 362l5 11h28l25 -15l29 -24l10 -17l12 -36v-13l-18 -2l-29 10l-27 25l-20 27l-4 8l-6 20zM623 238v10h32l17 -10l18 -19h2l13 -33l6 -18l-2 -8l-23 -6l-18 12l-15 10l-16 21z" />
<glyph unicode="b" horiz-adv-x="899" d="M74 1352l4 10l74 -2v-51v-84l-2 -17l-3 -37l-4 -104l-4 -20l4 -29l2 -176v-140l-4 -16v-18l4 -138v-180l2 -39l5 -26l-7 -49v-23l7 -41v-174l-25 2h-12l-23 -6h-4l-10 6l4 25l2 41l2 24l-2 53l4 95v49l-4 22l2 25l4 22l-4 164l2 74v39l2 26l-6 39l2 80l-2 4v37l6 60v16 l-8 35v108v76l4 64l-6 20l-4 145zM160 1063l8 65l2 13l8 22l25 31l14 16l6 2l2 -2v-18l-8 -47l-4 -23l-8 -18l-35 -41l-4 -4zM168 614v43l2 11h4l21 -25l10 -18l14 -31l6 -33v-20v-11h-8l-16 11l-2 6l-13 14l-10 19zM174 139l6 25l15 29l12 24l22 16l15 11l28 2l4 -6v-7 l-12 -34l-26 -37l-13 -12l-37 -17h-12zM174 254l6 39l13 18l20 23l10 6h15l4 -6l-11 -41l-18 -29l-23 -18l-14 -4zM180 8v31l4 14l17 15l65 65l27 41l18 29l11 12v6l-35 92l-13 15l-43 88l-20 35l-4 10l18 33l49 84l13 10l32 80l-26 61l-4 16l-19 19l-34 67l-15 31l-10 19 l18 41l29 45l33 53l28 72l5 16l-66 109l-29 36l-30 52l-17 14l2 31l2 10l7 4l24 -4l74 -2l76 8l20 -6l16 6l97 2l100 -2l18 -6l17 -8l33 -4l24 -15l41 -35l15 -14l45 -82l8 -26l2 -17v-22l6 -13l8 -55l2 -35l-2 -35l-12 -65v-12l-21 -45l-39 -64l-16 -18h-6l-21 -19l-12 -22 l-49 -33l68 -31l41 -22l14 -15l6 -2l14 -37l7 -10l20 -18l29 -86l14 -58l4 -30l2 -6l-4 -19v-72l-4 -41l-18 -69l-19 -47l-37 -68l-4 -2l-14 -25l-80 -49l-51 -18l-23 -4l-12 -4l-19 6l-26 -12l-8 2l-52 6l-67 14l-2 10l10 29l14 37l45 -8l25 2l31 20l22 4l6 2l11 13l6 16 l31 53l8 19l20 94l4 41l-2 59l-4 39l-10 84l-16 37l-23 47l-16 14l-13 11l-14 20l-27 17l-16 2h-61l-37 -7l-4 15l18 47l8 20l43 2l8 -2l17 4l8 7l27 12l20 18l21 23l14 29l14 18l2 39l6 24l11 70l-2 39l-9 74l-6 30v29l-16 31l-14 24l-29 37l-33 19l-35 24l-55 -10l-47 -6 l-2 -33l-4 -14l-2 -199l2 -49l-6 -18l10 -113l-2 -141l-2 -160l-8 -41l10 -82v-227l6 -80v-43l-2 -29l10 -49l-4 -6l-29 6l-32 -2l-17 6h-8l-16 -8l-103 6zM182 958l11 41l8 45l12 25l12 18l23 27l16 12h10l5 -10l-13 -47l-6 -20l-8 -27l-10 -21l-17 -22l-24 -21l-13 -6z M199 719v59l6 6l47 -59l14 -47l2 -12v-50h-8l-27 21l-14 22l-12 25l-4 16z" />
<glyph unicode="c" horiz-adv-x="833" d="M41 709v34l6 48l14 112l2 43l15 55l10 31l23 66l2 10l22 25l10 28l5 13l8 16l24 31l99 98l6 -8l6 -41v-35l-33 -18l-47 -62l-39 -55l-6 -35l-14 -23l-9 -22l-26 -107l-4 -49l-9 -35v-75l-4 -95v-49l11 -63l-4 -29l4 -24l-2 -23l10 -20l24 -101l21 -53l43 -80l10 -24 l35 -46l25 -24l2 -21v-75l-33 28l-68 76l-33 43l-10 51l-16 21l-25 71l-20 70l-21 107l-4 24l-2 37l2 27l-8 43zM125 678v4l4 31l10 41l25 32l14 15l12 4h7v-6l-2 -19l-7 -22l-14 -43l-22 -39l-13 -17l-8 -6l-4 4zM147 514l3 33l6 45l14 47l14 18l15 17l24 18l8 -2l-6 -45 l-12 -47l-16 -41l-25 -35l-16 -18h-6zM186 907v4l52 76l41 47l10 4l8 17l20 24l5 35l2 49v19l-7 32l2 95l-2 2l2 18l5 6l65 33l25 -6l41 22l16 5h35l10 4h45l12 -7l43 -6l33 -8l23 -18l24 -2l21 -6l47 -23l6 -6l2 -27l-4 -147l4 -51l-6 -37l8 -13l-2 -10l-2 -67v-39l-4 -13 l4 -10l-4 -12l-6 -6l-12 6l-31 96l-37 94l-6 41l-15 19l-28 59l-31 51l-8 23l-25 22l-4 7l-20 6l-8 8h-23l-37 -12l-35 -23l-26 -41l-11 -27l-10 -14l-2 -16l-20 -86l-13 -80l-6 -29l-8 -18v-47l-8 -54v-59l-4 -14l2 -121l-4 -47l-2 -17l2 -34l10 -80l6 -31v-45l6 -60 l15 -83l12 -41v-29l10 -25l25 -49l37 -61l2 -6l47 -23l6 -2l39 10l24 13l25 22l37 47l16 12l8 11l7 22l24 47l33 97l39 129l6 10l8 -6l6 -43l-4 -47v-21l-2 -72v-219l-2 -14l-43 -27l-29 -18l-39 -10h-12l-33 -4l-28 -17l-39 -4l-41 -6h-35l-31 8h-24l-23 12l-22 9l-58 24 l-4 6v70l8 162l-47 78l-22 47l-17 8l-41 70v8l11 20l35 90l30 76l-4 23l-24 90v10l-15 37l-6 2l-10 29zM193 1022v8l18 53l20 39l29 23l19 6l2 2l18 -6l-6 -21l-8 -22l-25 -39l-33 -31l-24 -16zM205 332l4 10l18 -12l21 -29l14 -31l10 -22l4 -25v-33l-4 -4l-14 9l-10 10 l-21 35l-14 36l-4 29z" />
<glyph unicode="d" horiz-adv-x="919" d="M74 1352l6 12l67 -4l5 -12l-7 -230v-125l2 -28l-4 -17l2 -37l-2 -53l2 -149l-2 -23l2 -24l-2 -13l2 -139l2 -8l-4 -23l2 -112l5 -121v-92l-5 -23l5 -45l4 -86l-2 -8h-13l-22 2l-35 -4l-4 6l10 182v107l4 41l-2 30l-4 29l2 209v145l4 33l-6 41l2 78l-4 174l2 68l-4 16 l-6 121zM166 236l4 24l14 45l9 12l24 23l21 4l6 -4v-2l-2 -27l-23 -41l-12 -14l-25 -16l-10 -7zM166 657v21l4 2l8 -2l23 -31l12 -29l8 -47l-2 -36l-6 -5l-27 31l-10 25l-6 28zM168 1087l2 48l6 24l12 29l15 16l18 13h4l4 -7l-6 -36l-6 -29l-14 -35l-29 -39zM182 127l13 35 l2 8l8 23l10 12l14 12l21 16h16l2 -8l-10 -35l-8 -20l-12 -18l-23 -23l-14 -8h-15zM182 1356l2 8l76 -2l47 6h23l10 -8l111 6l38 -4h39l52 -6l49 -19l24 -20l17 -25l32 -24l31 -37l35 -60l18 -28l9 -2l6 -19l30 -104l31 -121l2 -23v-34l13 -68l4 -117l-7 -125l-6 -41 l-12 -49l-2 -4v-41l-14 -53l-17 -47l-28 -78l-19 -29l-24 -41l-13 -4l-24 -47l-29 -28l-6 -11l-55 -43l-21 -10l-47 -20l-14 6l-27 -6l-12 -2l-10 2l-15 -4l-24 4l-17 6l-8 2l-8 6v12l16 45l2 6l11 2l8 -2h28l25 11l33 28l24 41l19 52l22 94l21 137l6 25v26l-2 78l4 53 l-2 31l2 22v25l4 29l-2 67l-4 60l-2 94l-4 22v41l-2 7l-8 2l-9 59l-22 72l-8 16l-9 35l-28 43l-21 18l-16 13l-23 8h-14l-35 24l-12 -6h-39v-4l-6 -90v-84l-2 -92l-2 -47l-4 -31l6 -166l-4 -112v-76l-2 -31l6 -76v-90l-4 -57l8 -266v-74l-2 -4h-49l-2 -4l-19 4l-33 12 l-51 -2l-22 -2l-10 2l-5 10l5 31l67 92l14 8l23 35l25 39l-11 25l-12 22l-45 109l-29 49l-10 35l45 84l16 32l17 23l16 31l10 36v11l-16 28l-16 31l-41 80l-27 47l-8 16v9l18 34l23 46l27 28l4 31l26 53l10 23l3 10l-5 2l-14 37l-18 24l-6 17l-39 61l-56 76zM186 956l2 25 l17 66l18 32l13 13l24 18l8 4h4l2 -4l-12 -43l-20 -57l-17 -25l-28 -29l-9 -4zM193 784l2 9l22 -15l29 -41l8 -14l14 -47l2 -17l2 -30l-6 -4l-4 4l-24 18l-21 33l-14 39l-8 33z" />
<glyph unicode="e" horiz-adv-x="800" d="M74 1360l2 6h26l19 -2h31l4 -6v-12l-4 -17l2 -53l-2 -100l-9 -160l7 -21v-71l2 -15l-2 -18l-5 -47v-53v-78v-31l5 -31l-3 -14l3 -234v-32v-45l2 -21v-37l-2 -37l6 -235l-2 -2l-62 -2l-10 4v2l4 104v78l4 103v26l-2 84l4 43l-2 131l6 60l-6 73l-2 80l-2 4l4 50v53l-6 63 l4 47l2 13l-8 71l2 66l-2 35v37l4 26l-4 21v12l-4 57zM164 1098l4 35l4 28l10 23l15 24l10 17l12 2l6 -13l-4 -34l-4 -25l-10 -22l-19 -25l-14 -12h-6zM168 645l2 33l8 -4l17 -15l18 -32l16 -58l7 -26v-4l-11 -7l-12 3l-14 20l-17 25l-10 24zM172 227l2 21l10 31l15 24 l28 29l9 4h12l2 -12l-6 -29l-11 -25l-14 -20l-18 -19l-15 -6h-12zM182 129l11 31l22 37l18 22l35 21l6 2l2 -2v-13l-4 -20l-4 -19l-22 -36l-21 -23l-18 -6l-14 -4l-7 2zM184 1343l2 15l9 4l67 -2l96 2l11 -6l41 6h59l37 4l18 -6h27l61 4l4 -2l19 2l78 2l8 -6v-17v-43l2 -124 l2 -11l-6 -12l4 -49l2 -19v-75l2 -78l-8 -14h-6l-8 14l-7 31l-18 47l-45 110l-8 13l-4 22l-41 53l-39 37l-37 21l-29 6l-18 10l-45 2l-31 -4l-2 -94l-2 -148l-6 -28l4 -25l2 -166l-2 -100v-88l-8 -72l6 -31l4 -49l-2 -123l2 -63l-4 -68l4 -16l8 -103l4 -16l17 -2h51l20 -12 l35 22l43 23l27 24l65 99l23 41l14 20l4 25l35 84l10 16l6 -2l2 -10v-23l-2 -71l-6 -84v-37l-6 -23v-100v-76l-12 -8l-17 4l-45 4l-73 -2l-27 6l-25 -6h-186l-33 -6l-84 2l-28 -8l-6 10l2 25v12l12 16l35 45l18 25l12 16l19 23l24 43l7 16l-43 103l-13 34l-12 13l-39 80v4 l8 8l4 14l27 49l22 52l43 69l7 6v6l-70 144l-37 71l-2 9l2 6l19 33l24 53l10 18l13 19l14 45l23 49l-62 119l-12 10l-43 63l-17 17zM193 965l2 26l6 45l10 25l16 29l15 12l30 22l9 -8l-7 -29l-14 -40l-16 -37l-21 -29l-22 -20zM197 748v28l2 4l18 -4l14 -14l21 -39l14 -39 l8 -45v-12l-2 -2l-6 2l-26 22l-21 25l-8 14l-10 35zM397 713l4 10l29 31l33 28l24 17l76 90l12 12h11l2 -10v-41l-6 -49l4 -64l-4 -61l4 -160l-6 -6l-52 61l-14 9l-18 22l-7 19l-14 6l-61 59l-4 2z" />
<glyph unicode="f" horiz-adv-x="749" d="M74 6v33l6 113l-2 26l4 23l-2 88v170l4 18v21l-4 57v129l4 53l4 8l-10 35l6 113v78l-2 47l8 22l-6 35v66l-2 41v100l-4 53v27l16 4h53l9 -10l-6 -27l-3 -53l-4 -39l-2 -8l2 -39l7 -31l-5 -47l-2 -70l2 -32l-2 -15l-2 -90v-59l-2 -2l2 -27l4 -31l-2 -30l-4 -195l4 -76v-49 l-2 -84v-73l4 -27l-2 -23l4 -225l-4 -4h-63zM164 657l2 17l4 4l12 -16l19 -31l14 -29l4 -41l4 -37l-4 -4l-18 12l-21 35l-10 35l-4 25zM168 246l2 20l6 25l6 14l13 14l20 13l25 4l4 -12l-25 -52l-16 -14l-23 -16h-10zM168 1096v39l8 36l19 29l22 12h8l4 -4l-4 -26h-2l-6 -33 l-6 -14l-12 -17l-17 -18l-12 -6zM176 35l6 10l33 29l47 65l25 25l22 41l6 8l-24 70l-15 24l-10 23l-18 30l-39 89l-4 10l31 49l38 65l13 7l22 45l17 30l-31 66l-27 49l-6 27l-20 24l-17 37l-12 33l6 18l29 47l20 48l23 32l24 60l4 20l-79 133l-50 64l-8 8l-2 16v25l64 -2 l43 -4l28 2l88 4l11 -2h69l19 -2l18 6l41 -2h82l12 -8l19 10h35l4 -2l6 -21v-65l-2 -14v-39l-4 -41l4 -133l-2 -58l2 -37l-4 -18l-8 -12h-7l-2 2l-8 28l-20 66l-31 72l-12 22l-9 31l-16 10l-68 90l-47 37l-28 4l-23 12l-51 -16l-4 -41v-135l-2 -135l-8 -29l4 -33v-118l2 -11 v-137l-6 -104l6 -74l-2 -158v-61l-6 -17l8 -53l4 -190v-4l-19 4l-53 2l-16 10h-103l-8 12zM176 139l17 54l10 20l22 23l31 10h12l8 -4v-2l-14 -41l-22 -39l-17 -19l-28 -14h-15zM188 993l7 31l20 53l8 17l17 24l20 17l12 2h9l-2 -13l-7 -34l-12 -33l-12 -27l-33 -31l-12 -6 l-13 -4zM190 762l5 31v4h4l20 -21l14 -24l11 -19l10 -41l8 -49v-22l-4 -3l-22 15l-23 35l-14 47zM401 664l2 16l15 18l53 54h4l92 100h2l6 -8v-68l-6 -39l2 -92l2 -100v-62l-6 -10l-12 10l-23 29l-20 20l-41 54l-14 24l-17 11z" />
<glyph unicode="g" horiz-adv-x="864" d="M41 659v50l6 84v53l16 72l9 75l6 25l47 129l14 16l21 41l28 39l19 23l18 12l11 16l45 41h6l2 -4l-4 -88l-35 -31l-43 -67l-4 -8l-15 -9l-8 -12l2 -12l-18 -39l-25 -43l-28 -143l-9 -64l-2 -29l-4 -28v-49l4 -2l-4 -68v-49l8 -43l5 -68l4 -18l12 -41l14 -53l37 -109 l19 -31l18 -26l6 -19l10 -14l7 -10l20 -19l29 -22v-78l-6 -10l-15 6h-4l-12 20l-55 60l-17 14l-20 57l-4 7l-13 6l-8 16l-29 61l-6 23v2l-20 66l-19 88l-6 34l6 23l-12 78zM125 653l2 43l12 47l13 29l12 19v2l18 12l13 4l2 -4l-4 -47l-15 -43l-6 -17l-12 -20l-17 -19l-4 -6 l-10 -10zM154 580l10 47l16 26l25 27l10 4h8l-4 -41l-12 -53l-8 -19l-17 -24l-22 -17l-4 2zM182 911l29 39l74 68l28 47l2 16v70l4 37l-4 22l2 109l5 24l94 41h18l58 13h34l15 -8l34 2l50 -13h10l18 -6h13l24 -24h25l37 -13l22 -22l4 -19l-2 -65l-2 -84l-8 -62l6 -20 l-4 -191l-8 -8l-6 8l-39 127l-47 136l-27 41l-10 24l-13 35l-20 25l-29 30l-39 23h-12l-10 6l-14 -12h-17l-12 -4l-21 -13l-18 -14l-10 -16l-25 -54l-24 -94l-7 -12l2 -17v-36l-6 -9l-4 -34l-10 -117l-12 -180l-2 -27l-4 -84l10 -66v-34l2 -56l12 -141l23 -84l6 -29l18 -57 l25 -41l14 -18h4l19 -19l18 -12l14 -6l9 2l20 12l33 14l29 37l6 19l16 65l4 54v40l-2 35l4 35l-2 41l-6 47l-2 15l-25 57l-10 12l-53 94l4 9l10 4h37l23 -7l14 3l14 -7h15l20 -8l19 6h53l14 9h17l51 -3l4 -4l2 -18l-10 -166l-4 -43l4 -51l4 -35v-162l4 -112l-2 -13l-8 -6 l-23 21l-67 6l-31 -12l-12 -3l-11 3l-20 -13l-27 -22l-10 -6l-78 -21l-47 -4l-10 4l-13 -6l-16 2l-27 12l-57 19l-22 14l-11 14l-2 47l4 48l-2 28l2 35l2 72l-18 28l-14 45l-23 21l-33 41l-28 49l-15 29l7 12l32 84l31 47l18 57l-12 37l-12 35l-2 21l-17 26l-26 60z M193 1022v2l14 53l16 29l15 18l36 21h19v-8l-8 -31l-17 -29l-22 -26l-45 -33zM199 340l2 8l20 -14l15 -10l20 -37l4 -17l12 -41l2 -24l-2 -17l-34 33l-7 12l-12 21l-12 29l-4 34z" />
<glyph unicode="h" horiz-adv-x="993" d="M74 1346v24l71 -4l5 -6l-3 -12v-129l-4 -78l-2 -21l-2 -18l6 -62l5 -77l-9 -283l-2 -6l6 -47v-49l2 -54v-51l-2 -59v-97l2 -92l-4 -71l9 -25l6 -125l-2 -4l-39 -4l-41 -2l6 49l-4 25l4 73l2 172l4 15l-2 16l-2 25l-2 94l2 53l6 43l-6 35v70l-2 22l2 12v80l4 23v28l-6 37 l2 84v152l-4 65l2 60l-2 24l2 23l-4 24v25zM168 649l2 15l4 4l16 -9l25 -51l10 -26l4 -27v-8v-4h-18l-18 18l-7 12l-10 23zM168 1077v47l4 25l10 33l8 18l13 17l18 6l2 -19l-2 -39l-8 -30l-29 -54l-10 -10zM172 248l8 31l6 22l17 23l14 10l14 2l15 -2l2 -6v-6l-10 -25 l-19 -33l-24 -18l-19 -6zM180 1319v41l2 10h21l59 -2l12 -6l19 6l65 4l4 2h21v-12v-27v-22l-8 -99l-2 -6v-20l4 -53l-4 -35l2 -238l-4 -28l-4 -17l4 -65l2 -68l2 -145v-66l-4 -43l2 -29l4 -18l-4 -70l2 -59l8 -96v-92l4 -62v-12h-4l-21 2h-49l-20 8l-31 -2l-24 4h-39l-6 6 l-5 23l5 12l57 82l16 16l8 2l31 58l17 22v6l-43 95l-7 14h-4l-8 16l-35 68l-8 18l-2 11l12 18l45 98l54 88l-23 48l-31 71l-2 6l-20 19l-27 53l-16 31l8 14l8 10l21 35l24 60l19 26l26 62l6 16l-16 31l-53 78l-21 40l-28 41zM188 133l5 29l2 6l16 43l22 25l23 14h18l7 -10 l-7 -21l-16 -35l-22 -34l-21 -17l-20 -6h-5zM193 979l2 25l6 34l12 25l14 29l19 16l20 12h2l-2 -45l-4 -20l-10 -27l-19 -29l-32 -41l-4 7zM197 760l2 12l18 -10l16 -14l25 -48l8 -24l6 -33v-14l-22 6l-21 18l-10 15l-10 24l-10 29zM387 737l4 8h33l41 -14h14l13 10l22 -6 l84 10l6 -8l2 -18l-63 -168l-25 -78l-8 -16l-4 -19l-12 2l-13 35l-22 62l-17 57l-8 8l-45 123zM606 1300v62l4 8l70 -4l2 -2l-4 -84l4 -164l-4 -201l-4 -26l6 -23l-4 -125l4 -266l-4 -41l8 -47l-4 -10l4 -84l6 -125v-107l2 -30v-25l-4 -4l-74 -4l4 43l5 166v59l2 41v29 l-2 129l2 149l4 29l-4 16l-7 56v131v145l5 74l-7 16l-2 31v70l-2 94zM700 1069l7 53l4 27l10 18l20 29l9 6h4l4 -4l-4 -33l-6 -39l-13 -28l-18 -21l-12 -14zM702 659l5 17l20 -23l12 -20l13 -35l6 -37l-4 -20l-2 -2l-19 8l-10 18l-12 29l-6 31zM709 240v6l8 35l12 22l16 19 l15 10h16l8 -8v-7l-10 -22l-16 -29l-17 -12l-24 -16l-4 -5zM713 1368h69l23 -8l14 2l33 4l61 -2l2 -6l-4 -117l-2 -96v-109l-4 -16l2 -51v-56l4 -106l-6 -70l4 -24v-54l2 -149l-6 -39l4 -53l-2 -62v-77l4 -58l4 -16l-8 -27v-33l13 -155l-2 -4l-25 10l-70 4l-16 6l-47 -2 l-27 -2l-10 4l-2 21l2 16l29 33l14 2l10 16l12 25l23 33l41 71l-18 43l-21 39l-4 14l-21 35l-38 97l14 38l14 33l23 51l41 64l6 16l-4 15l-25 71l-12 13l-39 77l-23 37l-2 13l19 39l39 75l8 2l41 92v11l-35 57l-18 27l-17 37l-4 12l-49 59l-12 13zM721 131l2 12l18 58l19 28 l22 15l27 10l4 -6l-12 -49l-10 -21l-19 -24l-18 -17l-21 -6h-12zM723 961v30l12 41l15 35l14 18l18 23l17 6l2 -2l-2 -25l-4 -22l-13 -37l-16 -35l-10 -16l-29 -33zM729 764v12l4 6h6l15 -18l14 -12l10 -17l10 -26l7 -13l4 -20l2 -37l-2 -12l-4 -4l-19 12l-22 29l-19 43z " />
<glyph unicode="i" horiz-adv-x="462" d="M74 1362l4 2l67 -2l7 -6l-9 -254l-2 -29l-4 -24l6 -138v-163l-2 -3l-2 -28l4 -6l4 -17l-4 -71v-172l4 -76l-4 -31l2 -18l7 -17v-143l-5 -19l5 -28l6 -119l-2 -10l-78 4l-2 2l4 53l4 86v53l4 60v121l-4 22l-2 94l6 43l6 4l-4 43l-6 52l4 47l-6 102l6 64v26l-4 15v202v72 l-8 31l4 65l-4 68v33zM164 1100l2 24l14 47l10 19l11 8l22 10l-4 -28l-8 -37l-6 -17l-17 -26l-6 -10l-12 -11l-4 6zM168 645l6 6l21 -16l14 -31l4 -10l14 -62v-4l-4 -6l-28 19l-13 22l-12 35zM172 225l2 23l6 31l15 30l14 10l24 7l5 4l4 -8l-17 -46l-20 -38l-12 -13l-13 -2 l-4 -4zM176 1321v35l4 8h56l20 -6l31 6h92v-14l-2 -82l-6 -23v-172l2 -86l4 -117l-8 -28l6 -135l4 -127v-72l-4 -29l2 -41l-6 -22l8 -84l4 -31l-4 -57l4 -68l-6 -26v-56l12 -100l-4 -6l-98 8l-8 8l-56 -4l-22 -6l-8 6l2 47l57 78l14 6l49 88l-28 70l-13 14l-18 57l-4 9 l-8 10l-17 37l-14 39l43 77l47 82l14 33l-24 53l-21 45l-6 7l-12 12l-43 102l16 41l39 88l17 19l8 12l24 64l-32 65l-31 47l-14 37l-19 10zM184 125l9 29l12 36l14 23l17 18l12 7h18l6 -7l-10 -30l-22 -45l-31 -33l-16 -6zM188 965v18l11 47l12 41l12 19l13 16l22 14l4 6 l4 -8l-4 -39l-4 -32l-14 -39l-19 -25l-30 -22zM195 748v12l4 4l6 4l14 -10l8 -13l21 -28l18 -53l2 -35l-2 -13l-10 -2l-12 13l-21 26l-10 27l-12 37z" />
<glyph unicode="j" horiz-adv-x="462" d="M-90 -139l49 2l23 12h14l10 16l53 72l4 19l15 45l16 104v55l2 13l8 10v29l-4 30v250l-2 72l2 47l2 22l-2 56v53l-2 176v78l8 22l-10 62l-6 98v109l-2 16l-4 35l6 2l62 -2l6 -2l2 -23l-4 -77l-4 -158l-2 -12l2 -48l4 -83l4 -144l-10 -22l2 -25l-2 -41l6 -31v-22v-51 l2 -109v-41l-6 -29l6 -40v-91l-2 -18v-94l-13 -144l-12 -67l-18 -66l-13 -30l-16 -13l-14 -35l-37 -47l-68 -55h-6l-18 41l-13 35l-18 33v6zM100 -186l37 92l6 6l9 25l6 30l6 15l22 24l62 82l12 4l12 29l21 37l18 28l17 31l-19 45l-12 14l-6 35l-21 35l-18 27l-23 63l-2 15 l37 88l51 79l15 29l-19 55l-32 48l-15 30l-45 88l43 101l10 16l21 19l12 34l25 49l-27 60l-18 18l-13 23l-2 6l-10 16l-10 19l-37 57l-16 12l-13 23l2 41l4 6l11 4l22 -4l64 -4l14 -4l23 4h55l10 -8l-2 -35l-4 -35l-4 -131v-76l2 -24l-4 -103v-39l8 -88l-4 -53l2 -6l-6 -219 l-6 -31l6 -49l2 -53l2 -11l-2 -96l4 -26l-8 -134l-10 -32l-5 -31l-6 -25l-30 -73l-15 -19l-18 -28l-6 -11l-25 -30l-16 -17l-25 -16l-14 -2l-23 -27h-18l-6 -2l-39 -22l-15 -5zM176 633l4 35l10 -4l11 -17l18 -33l10 -24l2 -27l2 -37l-8 -10l-18 12l-14 33l-11 37zM178 1106 l2 31l13 30l14 23l20 16l4 2l5 -6l-5 -26l-10 -39l-10 -25l-16 -22l-11 -13l-4 6zM180 236l2 20l13 35l10 18l31 17h8l8 -7l-8 -30l-21 -39l-18 -19l-19 -12v2zM199 125v12l8 27l14 41l2 2l13 16l14 13h24l2 -7l-8 -28l-10 -25l-18 -35l-19 -16l-6 -2h-12zM205 952v41l8 56 l14 26l23 31l24 12l5 -2l-7 -39l-16 -61l-14 -29l-25 -33l-10 -2h-2zM209 733v29h8l21 -23l16 -24l12 -29l10 -43v-29h-12l-16 13l-15 24l-10 23z" />
<glyph unicode="k" horiz-adv-x="954" d="M74 1364l67 -2l11 2l4 -12l-13 -138v-90v-65l-6 -29l6 -112l2 -74l-2 -109v-12l2 -51l-2 -78v-53l7 -56v-57l-7 -31l4 -30l3 -9l-3 -71l3 -68l2 -86v-8l2 -53v-45l4 -27l-6 -10l-43 2l-25 -2l-4 2l2 53l2 96l10 29v29l-4 67l-2 221l2 15l-8 106l6 238l-10 82l4 24v54 l-2 73l-2 25l4 37l2 35l-4 30l4 35l-8 39zM164 1102l4 33l8 28l17 29l26 16h4l-4 -37l-8 -36l-8 -25l-17 -25l-10 -12l-6 -4l-4 6zM166 643l4 12h6l19 -22l14 -21l8 -26l4 -31v-25l-2 -14l-10 4l-4 6l-15 23l-12 33l-8 30zM170 244l4 30l6 23l10 20l15 13l6 6l14 2h17v-12 l-13 -29l-20 -39l-31 -22zM182 1319v39l4 12l41 -2h17l8 -4l24 6h39l64 -2l4 -4v-47l-4 -17l-2 -124l-6 -78l-4 -6l8 -31l-2 -66v-110l-6 -19l4 -41v-94v-90v-41l2 -102l-4 -6l4 -46l6 -112v-17l-6 -36v-41l6 -31l-2 -72l6 -51v-43l2 -35l-2 -16l-86 4l-25 -4l-14 4l-27 -8 l-24 4l-12 -6l-9 4l2 37l5 12l34 55l31 37l2 6l12 8l13 7l18 43l14 24l-26 57l-23 58l-12 16l-43 99l16 26l43 94l43 62l11 18l-29 60l-18 39l-11 28l-8 6l-37 64l-12 18l2 19l27 53l30 53l6 21l48 86l-2 10l-35 51l-33 41l-33 64l-18 22zM184 135l6 33l7 20l22 37l23 13v4 l24 -4v-11l-18 -47l-6 -14l-17 -25l-24 -14l-11 -4zM193 778l4 2l32 -32l13 -25l18 -51l2 -27v-16h-14l-19 10l-12 18l-16 41l-6 27zM193 958l2 39l6 43l10 29l25 33l26 12l4 -4l-2 -18l-12 -56l-8 -28l-25 -37l-22 -15zM391 635l2 12l51 62l19 24l24 15l7 20l34 57l23 49 l18 33l25 54l14 14l6 16v25l23 65l10 68l2 41l6 31v53l-4 20l-2 43v23l4 8l92 -6l11 -6l57 12l74 4l39 -2l6 -16l-29 -51l-47 -66l-22 -12l-15 -25l-51 -88l-37 -55l-35 -66l-24 -39v-6l-10 -16l-27 -43l-8 -21l-2 -8l-19 -20l-20 -43l12 -41l29 -68l4 -8l4 -10l2 -25 l20 -29l11 -22l14 -33l31 -63l45 -113l30 -57l48 -93l10 -40l18 -39l19 -25l12 -20l12 -31l23 -39l12 -23l6 -14l-2 -14l-10 -4l-117 8l-43 -2l-12 10l-49 -10h-17l-6 -4l-12 8l-49 127v6l-10 37l-27 61l-64 148l-14 47l-4 10h-6l-31 64l-37 73l-6 11l-26 30z" />
<glyph unicode="l" horiz-adv-x="757" d="M74 1356l4 10h16l56 -8l2 -2l-2 -41v-25l-7 -82v-34l2 -13l-2 -18v-137l-10 -48v-22l8 -47v-295l-8 -59l10 -74l2 -254l-8 -66l10 -41l5 -24v-53l-2 -7v-12l-5 -4h-39l-24 -6l-6 10l2 19l6 233l-2 12l6 39l-2 15v151l2 88l-2 68l-4 22l6 60l-2 43l-2 69v172l4 72l-6 23 v118l-4 82v25zM162 238v16l6 25l6 10l14 30l15 13l16 6h17l4 -2l-7 -27l-14 -26l-16 -23l-29 -22h-12zM164 633v20l2 15l4 6l16 -17l27 -43l6 -22l6 -41l-2 -12l-28 18l-19 25l-8 26zM164 1112l2 35l2 2l6 25l16 22l25 18l4 5l4 -7v-32l-8 -33l-6 -17l-10 -16l-29 -24l-2 6z M180 147l13 43l6 13l10 16l24 17l29 8l6 -2l2 -6l-12 -33l-29 -43l-20 -13l-19 -6l-6 -4zM180 1315v41l4 2l56 -6l8 -9l18 9h21l24 6l6 4l7 -4l49 8l6 -4l4 -10l-6 -172l-10 -80l6 -53v-23l-2 -207l-2 -37l2 -170l-9 -24l5 -47v-164l-5 -2l3 -47l4 -31v-139l4 -56l6 -18 l33 -4l39 4l10 -6h4l70 37l26 18l21 25l4 6h12v8l12 33l13 16l14 25l6 28l29 43l30 74l19 37l2 2l6 -2l4 -10v-78l-2 -35l-8 -24v-84l-2 -107v-45l-4 -37l-2 -10l-19 -2l-67 2l-17 -2l-12 6h-135l-8 6h-13l-28 -6h-19l-32 6l-35 -6h-107l-24 -4h-11l-4 8l2 45l7 4l2 6l28 31 l13 21l12 6l20 39l31 45l12 22l4 8l-12 25l-27 66l-16 16l-2 4l-8 31l-37 84l47 84l10 10l15 35l32 67l2 4l-26 60l-33 53l-4 4l-45 115l39 90l12 10l17 41l32 64l-61 127l-12 10l-43 67zM195 739v35l4 6h2l28 -32l15 -25l14 -43l4 -41l-8 -10l-6 4l-25 20l-16 39zM195 977 v41l12 47l12 31l14 12l25 12h8l4 -12l-8 -53l-12 -23l-39 -53l-12 -6z" />
<glyph unicode="m" horiz-adv-x="1126" d="M74 1348v16h4l59 -6l15 4l10 -23l45 -159l-2 -21l16 -45l25 -78l37 -114l10 -43l4 -35l12 -25l19 -71l34 -103l7 -41l16 -31l23 -69l20 -74l21 -72l14 -63l12 -49v-13l31 -77l10 -39l8 -21l-8 -22l-8 -29l-2 -10l-10 -27l-11 -16h-8l-20 71l-31 127l-14 52l-2 34l-25 64 l-12 45l-37 131l-8 33l-2 22l-25 66l-10 29l-17 59l-12 33l-24 88v18l-23 47l-39 121l-18 53l-37 123l-10 49l-23 54zM78 -2l4 25l8 86v47v47l6 18l-2 203l2 12v154l2 24l-4 68l2 74l-2 112v25l-4 115v125l4 24l6 12l11 -24l20 -60l21 -65v-31l16 -35l51 -155l6 -23l-4 -24 l-2 -72v-16v-74l-2 -33l-2 -41l6 -45l4 -14l-2 -25l2 -254l-4 -14l8 -51l9 -101l4 -14l-4 -12l-15 2l-16 6h-55l-31 -4l-39 -4zM184 1362l47 -2l56 4l12 -6l31 6h45l43 2l4 -4l12 -62l19 -71v-21l16 -59l39 -150l6 -65l12 -8l76 -279l10 -24l19 -68l6 -27l-4 -8l-19 -53 l-8 -29l-6 -47l-10 -4l-10 16l-35 15l-8 16l-23 31l-18 18l-15 9v26l4 21l7 53l8 10l-2 47l10 113l-25 31l-49 36l-33 37l-28 25l-13 10l15 113l10 22l4 6l-2 23l8 96l4 25l-18 12l-88 55l-19 17l-16 -4l-27 18l-24 2l-8 23l-13 47zM242 1196l4 6l33 -4l32 -12l31 -41 l10 -19l-4 -16l-4 -2l-25 -4l-22 8l-33 37l-16 33zM262 1075v2l6 6l21 -2l12 -6l29 -24l8 -17l10 -20l-2 -10l-6 -3l-21 -4l-12 7l-16 14l-19 26zM373 692v37v19l10 45l14 20l9 4l4 -6l4 -18v-64l-8 -41l-11 -37l-4 -6l-8 -4l-6 23zM422 641l4 35l8 22l35 52l4 -5l4 -8v-32 l-6 -54l-8 -41l-12 -41l-11 -14l-4 -6h-4l-6 49zM467 426v4l4 2l29 -4l14 -12l23 -29l16 -31l8 -22v-6l-6 -4h-27l-14 6l-12 10l-21 37l-12 37zM475 301l12 6h13l20 -18l23 -33l6 -12l6 -23l-4 -10h-12l-9 -2l-18 8l-16 29l-15 24zM578 842l26 76l27 75l10 13l6 22l6 53 l19 66l49 221l92 -8l-6 -191l-4 -2v-12l4 -65l6 -254l-6 -37l6 -45v-29v-121l2 -45l2 -125l-6 -49l4 -35v-88v-41l-2 -41l2 -33l2 -112l2 -33l-2 -6l-29 4l-28 -2l-6 -2l-4 2l2 10v41l2 90v107l6 18l-6 41l4 25l-6 176v76l2 24l-2 49l2 136l6 40l-8 31l-4 76l-19 -57 l-20 -56l-23 -57l4 -23l-22 -83l-13 -54l-4 2l-12 25l-14 51l-13 55l-18 41zM831 244l3 39l8 20l10 27l25 20l22 4l8 -2l2 -10l-22 -59l-10 -17l-21 -18l-22 -12zM831 647v27h7l26 -25l13 -20l10 -21l6 -30l4 -33v-8l-25 6l-14 8l-8 22l-12 37l-4 19zM831 1096v16l5 33l8 26 l18 35l21 19l10 -2v-15l-6 -47l-6 -14l-25 -41l-20 -16zM840 1325l2 18l4 23l59 -4l25 2l6 -2l33 2l67 2l6 -6l2 -10l-2 -88v-52l-4 -20l4 -289l-8 -35l4 -43v-30l-2 -45l4 -121l7 -58l-9 -61l-2 -33l2 -35l9 -55v-143l-5 -35l7 -70l6 -125l-6 -12l-58 2l-10 10l-43 -10 l-82 -2l-4 12v29l2 6l25 29l39 57l12 6l51 78l-14 70l-23 30l-14 25l-4 25l-13 20l-30 68l16 28l33 82l12 17l17 24l26 53v7l-6 16l-39 84l-4 18l-12 13l-8 14l-19 41l-20 35l34 71l11 13l6 4l18 41l25 51l14 35l-24 33l-56 90l-10 24l-35 54zM846 141l4 13l18 51l11 14 l26 27l21 6l12 -4l2 -6l-2 -6l-18 -48l-25 -34l-27 -19l-16 -4zM852 967v28l14 54l8 18l21 35l29 22l8 -2l2 -12l-4 -12l-10 -39l-11 -25l-14 -28l-12 -19l-21 -22l-8 -4zM862 768v20l15 -8l30 -28l21 -39l14 -41l2 -35l-12 -4l-33 29l-14 18l-8 22l-13 39z" />
<glyph unicode="n" horiz-adv-x="892" d="M74 6l8 96v35l6 37l-4 25v28v41l4 43v51l4 23l-4 53v86l6 94l-6 41v148l6 123l-6 26v201l2 33l-2 24l-4 121l-4 23l2 10h16l33 -88l53 -125l6 -27l5 -20l41 -94l67 -183l21 -65l30 -49l41 -101l35 -92l12 -37l17 -24l59 -166l14 -12l15 -64l24 -47l4 -2l23 -51l27 -55 l37 -66l-5 -6l-43 2l-8 6l-20 -6h-17l-12 12l-22 72l-25 59l-6 33l-47 109l-72 178l-8 33l-12 18l-19 61l-6 23l-18 24l-11 29l-24 43l-39 107l-6 20l-29 47l-2 -82v-135l-6 -22l4 -68l4 -47l2 -53l-4 -58l-2 -18l8 -119l-2 -53v-84l10 -135l-69 6l-11 10l-18 -6l-21 -6h-26 zM137 1358l2 6l6 4l11 2h47l24 -2l17 -6l4 -4l35 10h92l22 -51l29 -82l8 -39l23 -45l14 -53l55 -127l6 -27l3 -14l26 -51l53 -136l35 -77l13 -25l10 -18l6 -31l20 -47l19 -47l18 -29l25 -70l28 -55l21 -35v-125l-2 -12l2 -57v-60v-35v-12l4 -8l-8 -6l-64 2l-6 96l2 64 l-14 57l-2 49l-6 90l-23 17l-47 24l-16 19h-23l-67 28l-4 6l2 11l-2 73l-3 70v25l11 69l2 64l-27 20l-20 17l-15 6l-28 2l-21 20l-26 2l-41 29l4 100l-2 7l8 22l-2 8l2 25l8 145l-41 41l-37 15l-45 28l-10 19h-8l-4 -9l-15 9l-45 22l-12 12l-12 17l-13 33zM223 1161l6 6 l23 7l43 -17l20 -18l19 -25l6 -18l-4 -6l-21 -11l-32 4l-21 13l-24 30zM256 1022l2 8l18 6h21l18 -6l25 -20l12 -37l-12 -6l-25 -4l-24 10l-19 22l-14 21zM408 676v65l10 31l10 16l10 -22l6 -18l7 -41l-5 -43l-6 -33l-14 -21l-12 25zM469 610v47l2 21l14 47l9 -2l12 -29 l8 -59v-35l-12 -72l-6 -18h-7l-8 25l-10 34zM557 344l12 8l13 6l24 -2l23 -6l18 -12l17 -19l14 -28l-4 -6l-25 -13l-26 2l-31 19l-12 12l-11 14l-8 15zM594 209v6l6 6l12 4l31 -4l14 -6l17 -12l18 -29l13 -20l2 -15l-15 -12l-14 -2l-25 8l-28 23l-21 34zM678 1329v27l6 14 l31 -2l37 -4l14 -6l10 4l27 2l10 4l6 -4l2 -6l-4 -66l-4 -100l-6 -29v-20l2 -58l-2 -36v-107l2 -72v-39l-12 -65l10 -18l2 -25v-100l-4 -25l4 -35v-92v-49l-2 -6l-10 16l-31 68l-21 39v14l-16 18l-22 45l-11 31l-8 10l4 453l-6 59l-2 54z" />
<glyph unicode="o" horiz-adv-x="958" d="M41 655l2 70l2 47l2 2l4 53l15 111l12 27l16 75l17 52l32 73l9 19l24 22l17 25l22 29l51 43l19 8l2 -8l2 -27v-39l-15 -18l-22 -25l-37 -47l-10 -10l-35 -56l-6 -28l-10 -29l-7 -8v-10l-22 -91l-4 -36l-8 -23l-11 -117l-8 -53l6 -31v-16l2 -66l11 -73l12 -76l6 -23 l-2 -12l2 -8l12 -10l37 -88v-2l13 -21h2l8 -24l18 -35l53 -60l11 -12l-6 -8l6 -33l-4 -37l-2 -10l-7 -2l-10 8l-47 45l-47 66l-8 22l-4 13l-35 53l-35 100l-16 68l-9 41v28l-16 78l-2 76zM119 662l6 22l10 49l10 25l15 20l28 27l5 -6l-5 -49l-6 -25l-12 -27l-6 -6l-12 -18 l-17 -15l-10 -6zM152 532v35l8 41l10 29l29 43l24 18h2l2 -2l2 -28l-4 -37l-8 -39l-12 -27l-29 -35l-2 -4l-20 -6zM182 455v6l11 12l36 57l9 37l12 19l24 53l-28 86l-15 59l-16 27l-33 100v7l56 57l12 16l14 6l10 13l25 34l10 9l4 28l2 138l4 24l3 94l26 19l43 16l12 -2 l17 8l35 13h57l8 -2h23l8 -7h18l23 -4l24 -8l25 -14l53 -43l15 -6l55 -60l8 -24v-6l25 -27l22 -43l17 -43l16 -29l10 -35h2l17 -55l26 -141l-4 -33l15 -80v-92v-59l-13 -78l-18 -72l-2 -31v-28l-17 -47l-18 -48l-62 -135l-55 -65l-12 -13h-19l-22 -30l-53 -29l-33 -24h-21 l-22 -13l-14 2l-31 -2l-37 -10l-31 6l-55 17l-31 16l-24 14l-15 17l-2 18l-2 90l2 10l6 9l-2 69l-2 31l-16 39l-35 49l-26 31l-37 53zM186 1010v12l19 55l22 29l25 22l18 7h17l-6 -29l-11 -37l-10 -16l-18 -23l-45 -26h-9zM199 330v18h12l25 -18l18 -29l16 -37l4 -35l5 -12 l-9 -2l-14 6l-18 12l-15 19l-12 29l-8 20zM330 727l6 -18l-2 -60h2v-24l6 -76v-55l4 -39v-54l6 -34l19 -127l16 -60l16 -45l13 -20l16 -17v-6l10 -12l13 -6l26 -19l13 -4l61 19l25 39l20 18l12 31l19 35l16 53l4 24l6 49l13 29l-2 82l8 41l8 162l-2 41l4 28v19l-2 29v43 l-8 63v18l-4 17l-2 43l-8 47v53l-3 41l-30 84l-6 25l-9 41l-26 32l-8 3l-11 18l-37 29l-30 -7l-15 7h-10l-35 -23l-34 -49l-19 -45l-12 -31l-2 -29l-10 -53l-11 -80l-12 -63v-84l-6 -66zM373 690v6l49 37l45 25l47 8h16l27 -10l66 -49l2 -17l-15 -12l-30 -19l-23 -10 l-31 -10l-32 4l-19 -4l-37 14l-47 21l-14 10zM401 489v7l58 34l39 9h10l22 -2l17 -5l22 -6l43 -30l6 -7v-12l-61 -43l-39 -10l-43 6l-16 6l-27 17l-22 20zM406 915l14 17l37 31l16 6l29 6l41 -6l30 -17l41 -26l2 -8l-2 -3l-14 -16l-20 -12l-54 -19h-18l-31 4l-43 19l-14 12 h-4l-8 6z" />
<glyph unicode="p" horiz-adv-x="872" d="M74 16l6 68l4 20l4 13l-4 18v76v190l4 91l-4 34v17l6 133l-6 22l4 60l-4 71l4 82v111v68l-4 28v72l-6 137l-4 39l2 2l14 -2l27 2l30 -2l5 -6l-2 -82v-41l-7 -29v-24l4 -47l-2 -90v-164l-6 -49l6 -46l2 -79v-113l-8 -64l6 -30v-185l-4 -53l2 -28l4 -19v-100l3 -86l6 -8 v-19l-4 -6h-31l-27 -4l-14 4l-4 2zM164 231v11l12 34l14 21l17 20l24 9l13 -2l4 -7l-8 -28l-11 -19l-14 -22l-29 -17l-6 -2h-14zM166 651v4l4 13l18 -19l17 -26l18 -37l4 -23l4 -33l-6 -8l-20 8l-2 2l-17 31l-10 27l-6 24zM168 1083l2 41l6 37l10 29l13 16l18 13l2 2l8 -7 v-34l-8 -25l-10 -29l-14 -20l-15 -19l-6 -6zM182 1354l4 12l9 2h86l106 -2l98 2l17 -8l24 2h52l4 -2l53 -4l14 -13l35 -4l43 -26l29 -35l26 -41l9 -31l22 -59l10 -45l4 -15l7 -40v-41l-5 -13l2 -41l-6 -22l-4 -25l-8 -35l-8 -24l-14 -43l-25 -62l-21 -39l-24 -26l-16 -31 l-48 -37l-32 -22l-21 -13l-22 2l-25 -18l-59 -14l-23 -4l-35 -2l-14 6l-6 8l-23 65v13l11 -2l24 -4h14l31 6l12 -2l78 61l19 35l26 92l13 49l6 13l4 24l-6 33l2 49l-2 23l-4 59l-11 35l-20 71l-12 23l-25 27l-6 12l-62 33l-18 2l-29 18l-2 4l-12 -10h-45l-4 -2l-2 -16 l2 -209l-8 -41l4 -125l-2 -146v-77l-4 -43l4 -99l-2 -86l6 -47l-2 -45l-2 -27v-116l6 -43v-54v-98l-2 -14l-41 6h-25l-10 6l-29 -10h-86l2 18l-2 23l2 6l15 18l24 23l27 41l12 8l45 74l4 8l-28 70l-6 30l-19 25l-2 4l-12 31l-19 28l-16 37v11l35 81l10 27l57 92v6l-28 74 l-21 35l-6 35l-10 10l-33 59l-6 21l37 69l6 17l12 14v4l10 19l21 49l14 29l4 16l-43 82l-28 49l-13 10l-30 47l-13 6l-4 9zM184 131l11 33l14 33l14 22l17 17l14 6l12 2h15l4 -13l-19 -36l-24 -41l-17 -17l-24 -14h-13zM193 770v16l2 2l32 -32l11 -15l18 -30l10 -35l2 -25 l-2 -22l-12 4l-25 22l-10 13l-18 41l-2 14zM193 969l2 53l12 39l16 29l19 22l20 14l6 -2l4 -6v-10l-6 -14l-18 -58l-6 -14l-19 -35l-12 -12l-16 -10z" />
<glyph unicode="q" horiz-adv-x="958" d="M41 616l4 35l-2 21l-2 33l6 120l14 95l9 36l2 23l16 35l14 49l33 74l27 49l18 16v6l6 15l33 41l41 41l19 16h2v-78l-7 -16l-14 -13l-24 -30l-13 -15l-71 -118h-2l-7 -21l-10 -53l-12 -45l-10 -60l-7 -30l-4 -78l-4 -39v-61l4 -78v-35l4 -25l15 -47l6 -51l20 -72l19 -47 l24 -78l5 -10l18 -8l33 -51l30 -29l5 -6l2 -59v-15l-2 -10l-25 18l-31 29l-37 43l-18 21l-21 36l-36 89l-5 6l-2 30l-16 37l-27 99l-8 36v35l-10 64zM121 676v12l8 47l6 19l21 34l26 19h11l4 -8l-2 -17l-11 -37l-16 -28l-12 -17l-31 -24h-4zM150 532v43l6 29l8 31l29 47l4 2 l14 10h12v-22l-6 -33l-16 -47l-19 -35l-26 -29zM184 920l68 88l51 47l4 119l4 16l-4 20l6 113l9 12l30 23l29 16l47 12l10 -4l86 11l33 -13l45 -6l53 -31l25 -20l10 -18l37 -29l70 -100l32 -56v-22l29 -56l29 -98l12 -72v-30l4 -23l10 -74l-6 -86l6 -47l-10 -96l-8 -59 l-8 -31l-6 -29l-7 -18l-28 -100l-17 -33l-16 -19l-12 -41l-19 -30l-67 -78l-31 -29l-29 -18l-12 -13h-16l-52 17l-30 24v7l24 28l33 60l27 61l14 16l4 54l10 43l15 190l10 33l-4 106l2 27l-6 127l-2 43l-6 57v72l-11 21l-12 67l-20 90v23l-13 18l-18 53l-23 19l-10 18l-27 6 l-30 13h-15l-24 -21h-10l-31 -26l-12 -15l-31 -75v-17l-14 -55l-17 -101l-8 -118l-10 -45l2 -25l-2 -61v-64l8 -78l2 -59l-4 -39v-18l12 -101l4 -31l4 -34l35 -174l39 -54l14 -26l35 -25l21 -22l41 -15l45 -30l26 2l29 -13l57 -10l47 -2l13 -12l37 8h114l39 6l4 4l9 -10 l2 -8l-31 -45l-39 -43l-35 -43l-12 -23l-21 -24l-51 -95l-16 -10l-13 12l-53 64l-30 49l-19 23l-12 6l-51 63l-11 15l-34 34l-9 13l-18 16l-6 2h-35l-35 10l-37 19l-10 -6l-27 10l-39 24l-6 13l-2 24v82l2 25l-6 112l-37 70l-34 37l-43 70v8l36 116l31 66l-8 59l-14 41v19 l-2 16l-15 12l-33 113zM188 1026v16l15 37l14 23l19 20l24 15l25 2l-4 -13l-7 -22l-20 -37l-14 -18l-23 -17zM203 332l4 8l16 -8l21 -17l22 -36l13 -52l2 -18l-2 -6h-7l-12 10l-24 25l-19 36zM377 688v6l14 17l53 34l19 7l10 2h45l33 -6l41 -19l31 -31v-6l-29 -22l-45 -25 l-19 -6h-28l-43 2l-64 25l-14 16zM391 918l6 6l41 26l35 17l33 4l39 -6l47 -33l10 -25l-12 -10l-58 -27l-26 -10h-23l-20 4l-41 13l-23 20l-4 6v4zM395 481l2 6l37 31l43 23h23l16 4l31 -10l28 -17l33 -31l4 -8l-2 -14l-12 -8l-66 -35l-30 4l-49 12l-43 27z" />
<glyph unicode="r" horiz-adv-x="919" d="M74 4v25l6 73l8 76l2 25l-6 22l4 60l2 37v34l4 33l-4 25l2 735l-8 37v57l-4 76v49l72 -4l4 -12l-4 -27l-2 -129v-164l-3 -84v-190l-4 -19v-24l7 -41l-3 -119v-94l-2 -10l5 -19l2 -53v-160l-5 -18l3 -23l2 -106l4 -66l-13 -2h-28l-35 -8zM168 645v19l2 4l20 -15l19 -18 l20 -47l4 -37l-4 -23l-16 11l-29 36l-14 46zM168 1077l2 29l6 33l8 26l17 25l22 16h8l5 -8l-5 -24l-8 -31l-18 -31l-25 -27l-10 -8h-2zM170 242l6 26l12 39l11 19l28 24l9 4l4 -4v-22l-11 -39l-18 -33l-12 -14l-17 -13h-6zM182 1350l6 18l97 -6l6 -6l28 6l60 6l47 -4l72 4 h22l19 -12l41 2l61 -6l21 -6l40 -19l25 -22l37 -37l16 -35l4 -19l21 -22l4 -14l16 -66l9 -59v-23l-9 -22v-37l-4 -29l-8 -35l-4 -26l-21 -62l-16 -12v-8l-35 -64l-16 -14l-41 -29l-2 -12l-12 -18l-21 -17l-10 -4v-6l10 -25l53 -125l13 -43l30 -67l25 -60l18 -41v-14l7 -18 l16 -27l20 -53l29 -56l33 -75l16 -27v-8l-10 -8l-12 2l-35 6h-17l-18 8l-33 -4l-20 -6l-21 2l-24 10l-62 -10h-18l-29 88l-16 51l-8 43l-21 51l-39 103l-10 49l-2 14l-21 27l-12 39l-51 131l-10 18v17h26l35 8l19 -8l22 24l25 17l18 14l25 33l16 33l12 45l7 43l4 10l6 74 l-2 28l6 45v13l-6 24v37l-4 6l-2 19l-25 69l-29 64l-24 12l-51 41l-23 -6l-18 6l-25 2l-41 -6l-10 -6l-2 -76l2 -209l-6 -16l-4 -21l10 -51l-4 -29v-65l2 -56v-129l-4 -36l-4 -66l10 -59l-2 -23v-123l4 -47l-6 -39l4 -47l2 -59v-45l4 -35v-33l-4 -10l-17 6l-59 4l-10 6 l-25 -4l-14 6l-41 -2h-14l-6 8l2 25l30 45l29 43l29 29l12 16l24 39l-4 14l-43 99l-10 41l-39 63l-6 17v12l49 86l51 98l-2 12l-24 64l-17 43l-16 18l-45 113l6 10l47 82l13 19l12 26l14 6v11l19 53l-66 119l-14 16l-25 35l-35 47zM188 123l5 37l10 28l16 27l21 23l16 6h10 l2 -8l-6 -35l-14 -31l-25 -29l-20 -16l-10 -6zM188 977l7 37l12 47l29 39l24 18h16l-8 -39l-8 -30l-24 -41l-13 -15l-20 -16l-10 -4zM190 770v18l5 5l8 -7l22 -22l15 -16l16 -31l16 -53v-25l-18 2l-16 12l-21 33l-16 35z" />
<glyph unicode="s" horiz-adv-x="768" d="M49 1008l6 34l4 25l4 6l5 23l20 67l6 11l8 18l13 25l8 4l8 -23l12 -31l2 -6l-18 -51l-12 -41l-6 -33l-7 -20l4 -33v-41l9 -70l2 -16l16 -53l2 -15l6 -18l47 -47l19 -23l16 -24l15 -33v4l63 -53l21 -12l30 -25l6 -4l15 -25l59 -36l19 -21l28 -31l23 -34l26 -72l4 -37 l5 -70l-9 -65l-6 -35l-8 -6l-10 -37l-21 -37l-14 -22l-25 -23l-49 -29l-18 -2l-23 2l-18 -2l-27 -12h-18l-43 8l-25 17l-28 2l-33 16l-17 23l-20 -7l-14 7l-39 28l-4 84l-2 62l6 26l-6 25l2 84v45l-2 43l2 12l10 10l10 -6l39 -104l10 -23l15 -45l8 -8l43 -74l22 -24l25 -35 l20 -23l15 -2l12 -16l22 -12l23 -11l16 7l15 -2l47 14l10 6l16 23l13 36l14 11l4 24l6 64l-2 12l-12 72l-25 37l-6 20l-16 6l-27 27l-28 26l-25 15l-27 35l-10 12l-18 4l-35 25l-59 63l-11 14l-16 11l-23 30l-34 58l-19 43l-31 94v22l-8 56zM137 948l13 -4l32 -31l17 -24 l12 -29l6 -24v-25h-18l-31 25l-16 30l-13 47zM145 1245v6l7 17l28 35l43 30h15l34 29l56 14h10l35 10l10 3h35l22 -13l11 6l73 -2l39 -10l37 -22l16 4l56 -23l16 -12l8 -35l2 -20l-2 -101l-6 -33l6 -36l-4 -50l4 -57v-41l-10 -14l-6 2l-23 57l-20 49l-27 58l-6 20l-18 12 l-19 39l-37 47l-77 72l-31 6l-12 11l-33 12l-47 -23l-27 -30l-18 -48l-4 -34v-11l-9 -30l11 -35l18 -49l18 -33l27 -21l33 -32l47 -60l37 -12l39 -27l35 -45l43 -37l20 -28l10 -23l43 -41l25 -43l31 -84l-4 -12l16 -63l4 -60l2 -63l-6 -62l-14 -59l-11 -12l-16 -58l-14 -37 l-17 -22l-12 -29l-12 -12l-19 -12l-16 -21l-12 -10l-21 -4l-43 -15v9l29 65l22 70l17 43l12 22l4 31l23 61l8 15v10l12 72l21 78l-87 30l-22 -8l-53 6l-11 6v11l-10 59v14l-8 35l-2 25l-10 53l-8 53l-7 25h-32l-78 -31l-64 -14l-12 -4l-4 94l6 18l-6 47v103l-25 57l-16 35 l-2 18l-16 19l-25 63l-14 33zM150 1057v26l2 7h4l14 -7l16 -20l17 -25l10 -24l12 -53l2 -17l-4 -8l-28 18l-13 15l-20 35l-10 40zM299 688l16 17l21 18l29 12l20 2l35 -8l6 -6l2 -16l-20 -19l-17 -16l-37 -15h-26l-23 13l-4 8zM358 592l19 26l31 19h18l27 -8l8 -11l-10 -26 l-15 -14l-30 -13l-37 6l-7 11zM555 326v45l2 39l8 34l13 21l8 12h6l8 -33l4 -34l-4 -35l-6 -31l-8 -22l-19 -43l-4 -5z" />
<glyph unicode="t" horiz-adv-x="804" d="M25 1004l4 108l6 35l-4 41l-4 57v68l-2 53l2 6h59l45 -12l8 -8l15 8h16l31 6h116l5 -2l-3 -6l-2 -29l2 -137l-6 -23l2 -90v-151l-4 -31l6 -31l-2 -63l-2 -207l6 -53l-6 -127l-2 -8l8 -33l-4 -27l7 -61l-3 -119l5 -88l4 -70l-2 -6l-17 -6l-41 4l-14 -4l-8 6l4 25v22l8 82 l2 43l2 6v47l-2 140l2 53v98l-2 39l2 8v170v37v17l-2 34l2 156l-2 16l6 31l-8 72v86l-2 80l-12 6l-21 -2l-24 -13l-47 -47l-15 -30l-12 -11l-12 -16l-2 -20l-19 -46l-22 -61l-27 -94l-8 -6l-8 12v37zM334 653l2 21l16 -8l19 -19l16 -39l8 -53v-12l-4 -15l-14 9l-19 22 l-14 35l-4 14zM338 248l4 22l12 35l13 23l30 24h17l6 -4l-10 -39l-7 -16l-20 -31l-25 -14l-16 -2zM338 1085v25l10 47l6 19v6l15 18l16 10l12 2l4 -2v-28l-6 -29l-12 -25l-10 -18l-19 -16zM344 129l10 33l29 53l14 12l33 13l10 -4v-7l-14 -43l-25 -36l-12 -15l-24 -8l-19 -4 zM348 1329v37l25 -2h33l14 -6l26 6h17l16 -4l58 4l69 -6l17 6l14 -6h31l24 -4l17 6l65 6l6 -6v-53l-8 -25l2 -29v-43l-2 -10l2 -88v-31l-2 -18l4 -59l2 -58l-10 -12l-4 -2l-6 2l-10 35l-17 57l-14 47l-6 12l-11 27l-4 10l-41 78l-6 23l-18 6l-25 16l-14 19l-17 6l-8 2 l-20 -2l-4 -195l-6 -43l4 -59l2 -189l-2 -30l4 -17v-47l-4 -16v-31l6 -49l4 -86l-10 -55l2 -76l4 -23l-2 -12l4 -8v-29l-4 -24l4 -72v-74l4 -20v-47l2 -58l-2 -18l-16 4l-31 2l-37 6l-8 4l-43 -10l-56 4l-4 8v35l11 16l32 43l21 17l10 22l55 84l-34 101l-9 24l-32 49l-11 27 l-10 14l-4 11l21 47l28 53l2 8l15 6l41 92v13l-5 8l-20 68l-25 20l-34 72l-25 39v6l6 8l41 88l12 12l17 41l18 45l15 31v6l-60 88l-8 19l-4 16l-12 8l-17 23l-31 47zM358 967l2 30l11 35l10 33l14 16l33 23l8 2v-12l-14 -60l-8 -18l-17 -25l-12 -16l-25 -17zM365 766l6 8 l24 -8l13 -16l18 -29l12 -47l6 -37l-10 -12l-8 2l-25 26l-16 27l-12 29z" />
<glyph unicode="u" horiz-adv-x="864" d="M66 1360l6 12h24l17 -4l32 -2l5 -6l-5 -12v-82v-31l-12 -33l6 -65v-228l-2 -28v-23l2 -29v-79l6 -158l-6 -27l6 -80l-6 -65l6 -25v-155l7 -74l-7 -8h-6l-22 88l-8 47l-7 24l-12 95l4 18l-8 55l-2 117v156l-2 45l2 35l-2 65l-4 78l8 43l-8 39v133l-4 70v43l-4 34z M160 1063v31l8 12l10 -10l29 -43l10 -37l2 -21v-26l-2 -6h-8l-16 12l-15 20l-6 17l-8 28zM164 662l4 28l2 15l6 18l19 33l12 12l12 6h10l2 -4l-6 -39l-12 -29l-10 -18l-27 -22h-12zM168 213v18l6 9l12 -9l19 -14l8 -12l10 -23l8 -59v-6l-14 6l-24 16l-7 13l-12 36zM176 1350 l6 16h6l15 -4h41l12 -6l16 6h47l9 4h49l2 -6l2 -12l-4 -33v-74l-4 -39l-8 -24l2 -48v-81v-131l-7 -68l-2 -47l4 -33l3 -108l-3 -58l-4 -43v-31l9 -98v-125l18 -82l6 -39l4 -4l17 -37l8 -28l18 -31l21 -12l30 -8l37 4l15 -11l20 17l39 37l14 6l27 92l8 18l8 25v78l11 76v106 l4 70v71l6 31l-4 37l-2 16l6 52l-6 18v154l-4 77l4 56v34l-10 23v66l-7 137l2 12l58 -2l33 -10l28 10l19 2l6 -2v-4l-2 -47l-2 -127l-6 -17l6 -34l-2 -27l2 -104v-41l-4 -31l-5 -60l-6 -34l6 -13v-125l-2 -57l5 -31v-16l-5 -18l2 -60l-6 -65l-4 -43l-2 -52l-10 -34v-21 l-4 -29l-17 -65l-10 -35l-6 -16l-39 -68l-4 -10l-35 -29l-10 -20l-23 -27l-26 -18l-62 -21h-16l-8 8l-23 -18h-39l-12 2l-37 -2l-30 12l-23 19l-23 -2l-71 47l-6 8l-4 12l22 58l8 24l31 43l25 45v13l-21 47l-16 24l-6 19l-5 16l-12 4l-55 105l39 79l18 35l19 27l12 29l12 43 v10l-28 43v14l-17 31l-4 29l-22 26l-25 41l-2 23l14 30l21 39l16 45l29 45l20 47l6 15l-36 57l-21 41l-39 66l-12 10l-8 12l-17 21zM184 555l4 18l9 31l20 41l29 33l14 6h6l-6 -39l-6 -27l-18 -32l-11 -19l-16 -12l-23 -6zM184 1214l21 -8l16 -16l21 -31l6 -12l8 -29l8 -35 l2 -20l-14 -4l-16 10l-13 14l-18 33l-12 27l-7 33zM195 330v24l2 6l10 -2l10 -10l21 -24l14 -23l8 -22l6 -39l-2 -27l-22 16l-23 29l-10 18z" />
<glyph unicode="v" horiz-adv-x="892" d="M8 1370h43l8 -4l41 -156l2 -18l17 -41l37 -147l30 -119l13 -62l39 -118l41 -173l16 -51l4 -30l4 -19l10 -16l17 -78l30 -105l11 -47l4 -30l51 -150v-10h-45l-23 -2l-10 37l-14 69l-6 19l-4 31l-31 106l-19 72l-20 82l-12 65l-6 25l-19 51l-49 174l-14 51l-15 53l-2 29 l-6 21l-16 32l-15 54l-16 65l-21 86l-6 21l-6 30l-4 23l-24 59l-7 31l-4 35l-2 20zM92 1354v12h17l24 -4l64 4l8 -6l106 6l25 -70l29 -122l8 -82l24 -60l4 -6v-8l56 -213l6 -60l14 -32l6 -19l15 -49l26 -74l49 -178l9 -18l8 -15l-17 -75l-18 -72l-10 -6l-8 -57l-25 -89 l-2 -14l-8 -41l-10 -6h-23l-10 8l-10 33l2 20l20 93l6 20l8 57l15 62l12 74l2 18l-16 25l-39 34l-19 2l-45 35l-35 23l-2 6l7 31l2 53l4 18l4 11l20 116v9l6 24l-53 57l-10 15l-16 8l-25 25l-43 36l10 78l10 60l11 41l8 59l6 35l-45 28l-27 23l-22 25l-6 2l-17 4l-53 30 l-16 7l-7 18zM145 1223l9 8h14l22 -14l41 -43l15 -41l-6 -7l-29 4l-29 21l-18 29l-17 34zM164 1090v6l4 2h18l27 -19l18 -24l15 -47l2 -7l-12 -4l-29 4l-21 23l-18 39zM256 745l8 43l10 23l11 14l14 11v-7v-51l-10 -59l-17 -43l-6 -6l-6 28zM303 592v43l4 41l8 31l17 38 l10 19l12 2l4 -2l-2 -41l-4 -37l-24 -76l-15 -16l-6 -6zM348 410v6l17 4h26l29 -17l14 -16l25 -37l10 -28l-2 -7h-14l-35 7l-33 22l-31 55zM365 279l2 6l6 2h22l23 -6l14 -13l17 -24l8 -29l2 -18l-29 6l-24 18l-23 27zM537 664l18 67l23 80l8 27l8 20l4 21l25 65v23l36 135 l15 43l12 72v6l35 139l6 4l64 -4h94l2 -10l-19 -35l-47 -143l-6 -7l-20 -77l-19 -54l-41 -145l-30 -68v-39l-35 -114l-8 -35l-5 -17l-8 -6l-6 -41l-20 -71l-17 -68h-4l-4 12l-12 31l-13 47v25l-12 35z" />
<glyph unicode="w" horiz-adv-x="1224" d="M8 1354l4 6l70 -2l6 -21l33 -166l10 -49l12 -35l7 -63l24 -104l8 -54l6 -32l5 -60l12 -31l12 -59l23 -106l22 -99l6 -26l2 -37l6 -41l21 -72l20 -80l7 -57l34 -156l-4 -10l-63 -6l-4 18l-6 35l-23 137v13l-25 106l-51 262l-8 13l-4 14l-18 113l-7 26l-6 53l-12 66l-12 24 l-2 33l-41 191v20l-19 56l-2 34l-14 41l-10 43l-11 43l-6 11zM119 1333v17l65 -2l15 6h30l39 -2h43l11 8l12 -6l10 -54l12 -57l21 -131l-4 -22l4 -21l14 -51l37 -176l29 -154l8 -22l4 -29l8 -31l12 -24l13 -56l30 -123l-2 -36l-22 -93l-12 -32l4 -23l-8 -45l-11 -20l-14 -62 l2 -26l-16 -54v-10l-19 -4l-45 -2l-2 12l14 55l9 54l14 41l45 221l-53 43l-19 33l-12 -2l-18 8l-21 24l-12 11v14l26 108l13 27l14 64l2 43l-2 8l-10 8h-4l-19 25l-18 12l-6 -2l-8 8l-48 66l-24 30l18 70l4 35l9 8l6 57l18 88l-20 19l-29 20l-45 47l-21 2l-43 31l-14 6 l-8 10zM160 1210l4 7h22l21 -13l29 -35l20 -49v-10l-10 -6l-27 6l-20 16l-27 45zM164 1083l4 11h14l21 -19l10 -12l20 -35l15 -27v-4l-10 -6l-19 4l-26 19l-17 30zM246 725l10 41l25 35h6l4 -13v-24l-4 -45l-8 -33l-29 -45l-2 37zM285 561l2 49l6 43l8 21l8 18l17 31l4 6 l12 14l4 -22l-2 -31l-8 -47l-19 -63l-20 -35l-4 -6h-4zM319 408l5 12l16 4l20 -6l13 -10l16 -19l21 -37l12 -24l4 -17l-4 -8h-10l-21 4l-24 19l-25 34zM324 295l2 8l28 -10l15 -10l14 -17l16 -43l9 -30l-7 -11l-30 6l-17 19l-14 24zM481 760l21 74v14l22 86v6l15 37l4 41 l14 37v16l12 64l21 77l4 7l14 -48l29 -149l6 -37l2 -22l14 -48l33 -155l31 -133l-2 -27l12 -49l58 -272l12 -78l2 -27l2 -10l10 -17l27 -139v-6l-72 -2l-8 72l-23 145l-10 49l-4 29l-10 43l4 22l-14 39l-17 86l-10 33v10v23l-16 65l-9 43l-8 41l-12 66l-10 41l-2 20l-5 7 l-18 -89l-2 -20l-12 -35l-4 -33l-2 -24l-17 -55l-8 -35l-4 -47l-2 -11l-6 -2l-4 6l-23 115l-4 37l-12 25l-17 79zM616 1323l7 29l8 14v4l61 -8h17l8 -6h16l8 2l60 4l20 -4l23 -139l6 -31v-25l10 -55l17 -98l16 -80v-35l8 -29l17 -49l6 -39l14 -43l18 -94l15 -72l4 -14 l10 -31l16 -80l15 -55v-29l-27 -108l-4 -23l-6 -12v-33l-8 -26l-15 -52l-10 -65l-6 -33l-6 -12l-57 2l-7 4l19 84l22 82l7 33l4 32l18 76l8 58l-39 43l-22 14l-31 35l-31 30v5l27 100l18 108v23l4 12l-10 17l-26 32l-37 54l-19 10l-34 39l-7 10v19l17 94l8 22l20 125l-32 31 l-43 47l-39 33l-19 18l-32 25zM633 1227l2 12h14l33 -22l29 -39l20 -25l10 -35l-10 -4l-20 4l-15 4l-24 21l-19 33l-12 24zM647 1092h2l23 -2l12 -7l25 -28l18 -25l8 -24l-4 -11l-12 -4l-21 4l-20 19l-25 41zM735 686v37l8 45l2 8l13 23l8 16h10l2 -18l4 -39l-12 -53l-6 -19 l-10 -18l-13 -11h-2zM776 580v41l8 43l19 51l6 12l8 10l8 -6l2 -35l2 -47l-4 -22l-6 -27l-22 -49l-15 -21l-4 7zM795 424l2 6h14l31 -12l24 -21l29 -51l14 -27l4 -10l-2 -10h-10l-24 4l-19 12l-16 15l-33 51zM809 283v6l18 4l13 -6l26 -29l17 -27l14 -45l2 -6l-6 -6l-21 -2 l-24 14l-19 31l-10 25zM963 770v6l41 166l12 33l2 24l2 35l16 66l8 51l11 41l-2 25l14 108l2 37l18 2l7 -4l34 2l39 -4l21 8l18 -10l8 4l5 -12l-23 -82l-22 -107l-15 -22l-31 -183l-34 -166l-7 -45l-8 -14l-14 -70v-16l-18 -100l-7 -31l-4 -31l-6 -4l-2 6l-22 107l-29 108z " />
<glyph unicode="x" horiz-adv-x="841" d="M16 1348l7 14l79 -2l9 -6l32 -131l2 -27l7 -18l12 -31l10 -39l8 -14l8 -29l33 -90l13 -39l20 -74l6 -26l10 -19l27 -67l29 -93l28 -94l9 -14l6 -23l6 -47l14 -24l25 -78l8 -33l4 -8l10 -19l8 -32l74 -232l6 -12l15 -49l-9 6h-45l-22 2l-33 125l-12 45l-6 29v14l-8 10 l-27 82l-21 66l-47 141l-8 45l-4 4l-53 144l-15 51l-24 94l-21 37l-53 166l-8 28l-6 15l-15 28l-32 88l-29 78l-14 23zM27 6l28 76l15 31l24 63l8 19l37 100l23 49l6 27l25 41l10 39l28 86l15 43l2 10l2 2h4l37 -119l16 -47l8 -25l-28 -94l-13 -24l-57 -191l-24 -88l-7 -4 h-28l-11 6h-51l-8 -2l-49 -4h-10zM135 1350v6l2 4l31 -6h33l30 -6l17 6h59l35 6h35l14 -41l19 -84l4 -23l6 -22l47 -156l14 -51l4 -20l15 -33l16 -53l19 -54l24 -78l4 -28l29 -74l37 -104l8 -25l4 -25l25 -71l20 -45l4 -43l23 -47l37 -101l26 -59v-12l19 -29l26 -70l4 -14 v-10l-20 4h-39l-31 6h-26l-23 8l-53 -8h-45l-10 29l-3 6l15 71l4 13l12 24l6 54l11 59l12 70l-23 18l-24 25l-10 10l-13 6l-14 23l-10 -11l-15 13l-24 24l-25 29l-8 4l-2 6l2 31l4 78l12 53v29l4 88l-8 8l-63 45l-8 8l-31 6l-37 33l-14 12l4 37l6 25l4 45l10 35l2 12l-2 39 l6 69l4 25l-83 63l-13 -4l-49 29l-37 29h-8l-10 12l-19 53zM223 1143v6l17 6h16l23 -6l20 -21l14 -20l11 -27v-6l-27 -6h-16l-27 21l-18 26zM242 1024l12 6l25 -2l20 -16l12 -19l11 -22l2 -15l-21 -6h-14l-21 13l-14 26l-8 21zM346 715l10 49l15 29l8 -29l6 -33v-26l-10 -43 l-10 -19l-9 -10l-2 6l-6 29zM403 602v23l3 24l8 41l12 31l6 10l6 -4l11 -37l4 -28v-31l-11 -45l-18 -41l-10 -15l-8 33zM481 332v6v6l8 8h25l16 -8l35 -25l17 -20l16 -27v-2l-4 -4l-21 -8h-24l-19 12l-34 41zM487 213l5 12l16 6l10 5l8 -5l35 -26l19 -29l10 -18v-13l-21 -14 l-28 8l-15 13l-20 18l-12 25zM510 999l6 7l19 57l24 49l10 10l9 43l20 54l14 55l23 80l2 6l76 -6h39l20 6h21l8 2h6l2 -12l-39 -72l-31 -47l-10 -19l-6 -30l-14 -29l-23 -63l-6 -9l-10 -16l-33 -100l-31 -82l-20 -74l-11 6l-20 68l-6 14z" />
<glyph unicode="y" horiz-adv-x="839" d="M8 1364l2 4l74 -8l4 -4l43 -152l14 -41l5 -28l12 -21l49 -162l4 -26l14 -25l15 -43l35 -108l12 -35l20 -62v-151l-6 -17l4 -43v-36l2 -93l2 -73l4 -52l-2 -61l-2 -35l4 -6v-59l5 -13l-3 -12l-18 -4h-51l-6 12l2 6l2 35l8 86l-2 123l8 41l-6 61v74v37l-6 129l2 31l-25 74 l-24 81l-2 23l-15 47l-10 19l-55 167l-6 21l-2 20l-13 37l-24 47l-21 72l-35 98zM121 1358l2 6l59 -6h25l37 -8l49 10l26 -2l17 2l18 -2l11 2l4 -6l8 -49l18 -72l27 -137l14 -25l25 -102l16 -64l10 -24l19 -84l12 -47l45 -115v-17l-6 -40v-60l-2 -41v-24l-4 -35l2 -23 l4 -112l2 -37l-2 -47l-2 -11l6 -20l2 -107l4 -36l2 -23l-2 -6l-2 -4l-39 10l-12 2l-20 -4l-25 6l-18 -6l-72 -2l-21 -2l-4 6l4 37l4 22l25 23l43 70l8 2l31 57l33 76l-58 92l-12 10l-47 84l-10 14l4 15l14 49l21 45l18 41l8 49l11 41l8 33l4 12l-23 19l-12 6l-45 37l-16 14 l-13 24h-18l-31 19l2 63l4 13l8 106l9 29l10 59l4 35l-80 45l-12 17l-25 2l-22 8l-15 4l-51 31zM182 1192v6l13 10h26l15 -2l20 -16l33 -47l12 -15l-2 -12h-8l-31 -2l-22 6l-15 10l-35 44zM199 1051v6v10l12 10l31 -4l24 -20l19 -25l12 -35l-6 -6l-35 2l-27 17l-16 20z M311 698v41l13 47l4 11l8 16l22 18h2l5 -2l2 -26l-2 -25l-7 -28l-22 -35l-10 -13l-11 -6zM330 270l6 6l12 -6l25 -20l10 -19l16 -45l7 -43l-5 -4l-26 19l-17 26l-26 68zM342 561v29l2 28l10 44l13 38l18 37l16 17h2l5 -6l-5 -78l-6 -35l-12 -25l-20 -32l-13 -15l-6 -4z M352 375l2 12l4 2l15 -4l22 -16l19 -29l18 -59l6 -39l-4 -6l-16 8l-19 24l-26 43l-15 35zM514 887l55 153l13 17l14 57l10 41l12 37l17 57l2 29l10 25l8 36v23l4 6l29 -6l14 6l64 -4h16l37 4l10 -4l5 -6l-9 -19l-14 -39l-39 -83l-18 -25l-19 -62v-12l-18 -28l-43 -113 l-8 -16l-7 -7l-6 -47l-30 -76l-41 -143h-7l-22 74l-18 57z" />
<glyph unicode="z" horiz-adv-x="835" d="M16 -4l17 39l63 178l15 23v30l14 45l14 51l68 191l10 41l8 16l17 52l12 20l8 45l29 88l20 55l4 21l23 74l18 49l4 30l7 19l36 113l9 38l18 54v24h-41l-27 -4l-12 -6l-16 6l-23 -12l-28 -14l-39 -23l-17 -12l-20 -17l-27 -41l-22 -36l-23 -29l-14 -25l-10 -10v-22 l-39 -107l-4 -6h-11l-4 18l4 107l-2 78l4 51l-4 14l-4 78l-2 82l4 10l62 -6h53l20 2l15 -10l35 6l55 2l35 -2l78 4l22 -6l98 4l6 -6v-10l-16 -35l-45 -129l-12 -19l-6 -41l-19 -65l-33 -92l-18 -60l-27 -88l-24 -69l-21 -68l-24 -74l-17 -35l-32 -126l-31 -97l-14 -20 l-9 -51l-26 -88l-35 -107l-8 -47l-15 -39l-4 -8h-24l-49 -8l-5 4zM133 2l14 37l58 49l24 18l11 -4l18 21l33 16l57 47l-20 95v67l-11 12v7l-12 69v6l-6 7l-6 24l26 12l50 39l16 17l16 6l25 18l29 33l20 16l-4 43l-12 78l-2 58l-6 30l-9 88l2 7l70 45l76 51l26 8l-8 39 l-14 65l-6 74l4 29l-10 16l-7 6l-14 60v20l19 41l88 -8l18 -8h4l19 6l51 4l18 4l10 -4l7 -8l-19 -47l-24 -68l-4 -6l-9 -14l-22 -76l-23 -82l-73 -205l-23 -41l-25 -106l-6 -19l-37 -98l-10 -45l-16 -47l-8 -33l-13 -29l-2 -28l-28 -88l-13 -72l-14 -47l-8 -14l-10 -48v-20 l-11 -39l2 -2l54 -2h36l17 -6l24 16l25 6l37 17l39 35l24 28l37 66l25 35l6 28l14 39l11 14l8 33l24 60h11l4 -7v-4v-41l-11 -102l-8 -78l2 -33l-8 -47v-30v-54l-6 -65l-6 -6l-129 4l-13 10l-22 -4l-25 2l-71 2h-54l-127 -2l-43 6l-43 -10l-96 -4l-2 6v6zM205 180v47l4 41 l8 33v2l4 -2l12 -29l9 -34l2 -66l-6 -29l-2 -8l-7 -4l-6 6l-10 17zM256 283v65l2 35h2l14 -18l15 -29l10 -35l2 -35l-2 -33l-6 -32l-6 -11l-11 23l-10 18l-4 25zM330 584v16l18 27l19 22l28 17h37l6 -7l-8 -24l-10 -12l-25 -27l-33 -14l-20 -2zM342 719l12 29l11 18l18 16 l12 2l19 4l18 -12l6 -6v-6l-20 -33l-21 -14l-26 -15l-23 5zM467 1047l2 38l4 33l4 19h6l17 -31l6 -31l4 -26l2 -19l-8 -37l-8 -18l-7 2l-16 41zM518 1176l2 20l4 33l6 -4l15 -15l10 -28l8 -29l6 -43l-2 -59l-8 -23h-4l-4 10l-8 13l-17 43l-6 41z" />
<glyph unicode="{" horiz-adv-x="811" d="M57 700l15 117l6 49l6 45l8 15l17 39l10 32l41 66l28 59l48 58l30 32l27 9l12 -4l35 30l18 4h62l37 -16h39l43 -23l55 -41l12 -14l19 -27l12 -30l31 -58l43 -81l26 -121l2 -27l-2 -35l11 -37l6 -34l-2 -117l-13 -82l-2 -12l-16 -54l-16 -45l-7 -26l-67 -131l-21 -23 l-4 -4l-22 -23l-27 -26l-57 -35l-27 -10h-18l-11 10l-24 -14h-41l-43 4l-39 22l-33 27l-26 33l-35 16l-78 135l-4 31l-15 45l-14 23l-20 86l-13 110zM131 639l2 -27v-4l72 58h6l10 22l23 19l28 22l-34 72l-19 30l-41 84h-2l-22 -65l-9 -37zM139 549l13 -35l4 -33l8 -22 l12 -13l21 -63l34 -45l7 -12l16 -19l14 53l4 46l9 26v10l2 35l14 80l-4 6l-2 -6h-51l-27 -12l-16 8h-41zM193 961l38 -27l17 -8h12l19 -11l12 -4l59 -45l8 86l13 41v31l14 80l4 26l-4 5h-6l-21 -9h-22l-14 -4l-25 -22l-12 -4l-54 -60zM281 276l18 -22l16 -10l31 -4l25 -13 l20 -4l53 17l21 -9l49 23l2 4l-61 125l-4 18l-13 15l-14 16l-14 27l-2 -4l-19 -23l-18 -26l-17 -23l-6 -18l-26 -21zM326 674l2 -31l22 -45l19 -18l10 -5l22 -22l29 4l21 14l18 31l12 55l2 43l-4 33l-8 8l-14 31l-29 29l-43 4l-33 -23l-2 -4l-16 -41l-6 -22zM428 1135l8 -80 l35 -129l6 -27l2 -18l27 18h6l4 8l16 8l17 19l6 4l63 41l-32 57l-39 33l-21 23l-14 26l-8 4l-21 -8l-12 8zM506 545l18 -86l2 -31l15 -49l16 -80l45 57l21 27l18 41l18 53l7 37l8 35l-2 4h-45l-35 4l-29 -4l-20 4l-17 -8l-18 -4h-2zM549 733l31 -22l14 -23l55 -37l21 -8 l14 -14l-4 82l-2 34v68l-29 98h-4l-37 -90l-16 -8l-17 -35l-6 -6z" />
<glyph unicode="|" horiz-adv-x="798" d="M57 655v27l9 84l8 76l28 102l13 35l4 35l31 53l38 63l31 35l25 41l45 21l53 20l8 6h45l45 -6l13 6l63 -34l90 -82l53 -76l19 -41v-27l24 -49l25 -96l12 -62v-63l2 -21v-75l-18 -144l-12 -55l-21 -49l-31 -74l-53 -84l-61 -55l-92 -47l-74 -8l-25 22l-45 6l-71 41l-27 27 l-10 22l-39 47l-47 103l-13 35l-8 63l-12 21zM119 635l8 -55l12 -35l11 -56l51 -137l63 -82l66 -49h28l43 -14l74 29l66 34l20 21l25 6l4 29l53 102v21l29 96l8 55l4 21v55l6 47l-22 119l-37 108l-21 56l-20 28l-70 88l-112 49l-5 -6l-28 -8l-45 -6l-45 -35l-72 -76l-33 -55 l-6 -6l-22 -105l-17 -47l-4 -49l-12 -55v-88zM150 696l2 21h4l30 -21h9l28 -34l25 -41l16 -41l4 -50l-8 -12l-24 6l-29 27l-27 35l-16 35zM195 862h6l59 -28l4 -7l25 -28l28 -68l9 -69l-33 8l-37 32l-25 35l-30 90zM231 971l70 84l53 26l29 -14h4l53 14l56 -20l45 -41 l24 -41l8 -21v-14l-73 -123l-23 -14l-57 -117l6 -14l39 -70l18 -55l21 -12l74 -131v-15l-37 -41l-41 -20v-6l-35 -21l-51 -14l-27 -8l-49 28l-8 21h-33l-45 35l-16 26l2 29l47 76l37 47l16 41l41 49l22 41v14l-63 103l-33 61l-24 20l-43 76zM483 711l25 47l24 41l29 22 l33 13h29l8 -13v-22l-13 -21l-36 -61l-45 -27l-37 -8h-13zM532 551l9 43l24 47l37 29l25 6h32l7 -14l-23 -48l-33 -41l-37 -28l-28 -6z" />
<glyph unicode="}" horiz-adv-x="1062" d="M57 682l2 6l19 23v4l24 16h37l47 -37l7 -16l-41 -23l-15 -6h-28l-39 23zM113 1065l10 10l33 -4l32 -22l19 -27l8 -12l16 -43l-14 -17l-31 11l-47 45l-20 36zM123 285l10 49l6 26l23 33l26 10l17 7h22l4 -11l-14 -45l-24 -43l-25 -16l-16 -10h-29zM195 573v66l4 16v121 l26 125l23 72v10l26 43l11 39l39 55l22 27l72 55l35 10l28 11h88l56 -27l22 -16l37 -39l45 -43l16 -39l39 -76l13 -33l41 -141l6 -78v-76l-4 -10l-2 -61l-27 -131l-20 -60l-62 -121l-27 -32l-34 -37l-76 -56l-62 -6l-22 6h-2l-25 -6l-41 17l-57 28l-72 76l-57 98l-33 99 l-10 39zM238 557l38 -33l15 -6l20 -26l8 -17v-59l-4 -23v-49l15 -10l65 16l8 -12l21 -70l10 -39l6 -22h6l17 29l37 49l12 10h10l29 -55l24 -33l7 -4h6l10 49l16 27l21 59h55l29 -10l10 71l-2 17v69l57 50l13 16l4 6l-6 23l-39 98l-4 16l36 82l13 17v10l-82 76l8 82l2 16v45 l-2 4h-31l-49 -16l-6 6l-20 55l-3 27l-20 55h-6l-35 -33l-27 -39l-22 11l-19 22l-36 33l-15 -43l-10 -17l-16 -61l-4 -4l-68 10h-25l-4 -59l8 -39l5 -49l-9 -6l-24 -17l-49 -53v-6l39 -82l6 -27l-23 -65l-4 -17l-18 -45zM281 1333v49l4 11l2 6l22 -29l21 -37l10 -16l8 -39 v-88l-2 -4l-10 4l-27 39l-12 43zM285 10l2 56v22l6 33l22 49l27 33h4l6 -13l-4 -53l-6 -45l-12 -37l-27 -39l-12 -10zM487 0l2 43l13 49l10 29l10 -12l10 -33l7 -70l-2 -49l-15 -39l-10 -16l-10 10l-13 39zM500 1321l2 65l6 39l18 43h11l8 -36l6 -29l-2 -66l-12 -65l-17 -37 h-8l-10 59zM684 121l2 43l6 10l31 -43l22 -59l7 -49l-4 -50l-3 -12l-22 33l-27 45l-10 33zM692 1180l4 43l6 45l15 37l24 49l21 28h6l4 -49l-4 -49l-20 -61l-29 -37l-23 -17zM807 383l4 4l6 6l23 -6l20 -10l27 -27l18 -33l10 -38l5 -23l-5 -4h-16l-27 16l-22 27l-27 49z M811 961l20 55l19 22l6 11l55 26h21l4 -10l-16 -39l-21 -37l-33 -28l-28 -11l-15 -6zM860 682v16l39 23l21 10l38 -4l46 -29l4 -20l-33 -29l-37 -4l-29 4l-26 13z" />
<glyph unicode="~" horiz-adv-x="1998" d="M57 705l4 12l27 16l35 2l24 -8l17 -16l2 -6l-16 -9l-23 -10l-33 -4l-22 10zM174 682v68l6 6l19 -6l26 -5l8 -4h72l12 -2l19 2l49 4h18l11 -4h10l29 4h32l27 5l12 -5h232l6 -4l18 4h58l20 -4l12 4h62l29 5h6l8 -5h10l47 -4l49 4h17l16 -4l53 4l11 -4l43 9h53l14 -9l10 4 h50l22 7l14 -7l17 5h65l11 -5h24l45 5l25 -5l12 7l14 -7h35l29 5l6 -5h66l28 5l11 -5l49 7l4 4l4 -4v-70l-2 -2l-10 2l-21 4l-29 4l-4 2l-16 -2l-84 -4l-18 4l-193 2l-16 4l-9 -4l-57 -2l-24 -4l-19 6l-16 -6l-23 4h-31l-12 2l-14 -2h-86l-25 -8h-2l-18 10l-8 -2l-41 -4 l-19 6l-22 -6h-74l-6 -4l-31 8l-37 -4h-39l-28 -4l-23 8l-20 -4l-31 4h-53l-9 -4h-65l-8 4h-13l-20 -4l-53 4l-35 -4l-31 4l-41 -8l-35 4h-36l-7 4l-16 -4h-49l-19 -4h-14l-41 -8zM1839 721l4 8l21 16l24 7l27 -7l18 -12l11 -16l-17 -12l-26 -9h-17l-24 9z" />
<glyph unicode="&#xa1;" horiz-adv-x="442" d="M49 -2l4 22l17 197v25l8 22l2 84l12 148l4 39l10 71l-4 12l4 78l-4 31l13 92l6 23v49l4 53v37l22 -6l15 2l8 -8l-4 -58l-2 -8l4 -39v-20l-6 -25l2 -12l-4 -35l-4 -2v-29l-11 -225l-6 -45l-2 -37l2 -37l-2 -45l-4 -30l-2 -23l-4 -90l-4 -16l2 -64l-4 -45l-4 -51v-25l2 -6 l-13 -6h-14l-43 -2v4zM121 1194v25l2 26l6 35l8 20l21 39l22 25l15 12l22 -2l12 10h15l30 -24l15 -12l10 -17l18 -43l5 -10l6 -43v-49l-27 -80l-2 -2l-14 -23l-13 -10l-12 -2l-16 -14h-37l-8 4l-43 31l-11 20l-6 31l-2 6l-12 20zM145 0l5 14v23l8 22l8 2l4 7l43 47l4 4 l10 16l9 -6l18 31v4l43 51l25 33l-15 35l-10 18l-21 47l-8 17h-2l-14 24l-35 72l-18 24l4 7l14 43l16 38l7 17l10 8l10 33l12 33l27 57l-35 94l-12 12l-16 41l-39 62l8 43h12l23 2l4 2h39l14 -2l12 4l13 -4l6 -49l12 -146v-24l6 -49l4 -52l2 -2l-6 -22l8 -49l2 -25l4 -27 l9 -92l-2 -53l4 -29l-2 -12l2 -4l6 -18v-35l6 -49l2 -76l6 -56l6 -81l4 -23l-4 -8l-37 -2l-61 2l-4 4h-14l-25 -4l-27 2l-71 -2l-8 2zM158 246l4 33l2 2l20 -19l13 -20l10 -39l4 -25l2 -24l-2 -4l-12 6l-17 12l-12 29l-8 24zM170 719l6 41l6 24l6 15l11 20l18 15l4 2l4 -7 l-2 -34l-6 -21l-22 -45l-19 -18zM180 352v27l4 6l15 -4l14 -12l14 -15l13 -22l14 -53l2 -27l-6 -10h-6l-19 14l-20 33l-10 20zM186 594l2 39l7 37l8 28l6 9l10 16l23 25l10 10h4l2 -2l-4 -64l-2 -16l-4 -19l-17 -28l-14 -15l-12 -14l-4 -2z" />
<glyph unicode="&#xa2;" horiz-adv-x="720" d="M41 713l2 53l8 70l6 49l25 59v21l20 55l27 51l10 14l25 35l10 13l6 -3l15 -47l2 -6v-12l-9 -10l-38 -60l-11 -28l-12 -29l-27 -127l-6 -33v-121l2 -6v-63l8 -19l9 -53l24 -90l8 -12l11 -21l16 -41l21 -30l4 -7v-6l-21 -55h-6l-8 14l-19 33l-10 21l-20 28l-7 23l-6 12 l-16 49l-14 29l-11 41l-6 37l-2 24l-6 80v25l2 8zM139 700l4 13l39 59l31 33v6l12 25l43 77l-18 82l-14 41l-33 133l71 62l48 24l12 9l6 4l51 16l31 2l4 47l2 6l-8 19v47l-4 22v23h16l14 -4l17 6l29 -2l6 2h4l4 -10l-6 -45v-23l-2 -31v-14l-2 -43l4 -2h35l32 -10l21 -17h37 l34 -24l7 -16l4 -121l-4 -6h-4l-3 8l-8 4l-22 24l-21 17l-43 35l-14 12l-8 2l-23 10l-49 2l-33 -14l-22 -23l-29 -22l-20 -35l-7 -14l-14 -29l-4 -18l-10 -17l-2 -31l-2 -18l-19 -82l-4 -35l-6 -82v-32v-27l-2 -39v-45l14 -143l8 -47l5 -37v-8l22 -60l14 -43l23 -37l12 -18 l4 -8l35 -21l39 -18l68 2l22 6h23l12 12l51 39l21 27l6 10l4 -4v-19l2 -90l-2 -22l-37 -25l-45 -22h-18l-45 -15l-33 -4l-4 -59l4 -78l4 -25v-20l-4 -6l-15 4l-16 2l-16 -2h-31l-4 6l2 57v37l6 19l-4 22v41l-4 6l-29 -6l-49 25l-18 6l-43 29h-9l-34 30l-25 25l-12 16l18 76 l17 39l4 4l2 12l30 113l2 10v6l-34 50l-17 28l-16 17l-10 20l-13 33l-39 55zM139 823l4 29l13 39l14 33l8 12l17 14l16 8l14 -4l2 -6l-2 -10l-10 -31l-8 -22l-19 -27l-16 -22l-14 -11zM143 553v18v11h7l43 -43l14 -29l10 -29l8 -28v-21l-2 -6l-4 -4l-8 6l-25 16l-18 23 l-21 45zM422 1116l4 10v19l6 10l14 6l35 17l15 2l4 -2l-2 -86l-2 -78l-4 -29l2 -47v-43l-2 -31l2 -211l-2 -41l6 -24l-4 -125v-47l-2 -6l4 -37l2 -94l-2 -11l2 -41l-19 4l-20 17h-13l-16 8v31l2 57v82l2 10v10l-4 95l-2 137l6 39l-2 31l-2 83l2 140z" />
<glyph unicode="&#xa3;" horiz-adv-x="860" d="M25 565v62l2 18l-2 27v24l57 -12l20 6l43 -6v-45v-47v-8l-4 -11l-8 5h-39l-8 2zM162 4l4 47l2 72v129l6 24l-6 66l-2 25l4 28l4 78l-4 53v27l4 156l-4 53v41v18l4 41v76l4 47l8 37l13 31v24l30 88l23 41l16 23l4 6l23 -45l6 -19l2 -14l-12 -14l-29 -60l-18 -45l-6 -34 l-13 -134v-20l4 -25l-2 -204l4 -13l-8 -59l8 -35v-84l5 -53v-31l-5 -35v-53l5 -35l-5 -35l7 -30v-76l4 -53l-4 -9l4 -16v-10h-76zM246 252l4 8l18 39l23 20l33 15l2 -4l-4 -19l-11 -28l-12 -23l-31 -18h-20zM246 662l4 4l16 -7l19 -20l16 -31l8 -37l2 -32l-2 -2l-22 12 l-17 24l-8 23l-10 31zM262 145l4 15l6 20l19 33l20 23l23 6h18v-9l-12 -38l-25 -35l-14 -15l-22 -10l-13 -2zM262 975l14 37l15 28l10 19l29 28l10 5h4l-2 -27l-16 -47l-11 -19l-14 -14l-20 -14h-15zM268 4l2 35l2 8l45 47l21 17l4 18l25 31l39 53l-33 82l-6 6l-9 27 l-57 108l-2 13l27 51l20 39l12 10l7 12l18 51l18 33l2 10l-24 70l-21 25l-30 53l-31 78l12 24l33 58l10 2l13 32l30 66l-37 88l-20 20l-29 72l-14 27l51 47l23 20h24l23 29l55 25h18l17 6h16l8 -2l31 2l55 -6l23 -9h20l58 -28l26 -19l17 -12l18 -29l25 -59l12 -35v-22l4 -54 v-20l-26 -76l-29 -53v-4h-6l-4 -8l-13 -19l-32 -29l-43 -18l-17 -10l-31 57v2l23 19l23 22l8 23l2 2l10 98v37l-10 35l-8 43l-19 41l-10 12l-37 29l-33 10l-6 6l-14 -6l-51 -45l-25 -62l2 -4l-8 -49l-6 -145l-6 -19l4 -78l-4 -104v-68l4 -10l-2 -43l-4 -12l10 -105l-4 -65 l-2 -115l6 -74v-45l-2 -14v-80l-4 -22l10 -60v-43l4 -69l-20 2l-62 10l-29 -6l-14 2h-70zM276 766l5 8l18 -8l10 -8l25 -27l10 -22l10 -64l4 -6l-6 -6h-12l-35 29l-8 16l-16 65zM479 680l4 10l13 -4l75 4l11 -6l24 6l29 2l29 4l4 2v-84v-49l-2 -6l-37 12l-49 9l-13 -2l-22 2 l-47 -2l-11 -5l-4 5v67zM487 186l58 -6l59 2l25 6l39 11h22l27 14l47 20l39 27l8 4h4l2 -22l-2 -41l-12 -86l-6 -60l-4 -57l-5 -12l-67 8l-53 -6h-25l-18 10l-2 4l-15 -10h-51l-8 2h-25l-22 -6l-6 4v65z" />
<glyph unicode="&#xa4;" horiz-adv-x="702" d="M57 678l4 12l48 53l24 23l57 29l15 -4l14 -7l12 -2l17 2l10 -6l27 -6l37 -16l20 -15l33 -30l20 -27l-2 -8l-22 -27l-39 -24l-31 -13l-16 6l-13 -22l-4 -2l-49 -4l-14 4h-15l-18 10l-27 2l-14 10l-35 21zM233 338l5 8l55 66l8 12l33 47l12 23l19 22l24 43l14 16l17 35 l37 62l-4 16l-7 19l-14 18l-29 66l-14 18l-53 94l-19 23l-24 35l-31 36l-18 13l-4 10l2 8l20 41l17 35l6 10l16 41l12 -20l23 -56l24 -59l11 -31h4l10 -16l8 -12l21 -46l32 -59l11 -31h4l12 -12l19 -37l28 -57l21 -25l2 -6v-4l-8 -12l-7 -13l-32 -59l-19 -37l-14 -26 l-19 -43h-2l-39 -66l-26 -57l-21 -31l-6 -18l-39 -91l-6 7l-8 14l-16 22l-17 29l-18 19l-10 12zM549 158l2 28l6 86v39l2 27l2 96l6 29l-4 2v33v159l-2 21l2 18v27l-2 20l2 33v156l-6 35l2 24l-2 47l2 47l-10 97v26l2 2l29 -6h43l12 6l2 -6l4 -2l-4 -14l4 -25l-6 -102 l-8 -41v-4l4 -80v-240l-2 -55v-25l2 -38l-4 -21l4 -33l4 -90v-96l2 -14v-31l4 -21l6 -127l-6 -2l-20 7h-70z" />
<glyph unicode="&#xa5;" horiz-adv-x="872" d="M33 1366l2 6l6 2l53 -2l12 -4l78 -262v-25l21 -47l18 -57l19 -53l16 -56l16 -59l11 -23l16 -59l29 -84l2 -14l-4 -156l-4 -22l2 -27v-113l2 -35l-6 -86l4 -30l2 -25v-84l4 -45l-2 -12l-2 -2h-74l10 86l8 213l2 22l-2 66v63l2 88l-2 21v76l-12 43l-18 6h-60l-6 -2h-55 l-8 2l-54 -6l2 22l2 101l3 6l51 -17l2 -2l14 13l51 -7l23 2l18 -2v2l-30 107l-5 27v2l-10 12l-4 16l-37 115l-24 80l-6 27l-9 20zM61 436l2 19v67l3 29l-3 22h3l28 -6l94 -12l2 -4l17 10l29 -6h8v-59v-35l-2 -17l-35 5l-45 -5l-25 -6h-8l-14 4l-33 -10h-19zM143 1372h21 l65 -4l7 -2l57 6h39l28 6l23 -4l10 -49l6 -35l13 -53l20 -72l19 -65l10 -82l2 -10l12 -25l4 -20l25 -105l16 -55l4 -8l19 -78l8 -27l27 -69l-3 -25l-4 -104l-2 -95l-2 -37l6 -71l-6 -90l6 -82l5 -19l2 -106l-5 -6l-16 2l-53 10l-41 2l-16 -6l-76 -2l-8 2l4 59l32 41l13 25 l43 39l6 20l20 45l25 41l6 15l-2 6l-53 92l-43 59l-25 37l-6 6l4 10l12 37l23 60l18 30v11l4 18l29 88l6 29l-24 33l-25 20l-47 33l-59 57l-4 10l4 50l24 116l-6 19l21 88l-41 31l-56 28l-18 21h-14l-43 28l-31 19l-10 16zM199 1208v4l18 2l23 -2l20 -6l12 -16l19 -25 l16 -35l4 -10l-6 -8h-6l-27 2l-22 14l-12 13l-29 37zM209 1090l4 4l23 2l18 -2l14 -17l29 -30l10 -25v-8l-6 -2h-14l-21 6l-22 16l-19 25zM334 715v30l2 11l4 18l12 25l4 6l21 16h2l4 -6l-4 -35l-4 -35l-25 -43l-14 -6zM340 242v24l4 19l16 -9l25 -26l16 -27l9 -33l4 -18 v-12l-6 -8h-11l-18 12l-23 37l-10 22zM358 573l2 37l5 35l10 37l16 35l27 28l8 7h2v-31l-12 -66l-13 -28l-18 -31l-8 -12l-17 -15zM373 401l30 -16l15 -12l4 -6l24 -54l11 -43v-10l-4 -6h-9l-20 16l-21 21l-20 41l-8 39zM528 901l11 27l45 96l4 16l39 115l12 29l6 28l29 109 l4 22l6 19l43 -2h88l31 6h10l-2 -16l-25 -43l-41 -105l-18 -31l-22 -69l-35 -84l-11 -35l-28 -72l-15 -24l-6 -35v-10l-18 -43h29l59 -6l43 6h16l4 -4l-2 -27l2 -92l-6 -6l-32 6l-64 6l-4 4l-12 -6l-76 -4l-21 59l-4 29l-4 18l-4 4l-14 50zM598 461l2 28l-2 62l4 16l33 -6 l6 6l76 2l6 4h25l22 11h4l10 -9v-114l2 -19h-8l-22 9l-54 4l-24 8l-19 -6h-49z" />
<glyph unicode="&#xa7;" horiz-adv-x="401" d="M57 631h17l69 -6l29 12l45 -6l27 6h69l6 -6l27 6v-12l-31 -50l-28 -59l-27 -43l-33 -72l-16 -22h-12l-13 16l-43 72l-14 27l-6 22l-23 23l-16 36zM57 1303v10l6 6h82l23 -6l37 6h141l-6 -23l-25 -43l-30 -49l-19 -39l-59 -102l-6 -6l-56 98l-16 33l-23 22l-18 33zM63 281 v16h123l21 6l31 -6l98 6l6 -10l-8 -23l-70 -114l-14 -39h-2l-43 -66h-6l-21 33l-51 88l-8 10l-17 45zM63 965v4l74 -4h51l99 4h55l-2 -11l-21 -38l-49 -82l-14 -33l-8 -21l-43 -71l-60 104l-16 33l-6 4l-29 33z" />
<glyph unicode="&#xa8;" horiz-adv-x="593" d="M82 1597v23l8 63l12 19l27 29l16 10l9 -2h28l15 -13l28 -61l8 -14l-2 -25l5 -33l-11 -24l-6 -19l-6 -14l-2 -14l-12 -21l-19 -4l-30 -18l-23 4l-27 24l-12 23zM358 1597v23l9 63l14 19l27 29l16 10l6 -2h29l14 -13l29 -61l8 -14l-2 -25l4 -33l-8 -24l-6 -19l-9 -14v-14 l-14 -21l-18 -4l-31 -18l-23 4l-26 24l-12 23z" />
<glyph unicode="&#xa9;" horiz-adv-x="768" d="M57 492l11 14l22 33l25 32l18 31l14 12l19 37l16 -24l19 -35l12 -17l18 -32l5 -17v-8l-25 -39l-16 -20v-8l8 -13l8 -35l2 -4h6l14 -20l23 -41h4l27 37l32 55l13 16l10 25l12 25l19 22l35 53l2 17l28 35l4 16h4l11 -16l26 -52l19 -28v-8l-35 -76l-27 -29l-8 -22l-45 -74 l-20 -43l-33 -37l-4 -23l-62 -98h-10l-4 10l-49 84l-17 19l-32 61l-45 72l-21 43l-31 53zM66 883v8l36 57l31 47l12 13l5 4l6 16l12 23l76 108l24 41h8l39 -72l19 -16l6 -16l27 -45l2 -11l-9 -16l-16 -25l-22 -36l-19 -23l-6 -12l-8 8l-35 51l-43 -63l-6 -13l-17 -28v-4 l23 -35l10 -29l23 -24l57 -105l47 -84l19 -43v-8l-21 -29l-14 -22l-4 -13l-19 -24l-16 12l-25 35l-20 45l-12 29l-13 14l-18 37l-23 41l-45 59l-14 33l-10 27l-29 53zM254 819v8l6 13l19 16l73 107l17 8l8 33l8 24l18 31l29 37l33 63l35 68h10l10 -27l19 -29l4 -12l8 -4 l14 -22l17 -33l41 -60l14 -28l16 -13l15 -20l30 -64l11 -8v-12l-35 -59l-8 -25l-13 -8l-16 -25l-16 -35l-25 -36l-18 28l-21 33l-12 23l-8 24v12l36 56v4l-10 16l-14 17l-41 67h-6l-23 -43l-14 -16l-21 -41l-24 -35l-4 -4l-49 -76l-13 -20l-24 -33l-11 -17h-4l-24 58z M401 778l33 45l33 51h4l49 -88l23 -30l32 -49l50 -80l22 -29l41 -76l23 -26v-17l-56 -96l-12 -8l-18 -41l-7 -15l-38 -57l-39 -63l-29 -41l-6 -19l-8 11l-15 16l-12 20l-6 21l-23 20l-30 60l-9 24l27 43l23 41l6 15l12 14l6 -12l12 -21l21 -33h2l12 17l13 12v12l4 13l24 30 l2 4l11 25l-41 68l-17 16l-12 47l-23 25l-26 45l-8 8l-31 55l-17 17z" />
<glyph unicode="&#xaa;" horiz-adv-x="890" d="M57 428v10l13 17l36 22l21 6l18 -2l13 -6l16 -12l25 -27v-4l-21 -16l-33 -17l-24 -4l-43 19zM170 629l55 -2l15 -6l18 -3l33 3l14 75l10 27l4 29l5 26l10 41l6 21v6l2 4l23 -27l28 -37l4 -4l9 -14l14 -12l18 -19l8 -16l7 -6l53 55v6l14 19l23 24l26 23h6l17 -101l4 -59 l8 -37l2 -6l15 -12l10 -4l12 2l66 -19l8 -6l2 -8l-8 -27l-29 -65l-8 -13l-2 -22l-8 -16l-9 -29l-6 -8l-14 -4l-10 8l-9 35l-4 24l-2 23l-12 34l-35 43l-12 21l-16 2l-41 20l-33 7l-53 -4l-31 -21l-53 -41l-15 -20l-6 -17l-2 -8l-8 -22l-2 -13l-10 -47l-2 -10l-17 -12h-12 l-21 49l-12 37l-14 20l-21 66l-2 6zM201 817l4 51l2 6h6l12 -12l29 -45l12 -29l10 -43l7 -69l-4 -10l-7 -2l-14 12l-20 24l-21 33l-10 25l-2 18zM426 868v29l6 37l6 22l15 37l8 17h4l12 -27l10 -35l2 -24v-47l-10 -52l-10 -37l-10 -20h-4l-19 47zM621 674l8 31l18 57l8 12 l25 27l25 16l18 4l12 -6l-6 -27l-2 -18l-16 -35l-9 -12l-20 -23l-33 -22l-14 -8zM686 428v6l19 27l18 14l16 8h37l37 -20l14 -14l7 -11v-6l-7 -12l-20 -14l-33 -13l-29 -2l-40 19z" />
<glyph unicode="&#xab;" horiz-adv-x="540" d="M16 528l4 7l62 155l8 4l37 92l37 88l12 7l6 16l15 55l20 39l8 -4l6 -6l-8 -88l-2 -74v-45l-4 -37l-2 -6v-18l6 -23l-2 -16l-4 -101l2 -36l2 -9l-2 -34l-4 -41v-7l-2 -38v-13l4 -14l4 -10v-35l2 -66l4 -30v-84l4 -27l2 -47v-8l-4 -19l-10 -6l-31 62l-8 34l-20 35l-37 113 l-45 88zM268 528l4 7l62 155l10 4l35 92l37 88l12 7l6 16l15 55l20 39l8 -4l6 -6l-8 -88l-2 -74v-45l-4 -37v-6v-18l4 -23l-2 -16l-2 -101v-36l2 -9l-2 -34l-4 -41v-7l-2 -38l2 -13l4 -14l2 -10v-35l2 -66l4 -30v-84l4 -27l2 -47v-8l-4 -19l-10 -6l-29 62l-10 34l-20 35 l-37 113l-45 88z" />
<glyph unicode="&#xac;" horiz-adv-x="798" d="M57 696l31 58l21 34l55 78l98 164l37 57l31 72l65 92h13l51 -65l33 -70l16 -43l14 -20l29 -29l121 -213l12 -8l59 -113v-14l-81 -135l-29 -35l-23 -51l-24 -35l-17 -35l-116 -184l-37 -72l-8 -14h-7l-32 57l-39 55l-21 52l-35 49l-67 121l-43 49l-33 71l-70 113zM143 696 l2 -14l15 -29l20 -35l19 -49l37 -28l98 -193l20 -20l23 -49l24 -23l189 299l47 57l12 50l13 20v14l-101 158l-74 133l-90 121h-2l-30 -49l-39 -72l-39 -41l-45 -72l-31 -63zM211 682v14h111l51 -6h47l76 15l98 -9v-14l-59 -92l-17 -6l-31 -72l-77 -121h-9l-16 23l-43 55 l-29 29l-26 57l-21 43l-24 29zM291 874v15l6 14h8l25 -14l24 -15l35 -49l21 -86l-2 -6h-19l-51 35l-29 57zM395 946l6 15l27 -9l43 -34l35 -87l12 -57l-10 -6h-16l-60 57l-24 49z" />
<glyph unicode="&#xad;" horiz-adv-x="479" d="M49 631l8 12h11l34 -12l68 -15l14 -12l41 12h51l60 7l8 -7l29 9l43 10h6l6 -10v-103l-2 -24l4 -86l-4 -9l-20 3h-5l-28 12l-54 -2l-34 6l-11 6l-20 -6h-55l-23 -4h-63l-29 -6l-2 -2l-14 -4l-9 -3l-8 7l2 28l4 62l-4 39l-2 61z" />
<glyph unicode="&#xae;" horiz-adv-x="874" d="M57 444v138l2 39l-2 59v235l13 -12l26 -37l31 -55l23 -27l61 -98l4 -12l-59 -92l-19 -27l-14 -39l-21 -33l-34 -49h-9zM266 444l4 121v88l-4 164v92l8 -6l23 -33l49 -82l19 -20l14 -16l43 -72l-64 -98l-18 -27l-4 -12l-17 -43l-4 -6l-45 -50h-4zM467 625l4 77l-4 43v115 l4 10l-4 45h6l29 -49l37 -49l26 -45l43 -53l13 -29v-20l-11 -23l-41 -72l-18 -20l-12 -12l-13 -37l-24 -29l-31 -43v27l2 114zM668 686l2 49l-2 164l6 10l12 -16l70 -115l22 -22v-4l39 -72v-10l-20 -33l-52 -88l-6 -10l-26 -29l-33 -66h-10v203z" />
<glyph unicode="&#xaf;" horiz-adv-x="561" d="M57 971l2 78v45l4 30l3 4h6l20 -51l31 -57l8 -27l8 -14l8 -4l17 -37l2 -6l6 -6l27 -60l8 -14l14 -16l25 -50l57 -96l6 -10l-8 -18l-33 -58l-18 -41l-6 -6l-13 -12l-4 -29l-28 -43l-21 -35l-12 -22l-8 -19l-2 -4l-19 -18l-6 -19l-12 -26l-35 -58l-18 -34h-7v88l7 71l-5 41 v4l5 50l4 18l-11 41l4 141l-4 31l4 27l-4 77v43v27l2 2v23l2 2zM141 1085l4 31l15 47l14 25l10 10l23 23l24 16h11l-2 -18l-2 -19l-7 -29l-12 -32l-26 -41l-13 -15l-24 -14h-13zM150 281l2 6l24 -15l23 -22l16 -29l16 -49l5 -29v-30l-5 -13l-14 9l-29 28l-12 23l-14 33 l-4 24zM217 932l8 39l13 37l12 22l26 33l23 18l23 11l12 -5l-10 -30l-17 -47l-20 -33l-29 -29l-18 -12l-21 -6zM225 408l2 6l15 -4l30 -21l19 -24l12 -19l14 -51l5 -21v-4l-5 -24l-2 -4h-8l-10 6l-25 24l-12 19l-16 47l-17 47zM289 809l10 31l18 53l19 27l29 24l28 12h4 l2 -2v-12l-2 -12l-6 -21l-12 -41l-21 -26l-39 -37l-8 -2l-20 -6zM303 537l2 10l8 6l25 -10l33 -25l20 -24l12 -25l11 -31l6 -24l2 -15h-19l-24 13l-27 24l-20 29l-15 35zM344 684v6l18 23l23 16l18 12h43l27 -12l29 -27l2 -12l-12 -16l-17 -12l-33 -11h-22l-45 13l-23 12z " />
<glyph unicode="&#xb0;" horiz-adv-x="401" d="M57 57v11l31 61l18 33l23 20l16 33l56 98l6 -4l10 -16l49 -88l19 -39l30 -49l25 -43l6 -23h-141l-37 6l-23 -6h-82zM57 739l27 56l16 39l23 20l6 23l14 26l43 72l13 16h12l16 -22l33 -70l27 -45l28 -59l25 -39l6 -11v-10l-27 4l-6 -4h-69l-27 4l-45 -4l-29 10l-69 -6h-17 zM63 401v7l31 75l2 6l33 33l16 33l60 102l43 -69l8 -23l14 -33l49 -81l21 -39l2 -11h-55l-99 7h-51zM63 1073v17l39 55l17 43l8 10l72 121h6l43 -66h2l14 -39l70 -114l8 -21l-6 -12h-10l-88 6l-31 -6l-21 6h-123z" />
<glyph unicode="&#xb1;" horiz-adv-x="800" d="M57 639v8l4 12l9 -8l57 -51l16 -4l-8 51l2 31l6 24l-6 21v27l6 26l-10 -4l-57 -27l-15 -12l-4 4l2 51l13 64l4 31l8 32h4l37 -84l18 -22l21 86l20 47l4 12l-2 4l-20 11l-19 -2l-30 10l-13 12l5 17l28 51l6 18l25 37l8 6l2 -2l6 -67l15 -68h2l16 33l19 14l8 21l32 38v5 l-65 71v2l12 21h2l60 51l24 16l-10 -67v-47l-2 -17v-22l18 4l21 12l24 6h31l4 4l-22 68l-19 47l-4 8l4 8l13 5h90l2 -17l-8 -16l-37 -107l2 -4l41 -2l26 -16l23 -17h2v60l-4 16v58l4 12l16 -4l13 -8l16 -19l10 -4l21 -20l14 -19v-8l-57 -55l-19 -27l31 -25l10 -20l19 -23 l10 -20l2 -8l4 -2l18 65l7 29l8 31l6 8l10 -4l4 -17l8 -22l7 -13l24 -43l12 -43l-4 -8l-45 -4h-20l-19 -8v-4l9 -27l2 -20l16 -31l12 -76l33 51l16 17l11 22h10l14 -61l6 -84v-14l-4 -9l-84 52v-17l7 -22l-3 -37l-4 -31l4 -16l3 -23l-7 -12l4 -4h13l8 8h6l25 8l22 19l8 -6 l-2 -21v-20l-2 -19l-4 -24l-4 -31l-4 -21l-8 -26l-4 -13h-4l-13 25l-12 18l-10 29l-21 47h-2l-8 -51l-25 -68l-6 -16l-2 -10l33 -12l21 -5l22 -4l6 -4l-28 -82l-27 -43l-12 -12l-13 55l-2 27l-16 51l-14 -22l-19 -29l-39 -47l35 -47l27 -23l8 -12v-8l-37 -39h-10l-33 -29 l-20 -2l-5 6l5 37l4 47l6 10l4 52h-2l-15 -11l-55 -28h-31l27 -64l21 -61l-19 -12l-18 -5l-31 9l-41 8l-4 8l22 61l9 13l4 12l8 35l2 -4l-33 8l-26 12h-15l-12 15v-70l2 -64l-2 -8l-31 17l-10 4l-10 16l-23 10l-10 13l-12 20l57 47l16 23v4l-20 20h-4l-45 74l-17 -51v-6 l-12 -68l-6 -8l-39 68h-4l-6 30l-8 21l-9 22l31 13h33l20 12l-20 57l-2 21l-12 34l-4 13v16h-3l-4 -4l-26 -31l-35 -59h-4l-17 61l-2 37v31zM170 707l6 -33v-35l8 -90l27 -72l2 -14l14 -33l17 -22l6 -13l57 -55l17 -10l36 -17l21 -12l8 4l41 4l10 4l29 9l25 18l28 29l17 18 l24 37l37 86l14 43l9 72l2 49l-2 37l-5 39v30l-18 76l-14 35l-15 29l-8 22l-24 31l-58 67l-30 13h-31l-12 12h-21l-45 -16h-14l-54 -39l-18 -33l-14 -10l-15 -25l-28 -72l-19 -77l-6 -21zM201 698l4 31l8 51v21l10 35l4 16l11 -4l18 -25l12 -10l8 -16l35 -39l11 30l16 29v4 l-31 53l-20 48l-6 16l22 29l14 10l11 4l26 20h15l4 -4l-2 -34l8 -103l2 -4h18l19 -12l4 8l8 63l2 27l2 51l6 8l35 -16l37 -39l12 -24l-20 -39l-12 -19l-11 -20l-6 -8l-10 -27l24 -51l35 30l39 48h4l13 -39l2 -21v-22l6 -43v-17l4 -35l-23 5l-43 18l-26 -4l-4 -39l-7 -35 l29 -20l6 -4h13l26 -15l4 -8l2 -16l-14 -39l-14 -35l-19 -33l-4 -10l-8 -4l-37 106l-12 23l-12 -8l-9 -4l-8 -11l-14 -8l28 -135l-2 -6l-18 -12l-29 -5l-14 9l-27 4h-6v14l21 115l2 20l-31 31l-23 -47l-2 -8l-28 -70h-4l-17 18l-14 29l-4 2l-19 45l-12 35l4 8l86 47l-6 43 l-4 27h-2l-25 4h-24l-10 -4h-29zM328 694l6 -51l4 -18l20 -37l23 -19h29l12 4l12 7l10 20l21 31l4 16l-4 86l-16 33l-11 14l-22 17l-25 4l-20 -8l-17 -17l-6 -6l-18 -63z" />
<glyph unicode="&#xb4;" horiz-adv-x="466" d="M82 1456l8 23l55 100l27 41l14 12l13 19l16 37l35 59l16 16l27 43l18 41h6l7 -6l6 -14l16 -53l12 -29l13 -31l14 -28l-2 -13l-37 -26l-37 -31l-39 -19l-16 -28l-12 -6l-144 -119h-8l-6 4z" />
<glyph unicode="&#xb6;" horiz-adv-x="874" d="M57 670v10l39 72v4l23 22l69 115l13 16l6 -10v-16l-2 -148l2 -49l-2 -39v-203h-10l-33 66l-25 29l-8 10l-51 88zM254 670v20l12 29l43 53l27 45l37 49l28 49h7l-5 -45l5 -10v-115l-5 -43l5 -77l-7 -50l2 -141l-30 43l-25 29l-12 37l-12 12l-19 20l-41 72zM453 680l43 72 l14 16l20 20l50 82l20 33l8 6v-92l-4 -164v-88l4 -121h-4l-45 50l-4 6l-16 43l-2 12l-21 27zM659 674l5 12l10 16l53 82l21 27l30 55l27 37l12 12v-235l-2 -59l2 -39v-138l-2 -10h-8l-35 49l-20 33l-13 39l-20 27z" />
<glyph unicode="&#xb7;" horiz-adv-x="319" d="M57 647v35l9 45l10 37l30 53l21 8l12 9h17l14 8h18l31 -29l12 -12l21 -62l6 -34v-25l4 -6v-17l-6 -43l-14 -45l-19 -22l-16 -19l-14 -6l-11 -4l-6 -6l-10 -10l-14 4l-33 8l-17 16l-8 19l-6 2l-12 18l-13 45z" />
<glyph unicode="&#xb8;" horiz-adv-x="491" d="M41 0v1366h410v-1366h-410zM49 14h393v1338h-393v-1338z" />
<glyph unicode="&#xba;" horiz-adv-x="890" d="M57 965v8l21 16l43 17l24 -2l33 -19l21 -16v-2l-25 -27l-16 -12l-13 -6l-18 -2l-21 6l-36 22zM170 774l10 39l2 6l21 66l14 22l12 37l21 49h12l17 -12l2 -10l12 -60l8 -22l2 -10l6 -17l15 -18l53 -43l31 -19h6l47 -4l33 4l41 21l16 4l12 20l35 43l12 35l2 21l4 26l9 33 l10 10l14 -4l6 -10l9 -29l8 -14l2 -23l8 -12l29 -67l8 -25l-2 -10l-8 -6l-66 -17h-12l-10 -2l-15 -12l-2 -6l-8 -37l-4 -59l-17 -101h-6l-26 23l-23 22l-14 19v8l-53 53l-7 -6l-8 -14l-18 -19l-14 -12l-9 -14l-4 -5l-28 -36l-23 -27l-2 2v6l-6 23l-15 65l-4 29l-10 29 l-14 75h-33l-18 -2l-15 -6h-55zM201 584l4 41l2 18l10 25l21 34l20 25l14 12l7 -4l4 -8l-7 -70l-10 -43l-12 -28l-29 -45l-12 -13h-6l-2 7zM426 506v29l10 53l19 45h4l10 -19l10 -39l10 -49v-47l-2 -24l-10 -35l-12 -29l-4 2l-8 15l-15 38l-6 23zM621 729l14 2l14 -6l33 -23 l20 -22l9 -14l16 -33l2 -21l6 -24l-12 -6l-18 4l-25 16l-25 25l-8 14l-18 55zM686 969v6l19 18l40 17h29l33 -15l20 -12l7 -12v-6l-7 -11l-14 -14l-37 -20h-37l-16 6l-18 16z" />
<glyph unicode="&#xbb;" horiz-adv-x="540" d="M57 74l2 8l2 47l5 27v84l4 30v66v35l4 10l4 14l2 13l-4 38v7l-4 41l-2 34l2 9l2 36l-4 101v16l4 23v18l-2 6l-2 37v45l-4 74l-7 88l7 6l6 4l22 -39l15 -55l6 -16l10 -7l4 -8l33 -80l37 -92l8 -4l8 -16l53 -139l4 -7l-6 -16l-51 -131l-47 -88l-35 -113l-20 -35l-11 -34 l-30 -62l-9 6zM309 74l2 8l2 47l4 27v84l5 30l2 66v35l4 10l2 14l2 13l-4 38v7l-4 41v34v9l4 36l-4 101l-2 16l6 23v18l-4 6l-2 37v45l-3 74l-8 88l6 6l7 4l22 -39l14 -55l7 -16l10 -7l4 -8l35 -80l35 -92l8 -4l8 -16l55 -139l4 -7l-8 -16l-51 -131l-47 -88l-35 -113 l-20 -35l-11 -34l-30 -62l-9 6z" />
<glyph unicode="&#xbf;" horiz-adv-x="591" d="M33 299v18l2 25l-2 12v29l12 61l12 60l19 41l18 59l10 29l11 16l4 29l49 84l53 94l19 27l4 20l59 86l14 27h7l34 -70l-2 -10h-10l-12 -12l-19 -27l-22 -41l-6 -12l-31 -35l-59 -100l-17 -23v-8l-8 -35l-31 -53l-20 -58l-21 -73l-20 -94l4 -17v-24l-2 -25l8 -57l6 -35 l21 -35l10 -8v-6l-29 -52h-2l-12 21l-6 -8l-4 10l2 4v2l-6 6l-11 37h-4l-2 8l-6 15l-2 16l-8 43zM109 301v23l4 24l4 6l16 -24l8 -23l6 -37l5 -18v-23l-7 -28l-6 -6l-8 12l-18 51zM125 66v10l43 65l6 6l2 17l14 35l19 20l29 76l-13 59l-14 47l-6 43l-29 101v6l25 10l47 19 l33 10l16 12l25 8l26 4l6 37v19l11 51l-5 18v25l9 123v12l4 12h4l41 -59l20 -49l25 -33l33 -59l-4 -6l-35 -31l-39 -64l-58 -96l-8 -25l-16 -38l-31 -97l-8 -96l-4 -59v-21l14 -43l4 -22l21 -43l4 -7l31 -4l6 -6l12 4l29 23l20 14l19 25l14 20l25 47l8 21l4 6v12l26 88 l13 54l10 22l6 6l8 -6v-6v-119l-4 -78l4 -45l-4 -61v-23l-4 -12l-4 -4l-25 -18l-30 -17l-19 -6h-14l-10 -2l-62 -23l-43 -8h-16l-14 2l-17 11h-37l-24 8l-21 4l-47 24l-26 23h-7v8zM145 360v41l5 48l4 2l4 -7l14 -18l4 -18l12 -56l5 -22l-3 -37l-8 -21l-16 21l-16 43z M205 631v6l16 31l17 16l30 8h39l17 -12v-2l-7 -16l-38 -35l-25 -13l-35 11zM223 1194l6 25l-4 18v12l19 54l10 16l33 53l24 2h41l13 -8l18 -16l6 -2l12 -11l17 -34l14 -37l-4 -25l4 -22v-29l-4 -41l-20 -53l-11 -13l-22 -20l-15 -6l-4 8l-10 -23l-4 -2l-16 2l-11 5l-22 2 l-4 4l-15 12l-24 35l-17 41l-8 35zM244 743l4 9l16 22l19 17l14 6h12l25 -6l2 -11v-6l-19 -22l-24 -15l-29 -4l-16 6z" />
<glyph unicode="&#xc0;" d="M8 0l10 31l15 39l8 24l16 51l9 9l14 63l31 117l14 47l18 76l25 94l8 24l10 37l13 23l12 76l8 43l19 67l8 31l12 31l10 22v39l17 109l10 47l8 28h2l6 -8l4 -26l11 -43l8 -35l16 -80l10 -33l17 -67v-17l-10 -31l-11 -22l-4 -31l-18 -41l-6 -51l-31 -119l-10 -24l-25 -76 l-2 -33l-33 -143l-16 -58l-4 -47l-12 -53l-2 -24l-9 -54l-6 -12l-4 -4l-55 8h-62l-18 -6l-16 4zM276 377l5 6h43l41 -16l43 6h55l29 4l16 -6l-8 -31l-33 -82l-6 -6l-10 -27l-17 -28l-26 -82l-13 -27l-10 -4l-25 59v13l-10 16l-41 115l-24 55zM281 1354l2 12l41 -6h30l4 -6 l13 -56l14 -71l16 -72l2 -25l9 -16l4 -22l14 -56v-24l6 -17l25 -92l22 -112l17 -66l2 -33l16 -37l4 -28l35 -174l12 -41l6 -54l13 -39l4 -22l12 -47l27 -127l33 -125l-72 2l-4 6l-8 55l-15 84l-2 23l-14 59l-25 125l-12 43l-6 51l-4 37l-13 25l-28 131l-21 90l-6 41l-12 23 l-25 112l-10 47l-10 39l-4 25l-15 47v22l-10 37l-10 25l-10 35l-15 63l-16 62zM285 1686l8 14l6 14l15 31l12 29l16 53l4 14l9 6h6l18 -41l27 -43l14 -16l37 -59l16 -37l13 -19l14 -12l25 -41l57 -100l6 -23v-8l-6 -4h-8l-146 119l-12 6l-14 28l-41 19l-37 31l-35 26z M383 1352v10h82l29 -8l110 14l6 -4l4 -6l2 -31l5 -18l4 -37l18 -92l6 -39l19 -70l30 -160l11 -59l10 -18l31 -185l14 -31l2 -2l41 -196l12 -33l8 -31l7 -65l12 -31l8 -16l8 -37l49 -168l9 -35v-6l-9 -6l-43 6l-47 2l-8 8l-25 -8l-55 2l-31 -4l-6 10l-6 27l19 53l26 62l2 12 l11 20l14 39l26 72l-20 29l-47 47l-21 32l-18 11l-55 63l-4 6l32 176l13 33l4 62l-29 34l-49 45l-64 66l27 125v16l12 35l2 23l15 71l-33 31l-53 43l-25 29l-18 2l-49 33l-11 6l-4 6zM434 1212l23 2l24 -8l39 -35l6 -10l23 -61l-2 -6h-21l-14 6l-39 28l-22 31l-11 21z M438 1094l21 -4l18 -9l27 -24l16 -29l6 -18l-2 -6l-12 -7l-18 -4l-19 19l-18 24l-17 35zM532 678v37l5 35l10 28l14 29l4 6h4l11 -37l-5 -35l-8 -47l-20 -47l-4 -4l-4 4zM575 582l3 53l4 29l16 41l14 22l11 12l6 -6l2 -26l-6 -66l-9 -35l-10 -37l-14 -30l-6 -9l-4 15z M618 362l5 11h28l25 -15l29 -24l10 -17l12 -36v-13l-18 -2l-29 10l-27 25l-20 27l-4 8l-6 20zM623 238v10h32l17 -10l18 -19h2l13 -33l6 -18l-2 -8l-23 -6l-18 12l-15 10l-16 21z" />
<glyph unicode="&#xc1;" d="M8 0l10 31l15 39l8 24l16 51l9 9l14 63l31 117l14 47l18 76l25 94l8 24l10 37l13 23l12 76l8 43l19 67l8 31l12 31l10 22v39l17 109l10 47l8 28h2l6 -8l4 -26l11 -43l8 -35l16 -80l10 -33l17 -67v-17l-10 -31l-11 -22l-4 -31l-18 -41l-6 -51l-31 -119l-10 -24l-25 -76 l-2 -33l-33 -143l-16 -58l-4 -47l-12 -53l-2 -24l-9 -54l-6 -12l-4 -4l-55 8h-62l-18 -6l-16 4zM276 377l5 6h43l41 -16l43 6h55l29 4l16 -6l-8 -31l-33 -82l-6 -6l-10 -27l-17 -28l-26 -82l-13 -27l-10 -4l-25 59v13l-10 16l-41 115l-24 55zM281 1354l2 12l41 -6h30l4 -6 l13 -56l14 -71l16 -72l2 -25l9 -16l4 -22l14 -56v-24l6 -17l25 -92l22 -112l17 -66l2 -33l16 -37l4 -28l35 -174l12 -41l6 -54l13 -39l4 -22l12 -47l27 -127l33 -125l-72 2l-4 6l-8 55l-15 84l-2 23l-14 59l-25 125l-12 43l-6 51l-4 37l-13 25l-28 131l-21 90l-6 41l-12 23 l-25 112l-10 47l-10 39l-4 25l-15 47v22l-10 37l-10 25l-10 35l-15 63l-16 62zM305 1456l8 23l55 100l27 41l14 12l13 19l16 37l35 59l16 16l27 43l18 41h6l7 -6l6 -14l16 -53l12 -29l13 -31l14 -28l-2 -13l-37 -26l-37 -31l-39 -19l-16 -28l-12 -6l-144 -119h-8l-6 4z M383 1352v10h82l29 -8l110 14l6 -4l4 -6l2 -31l5 -18l4 -37l18 -92l6 -39l19 -70l30 -160l11 -59l10 -18l31 -185l14 -31l2 -2l41 -196l12 -33l8 -31l7 -65l12 -31l8 -16l8 -37l49 -168l9 -35v-6l-9 -6l-43 6l-47 2l-8 8l-25 -8l-55 2l-31 -4l-6 10l-6 27l19 53l26 62l2 12 l11 20l14 39l26 72l-20 29l-47 47l-21 32l-18 11l-55 63l-4 6l32 176l13 33l4 62l-29 34l-49 45l-64 66l27 125v16l12 35l2 23l15 71l-33 31l-53 43l-25 29l-18 2l-49 33l-11 6l-4 6zM434 1212l23 2l24 -8l39 -35l6 -10l23 -61l-2 -6h-21l-14 6l-39 28l-22 31l-11 21z M438 1094l21 -4l18 -9l27 -24l16 -29l6 -18l-2 -6l-12 -7l-18 -4l-19 19l-18 24l-17 35zM532 678v37l5 35l10 28l14 29l4 6h4l11 -37l-5 -35l-8 -47l-20 -47l-4 -4l-4 4zM575 582l3 53l4 29l16 41l14 22l11 12l6 -6l2 -26l-6 -66l-9 -35l-10 -37l-14 -30l-6 -9l-4 15z M618 362l5 11h28l25 -15l29 -24l10 -17l12 -36v-13l-18 -2l-29 10l-27 25l-20 27l-4 8l-6 20zM623 238v10h32l17 -10l18 -19h2l13 -33l6 -18l-2 -8l-23 -6l-18 12l-15 10l-16 21z" />
<glyph unicode="&#xc2;" d="M8 0l10 31l15 39l8 24l16 51l9 9l14 63l31 117l14 47l18 76l25 94l8 24l10 37l13 23l12 76l8 43l19 67l8 31l12 31l10 22v39l17 109l10 47l8 28h2l6 -8l4 -26l11 -43l8 -35l16 -80l10 -33l17 -67v-17l-10 -31l-11 -22l-4 -31l-18 -41l-6 -51l-31 -119l-10 -24l-25 -76 l-2 -33l-33 -143l-16 -58l-4 -47l-12 -53l-2 -24l-9 -54l-6 -12l-4 -4l-55 8h-62l-18 -6l-16 4zM240 1466l6 23l18 29l15 24l12 25l14 6l11 29l28 43l25 32l22 31l15 31l12 22l14 19l23 47l8 16l8 8h4l31 -47l68 -127l4 -24l29 -35l16 -33l47 -84l8 -22l6 -15l-2 -12l-4 -4 l-18 12l-17 17l-8 12l-10 4l-14 8l-9 17l-34 18l-29 31l-16 28l-5 4h-6l-30 25l-15 8h-6l-10 -12l-107 -84l-4 -16h-10l-76 -62h-12zM276 377l5 6h43l41 -16l43 6h55l29 4l16 -6l-8 -31l-33 -82l-6 -6l-10 -27l-17 -28l-26 -82l-13 -27l-10 -4l-25 59v13l-10 16l-41 115 l-24 55zM281 1354l2 12l41 -6h30l4 -6l13 -56l14 -71l16 -72l2 -25l9 -16l4 -22l14 -56v-24l6 -17l25 -92l22 -112l17 -66l2 -33l16 -37l4 -28l35 -174l12 -41l6 -54l13 -39l4 -22l12 -47l27 -127l33 -125l-72 2l-4 6l-8 55l-15 84l-2 23l-14 59l-25 125l-12 43l-6 51l-4 37 l-13 25l-28 131l-21 90l-6 41l-12 23l-25 112l-10 47l-10 39l-4 25l-15 47v22l-10 37l-10 25l-10 35l-15 63l-16 62zM383 1352v10h82l29 -8l110 14l6 -4l4 -6l2 -31l5 -18l4 -37l18 -92l6 -39l19 -70l30 -160l11 -59l10 -18l31 -185l14 -31l2 -2l41 -196l12 -33l8 -31l7 -65 l12 -31l8 -16l8 -37l49 -168l9 -35v-6l-9 -6l-43 6l-47 2l-8 8l-25 -8l-55 2l-31 -4l-6 10l-6 27l19 53l26 62l2 12l11 20l14 39l26 72l-20 29l-47 47l-21 32l-18 11l-55 63l-4 6l32 176l13 33l4 62l-29 34l-49 45l-64 66l27 125v16l12 35l2 23l15 71l-33 31l-53 43l-25 29 l-18 2l-49 33l-11 6l-4 6zM434 1212l23 2l24 -8l39 -35l6 -10l23 -61l-2 -6h-21l-14 6l-39 28l-22 31l-11 21zM438 1094l21 -4l18 -9l27 -24l16 -29l6 -18l-2 -6l-12 -7l-18 -4l-19 19l-18 24l-17 35zM532 678v37l5 35l10 28l14 29l4 6h4l11 -37l-5 -35l-8 -47l-20 -47 l-4 -4l-4 4zM575 582l3 53l4 29l16 41l14 22l11 12l6 -6l2 -26l-6 -66l-9 -35l-10 -37l-14 -30l-6 -9l-4 15zM618 362l5 11h28l25 -15l29 -24l10 -17l12 -36v-13l-18 -2l-29 10l-27 25l-20 27l-4 8l-6 20zM623 238v10h32l17 -10l18 -19h2l13 -33l6 -18l-2 -8l-23 -6l-18 12 l-15 10l-16 21z" />
<glyph unicode="&#xc3;" d="M8 0l10 31l15 39l8 24l16 51l9 9l14 63l31 117l14 47l18 76l25 94l8 24l10 37l13 23l12 76l8 43l19 67l8 31l12 31l10 22v39l17 109l10 47l8 28h2l6 -8l4 -26l11 -43l8 -35l16 -80l10 -33l17 -67v-17l-10 -31l-11 -22l-4 -31l-18 -41l-6 -51l-31 -119l-10 -24l-25 -76 l-2 -33l-33 -143l-16 -58l-4 -47l-12 -53l-2 -24l-9 -54l-6 -12l-4 -4l-55 8h-62l-18 -6l-16 4zM276 377l5 6h43l41 -16l43 6h55l29 4l16 -6l-8 -31l-33 -82l-6 -6l-10 -27l-17 -28l-26 -82l-13 -27l-10 -4l-25 59v13l-10 16l-41 115l-24 55zM281 1354l2 12l41 -6h30l4 -6 l13 -56l14 -71l16 -72l2 -25l9 -16l4 -22l14 -56v-24l6 -17l25 -92l22 -112l17 -66l2 -33l16 -37l4 -28l35 -174l12 -41l6 -54l13 -39l4 -22l12 -47l27 -127l33 -125l-72 2l-4 6l-8 55l-15 84l-2 23l-14 59l-25 125l-12 43l-6 51l-4 37l-13 25l-28 131l-21 90l-6 41l-12 23 l-25 112l-10 47l-10 39l-4 25l-15 47v22l-10 37l-10 25l-10 35l-15 63l-16 62zM307 1579l6 23l-4 69l2 4l16 13l35 16h15l12 -10l12 4l19 -6l12 -11l31 -14l18 -2l18 -10l21 -6l33 12l30 14l27 23l6 4l2 -27v-33l-4 -47v-32l-6 -17l-31 -16l-14 -10l-14 -2l-7 2l-18 -7 l-25 5l-20 12h-14l-37 22l-13 15h-16l-18 2l-35 -6l-33 -27l-4 4zM383 1352v10h82l29 -8l110 14l6 -4l4 -6l2 -31l5 -18l4 -37l18 -92l6 -39l19 -70l30 -160l11 -59l10 -18l31 -185l14 -31l2 -2l41 -196l12 -33l8 -31l7 -65l12 -31l8 -16l8 -37l49 -168l9 -35v-6l-9 -6 l-43 6l-47 2l-8 8l-25 -8l-55 2l-31 -4l-6 10l-6 27l19 53l26 62l2 12l11 20l14 39l26 72l-20 29l-47 47l-21 32l-18 11l-55 63l-4 6l32 176l13 33l4 62l-29 34l-49 45l-64 66l27 125v16l12 35l2 23l15 71l-33 31l-53 43l-25 29l-18 2l-49 33l-11 6l-4 6zM434 1212l23 2 l24 -8l39 -35l6 -10l23 -61l-2 -6h-21l-14 6l-39 28l-22 31l-11 21zM438 1094l21 -4l18 -9l27 -24l16 -29l6 -18l-2 -6l-12 -7l-18 -4l-19 19l-18 24l-17 35zM532 678v37l5 35l10 28l14 29l4 6h4l11 -37l-5 -35l-8 -47l-20 -47l-4 -4l-4 4zM575 582l3 53l4 29l16 41l14 22 l11 12l6 -6l2 -26l-6 -66l-9 -35l-10 -37l-14 -30l-6 -9l-4 15zM618 362l5 11h28l25 -15l29 -24l10 -17l12 -36v-13l-18 -2l-29 10l-27 25l-20 27l-4 8l-6 20zM623 238v10h32l17 -10l18 -19h2l13 -33l6 -18l-2 -8l-23 -6l-18 12l-15 10l-16 21z" />
<glyph unicode="&#xc4;" d="M8 0l10 31l15 39l8 24l16 51l9 9l14 63l31 117l14 47l18 76l25 94l8 24l10 37l13 23l12 76l8 43l19 67l8 31l12 31l10 22v39l17 109l10 47l8 28h2l6 -8l4 -26l11 -43l8 -35l16 -80l10 -33l17 -67v-17l-10 -31l-11 -22l-4 -31l-18 -41l-6 -51l-31 -119l-10 -24l-25 -76 l-2 -33l-33 -143l-16 -58l-4 -47l-12 -53l-2 -24l-9 -54l-6 -12l-4 -4l-55 8h-62l-18 -6l-16 4zM244 1597v23l8 63l12 19l27 29l16 10l9 -2h28l15 -13l28 -61l8 -14l-2 -25l5 -33l-11 -24l-6 -19l-6 -14l-2 -14l-12 -21l-19 -4l-30 -18l-23 4l-27 24l-12 23zM276 377l5 6h43 l41 -16l43 6h55l29 4l16 -6l-8 -31l-33 -82l-6 -6l-10 -27l-17 -28l-26 -82l-13 -27l-10 -4l-25 59v13l-10 16l-41 115l-24 55zM281 1354l2 12l41 -6h30l4 -6l13 -56l14 -71l16 -72l2 -25l9 -16l4 -22l14 -56v-24l6 -17l25 -92l22 -112l17 -66l2 -33l16 -37l4 -28l35 -174 l12 -41l6 -54l13 -39l4 -22l12 -47l27 -127l33 -125l-72 2l-4 6l-8 55l-15 84l-2 23l-14 59l-25 125l-12 43l-6 51l-4 37l-13 25l-28 131l-21 90l-6 41l-12 23l-25 112l-10 47l-10 39l-4 25l-15 47v22l-10 37l-10 25l-10 35l-15 63l-16 62zM383 1352v10h82l29 -8l110 14 l6 -4l4 -6l2 -31l5 -18l4 -37l18 -92l6 -39l19 -70l30 -160l11 -59l10 -18l31 -185l14 -31l2 -2l41 -196l12 -33l8 -31l7 -65l12 -31l8 -16l8 -37l49 -168l9 -35v-6l-9 -6l-43 6l-47 2l-8 8l-25 -8l-55 2l-31 -4l-6 10l-6 27l19 53l26 62l2 12l11 20l14 39l26 72l-20 29 l-47 47l-21 32l-18 11l-55 63l-4 6l32 176l13 33l4 62l-29 34l-49 45l-64 66l27 125v16l12 35l2 23l15 71l-33 31l-53 43l-25 29l-18 2l-49 33l-11 6l-4 6zM434 1212l23 2l24 -8l39 -35l6 -10l23 -61l-2 -6h-21l-14 6l-39 28l-22 31l-11 21zM438 1094l21 -4l18 -9l27 -24 l16 -29l6 -18l-2 -6l-12 -7l-18 -4l-19 19l-18 24l-17 35zM520 1597v23l9 63l14 19l27 29l16 10l6 -2h29l14 -13l29 -61l8 -14l-2 -25l4 -33l-8 -24l-6 -19l-9 -14v-14l-14 -21l-18 -4l-31 -18l-23 4l-26 24l-12 23zM532 678v37l5 35l10 28l14 29l4 6h4l11 -37l-5 -35 l-8 -47l-20 -47l-4 -4l-4 4zM575 582l3 53l4 29l16 41l14 22l11 12l6 -6l2 -26l-6 -66l-9 -35l-10 -37l-14 -30l-6 -9l-4 15zM618 362l5 11h28l25 -15l29 -24l10 -17l12 -36v-13l-18 -2l-29 10l-27 25l-20 27l-4 8l-6 20zM623 238v10h32l17 -10l18 -19h2l13 -33l6 -18l-2 -8 l-23 -6l-18 12l-15 10l-16 21z" />
<glyph unicode="&#xc5;" d="M8 0l10 31l15 39l8 24l16 51l9 9l14 63l31 117l14 47l18 76l25 94l8 24l10 37l13 23l12 76l8 43l19 67l8 31l12 31l10 22v39l17 109l10 47l8 28h2l6 -8l4 -26l11 -43l8 -35l16 -80l10 -33l17 -67v-17l-10 -31l-11 -22l-4 -31l-18 -41l-6 -51l-31 -119l-10 -24l-25 -76 l-2 -33l-33 -143l-16 -58l-4 -47l-12 -53l-2 -24l-9 -54l-6 -12l-4 -4l-55 8h-62l-18 -6l-16 4zM276 377l5 6h43l41 -16l43 6h55l29 4l16 -6l-8 -31l-33 -82l-6 -6l-10 -27l-17 -28l-26 -82l-13 -27l-10 -4l-25 59v13l-10 16l-41 115l-24 55zM281 1354l2 12l41 -6h30l4 -6 l13 -56l14 -71l16 -72l2 -25l9 -16l4 -22l14 -56v-24l6 -17l25 -92l22 -112l17 -66l2 -33l16 -37l4 -28l35 -174l12 -41l6 -54l13 -39l4 -22l12 -47l27 -127l33 -125l-72 2l-4 6l-8 55l-15 84l-2 23l-14 59l-25 125l-12 43l-6 51l-4 37l-13 25l-28 131l-21 90l-6 41l-12 23 l-25 112l-10 47l-10 39l-4 25l-15 47v22l-10 37l-10 25l-10 35l-15 63l-16 62zM350 1633v16l27 96l28 33l25 19l16 6l8 -4l13 4l14 10h12l4 -8l45 -45l11 -17l8 -10l6 -31l10 -30l6 -23l-10 -49l-2 -51l-4 -13l-39 -69l-10 -14l-2 -5l-31 -2l-6 -10l-14 -2l-45 12l-33 27 l-17 29l-8 45l-6 18l-2 12l2 19zM383 1352v10h82l29 -8l110 14l6 -4l4 -6l2 -31l5 -18l4 -37l18 -92l6 -39l19 -70l30 -160l11 -59l10 -18l31 -185l14 -31l2 -2l41 -196l12 -33l8 -31l7 -65l12 -31l8 -16l8 -37l49 -168l9 -35v-6l-9 -6l-43 6l-47 2l-8 8l-25 -8l-55 2 l-31 -4l-6 10l-6 27l19 53l26 62l2 12l11 20l14 39l26 72l-20 29l-47 47l-21 32l-18 11l-55 63l-4 6l32 176l13 33l4 62l-29 34l-49 45l-64 66l27 125v16l12 35l2 23l15 71l-33 31l-53 43l-25 29l-18 2l-49 33l-11 6l-4 6zM401 1608l6 -59l8 -19l25 -22l18 -2l27 14l16 4 l13 19l2 12l6 12l4 17l8 22l-4 27l2 22l-8 13l-25 53l-12 10h-24l-7 2l-14 -8l-22 -27l-13 -14l-6 -57v-19zM434 1212l23 2l24 -8l39 -35l6 -10l23 -61l-2 -6h-21l-14 6l-39 28l-22 31l-11 21zM438 1094l21 -4l18 -9l27 -24l16 -29l6 -18l-2 -6l-12 -7l-18 -4l-19 19l-18 24 l-17 35zM532 678v37l5 35l10 28l14 29l4 6h4l11 -37l-5 -35l-8 -47l-20 -47l-4 -4l-4 4zM575 582l3 53l4 29l16 41l14 22l11 12l6 -6l2 -26l-6 -66l-9 -35l-10 -37l-14 -30l-6 -9l-4 15zM618 362l5 11h28l25 -15l29 -24l10 -17l12 -36v-13l-18 -2l-29 10l-27 25l-20 27l-4 8 l-6 20zM623 238v10h32l17 -10l18 -19h2l13 -33l6 -18l-2 -8l-23 -6l-18 12l-15 10l-16 21z" />
<glyph unicode="&#xc6;" horiz-adv-x="1304" d="M0 8l10 19l41 94l33 80l16 18l6 6l17 54l29 86l28 69l17 49l22 54l10 16l9 47l30 82l39 117l45 90l2 29l15 45l28 81l23 54l14 43l12 41l7 20h6l8 -14l61 -135l15 -25l-17 -41l-39 -127l-24 -47l-19 -63l-28 -64l-43 -100l-21 -37l-6 -39l-33 -102l-22 -70l-21 -35 l-8 -35l-37 -118l-14 -19l-31 -129l-6 -10l-47 6l-14 6l-27 -2l-10 -2h-23l-14 -4l-6 -4l-13 4h-16l-2 2zM338 430l10 6l17 -4l59 -2l14 -2l13 2l28 -8l39 4l39 6l8 -12v-8l-22 -50l-37 -90l-10 -24l-21 -35l-14 -57l-12 -37l-9 -2l-18 69l-8 35l-11 27l-14 47l-12 16 l-29 84zM412 1360v6l6 6l71 -2l11 -6h18l14 -8l13 10l24 2l11 -2h65l8 -12l2 -13l-2 -12l-4 -155l-2 -21l6 -53v-66l-4 -65l-2 -195l-4 -31l4 -24l2 -23l-2 -71v-148v-53l4 -27l-2 -51l6 -100l-4 -29l8 -154l5 -43v-22l-5 -2l-36 -4h-31l-10 -4l-2 4l4 47l4 67v74l4 37l2 2 l2 33l-4 14v240l8 74v22l-8 43l2 80l-2 109l2 65l-2 12l-4 99l-8 24l-80 183l-15 12l-53 100l-12 19zM672 1098l2 28l8 35l20 35l17 18l14 13l4 -6l2 -19l-10 -35l-14 -28l-19 -37l-22 -6zM674 629v35l4 12l18 -12l15 -31l12 -39v-27v-41l-6 -4l-12 17l-17 32l-10 33z M678 238l2 24l10 31l15 26l22 15l8 4h19l4 -6l-4 -23l-19 -43l-18 -18l-19 -17l-18 7h-2zM688 137l8 29l23 41l18 18l8 11h29l4 -11l-8 -20l-22 -41l-23 -23l-23 -10h-10zM690 1315v47l2 2l25 -2h90l22 -4l15 6h33l24 -2h47l78 -2l45 -12l27 10l78 4l32 -2h19l4 -6l2 -82 l-6 -55l4 -21v-109v-59v-78v-41l-10 -6l-11 15l-18 53l-29 94l-12 25v8l-31 45l-55 82l-10 20l-17 2l-53 27l-29 6l-8 -2l-37 8l-24 -4l-2 -180l-4 -68v-24l6 -35l-4 -86l-2 -246l-7 -20l3 -52v-53l2 -24l4 -148l-6 -22l6 -37v-35l4 -43v-12l6 -78v-41l6 -4l33 -6l55 20 l19 -2l12 2l41 33l51 37l14 32l29 35l12 25l19 53l30 82l23 39l8 -16l4 -19v-29l-6 -36v-17l-4 -18l4 -25l-6 -53l2 -66l-2 -34v-25l-4 -25v-28l4 -39l-14 -8l-9 -4l-20 12l-25 -10h-16l-14 6l-23 -4h-37l-14 10l-14 -14l-11 4l-24 6l-66 2l-55 12l-18 -4l-15 -10l-31 6h-77 l-25 -4h-18l-11 2l2 45l23 31l39 57l18 16l27 35l25 41l-29 68l-10 10l-2 8l-5 25l-6 16l-18 19l-29 67l-12 23l16 39l19 14l6 20l27 54l36 61l-2 10l-22 54l-21 43l-14 24l-35 76l-14 25l2 16l14 27l23 41l20 38l10 13l5 18l28 57l6 19l-34 63l-11 15l-20 43l-14 12l-25 39 l-25 31h-4zM698 983l4 21l5 26l14 35l8 12l21 25l10 10l18 2l4 -8l-6 -31l-6 -22l-12 -25l-10 -14l-21 -21l-12 -8l-8 -6zM702 748l3 34l4 2l22 -18l14 -18l15 -39l4 -23v-57l-4 -8l-15 6l-12 18l-12 31l-12 37zM907 711l17 18l39 39l22 12l16 25l82 86h7l6 -2l2 -10l-2 -29 v-102l-9 -33l5 -51l-2 -29l2 -100l-2 -29l-7 4l-26 25l-27 36l-22 15l-52 53l-20 18l-16 19l-11 18z" />
<glyph unicode="&#xc7;" horiz-adv-x="833" d="M41 709v34l6 48l14 112l2 43l15 55l10 31l23 66l2 10l22 25v4l10 24l5 13l8 16l24 31l99 98l2 -2l4 -6l6 -41v-35l-33 -18l-47 -62l-39 -55l-6 -35l-14 -23l-9 -22l-26 -107l-4 -49l-9 -35v-75l-4 -95v-49l7 -53l4 -10l-4 -29l4 -24l-2 -23l10 -20l24 -101l21 -53l43 -80 l10 -24l35 -46l25 -24l2 -21v-75l-19 16l-14 12l-68 76l-33 43l-4 29l-6 22l-16 21l-25 71l-12 45l-8 25l-21 107l-4 24l-2 37l2 23v4l-8 43zM125 678v4l4 31l10 41l25 32l14 15l12 4h7v-6l-2 -19l-7 -22l-14 -43l-22 -39l-13 -17l-8 -6l-4 4zM147 514l3 33l6 45l14 47 l14 18l15 17l24 18l8 -2l-6 -45l-12 -47l-16 -41l-25 -35l-16 -18h-6zM186 907v4l52 76l41 47l10 4l8 17l20 24l5 35l2 49v19l-7 32l2 95l-2 2l2 18l5 6l65 33h12l13 -6l41 22l16 5h35l10 4h45l12 -7l43 -6l31 -8h2l23 -18l24 -2l21 -6l47 -23l6 -6l2 -27l-4 -147l4 -51 l-4 -25l-2 -12l2 -6l6 -7l-2 -10l-2 -67v-39l-4 -13l4 -10l-4 -12l-6 -6l-12 6l-31 96l-37 94l-4 31l-2 10l-15 19l-28 59l-31 51l-8 23l-25 22l-4 7l-20 6l-8 8h-23l-10 -4l-27 -8l-35 -23l-26 -41l-11 -27l-10 -14l-2 -16l-20 -86l-13 -80l-6 -29l-8 -18v-47l-8 -54v-59 l-4 -14l2 -121l-4 -47l-2 -17l2 -34l10 -80l6 -31v-45l6 -60l15 -83l12 -41v-29l4 -2l6 -23l25 -49l20 -37l17 -24l2 -6l47 -23l6 -2l16 2l23 8l24 13l25 22l37 47l16 12l8 11l7 22l24 47l33 97l39 129l6 10l8 -6l6 -43l-4 -47v-21l-2 -74v-217l-2 -14l-43 -27l-29 -18 l-39 -10h-30l-15 -4l-28 -17l-39 -4l-41 -6h-35l-31 8h-24l-10 2l-13 10l-22 9l-58 24l-4 6v70l8 162l-57 94l-12 31l-17 8l-41 70v8l11 20l35 90l30 76l-4 23l-24 90v10l-15 37l-6 2l-10 29zM193 1022v8l18 53l20 39l29 23l19 6l2 2l14 -2l4 -4l-6 -21l-8 -22l-25 -39 l-33 -31l-24 -16zM205 332l4 10l18 -12l21 -29l14 -31l10 -22l4 -25v-33l-4 -4l-14 9l-10 10l-21 35l-14 36l-4 29zM334 -369l37 64l16 29l10 14l4 6l19 10l6 29l43 61l39 66v4l10 -4l4 -8l2 -70l-16 -141l-2 -13l2 -30l-2 -113l-4 -18l2 -86l-2 -9l-8 -6l-25 29l-43 61 l-6 17l-23 14l-61 74l-2 8v12z" />
<glyph unicode="&#xc8;" horiz-adv-x="776" d="M74 1360l2 6h26l19 -2h31l4 -6v-12l-4 -17l2 -53l-2 -100l-9 -160l7 -21v-71l2 -15l-2 -18l-5 -47v-53v-78v-31l5 -31l-3 -14l3 -234v-32v-45l2 -21v-37l-2 -37l6 -235l-2 -2l-62 -2l-10 4v2l4 104v78l4 103v26l-2 84l4 43l-2 131l6 60l-6 73l-2 80l-2 4l4 50v53l-6 63 l4 47l2 13l-8 71l2 66l-2 35v37l4 26l-4 21v12l-4 57zM164 1098l4 35l4 28l10 23l15 24l10 17l12 2l6 -13l-4 -34l-4 -25l-10 -22l-19 -25l-14 -12h-6zM168 645l2 33l8 -4l17 -15l18 -32l16 -58l7 -26v-4l-11 -7l-12 3l-14 20l-17 25l-10 24zM172 227l2 21l10 31l15 24 l28 29l9 4h12l2 -12l-6 -29l-11 -25l-14 -20l-18 -19l-15 -6h-12zM182 129l11 31l22 37l18 22l35 21l6 2l2 -2v-13l-4 -20l-4 -19l-22 -36l-21 -23l-18 -6l-14 -4l-7 2zM184 1343l2 15l9 4l67 -2l96 2l11 -6l41 6h59l37 4l18 -6h27l61 4l4 -2l19 2l78 2l8 -6v-17v-43l2 -124 l2 -11l-6 -12l4 -49l2 -19v-75l2 -78l-8 -14h-6l-8 14l-7 31l-18 47l-45 110l-8 13l-4 22l-41 53l-39 37l-37 21l-29 6l-18 10l-45 2l-31 -4l-2 -94l-2 -148l-6 -28l4 -25l2 -166l-2 -100v-88l-8 -72l6 -31l4 -49l-2 -123l2 -63l-4 -68l4 -16l8 -103l4 -16l17 -2h51l20 -12 l35 22l43 23l27 24l65 99l23 41l14 20l4 25l35 84l10 16l6 -2l2 -10v-23l-2 -71l-6 -84v-37l-6 -23v-100v-76l-12 -8l-17 4l-45 4l-73 -2l-27 6l-25 -6h-186l-33 -6l-84 2l-28 -8l-6 10l2 25v12l12 16l35 45l18 25l12 16l19 23l24 43l7 16l-43 103l-13 34l-12 13l-39 80v4 l8 8l4 14l27 49l22 52l43 69l7 6v6l-70 144l-37 71l-2 9l2 6l19 33l24 53l10 18l13 19l14 45l23 49l-62 119l-12 10l-43 63l-17 17zM193 965l2 26l6 45l10 25l16 29l15 12l30 22l9 -8l-7 -29l-14 -40l-16 -37l-21 -29l-22 -20zM195 1686l8 14l6 14l15 31l12 29l16 53l4 14 l9 6h6l18 -41l27 -43l14 -16l37 -59l16 -37l13 -19l14 -12l25 -41l57 -100l6 -23v-8l-6 -4h-8l-146 119l-12 6l-14 28l-41 19l-37 31l-35 26zM197 748v28l2 4l18 -4l14 -14l21 -39l14 -39l8 -45v-12l-2 -2l-6 2l-26 22l-21 25l-8 14l-10 35zM397 713l4 10l29 31l33 28l24 17 l76 90l12 12h11l2 -10v-41l-6 -49l4 -64l-4 -61l4 -160l-6 -6l-52 61l-14 9l-18 22l-7 19l-14 6l-61 59l-4 2z" />
<glyph unicode="&#xc9;" horiz-adv-x="776" d="M74 1360l2 6h26l19 -2h31l4 -6v-12l-4 -17l2 -53l-2 -100l-9 -160l7 -21v-71l2 -15l-2 -18l-5 -47v-53v-78v-31l5 -31l-3 -14l3 -234v-32v-45l2 -21v-37l-2 -37l6 -235l-2 -2l-62 -2l-10 4v2l4 104v78l4 103v26l-2 84l4 43l-2 131l6 60l-6 73l-2 80l-2 4l4 50v53l-6 63 l4 47l2 13l-8 71l2 66l-2 35v37l4 26l-4 21v12l-4 57zM164 1098l4 35l4 28l10 23l15 24l10 17l12 2l6 -13l-4 -34l-4 -25l-10 -22l-19 -25l-14 -12h-6zM168 645l2 33l8 -4l17 -15l18 -32l16 -58l7 -26v-4l-11 -7l-12 3l-14 20l-17 25l-10 24zM172 227l2 21l10 31l15 24 l28 29l9 4h12l2 -12l-6 -29l-11 -25l-14 -20l-18 -19l-15 -6h-12zM182 129l11 31l22 37l18 22l35 21l6 2l2 -2v-13l-4 -20l-4 -19l-22 -36l-21 -23l-18 -6l-14 -4l-7 2zM184 1343l2 15l9 4l67 -2l96 2l11 -6l41 6h59l37 4l18 -6h27l61 4l4 -2l19 2l78 2l8 -6v-17v-43l2 -124 l2 -11l-6 -12l4 -49l2 -19v-75l2 -78l-8 -14h-6l-8 14l-7 31l-18 47l-45 110l-8 13l-4 22l-41 53l-39 37l-37 21l-29 6l-18 10l-45 2l-31 -4l-2 -94l-2 -148l-6 -28l4 -25l2 -166l-2 -100v-88l-8 -72l6 -31l4 -49l-2 -123l2 -63l-4 -68l4 -16l8 -103l4 -16l17 -2h51l20 -12 l35 22l43 23l27 24l65 99l23 41l14 20l4 25l35 84l10 16l6 -2l2 -10v-23l-2 -71l-6 -84v-37l-6 -23v-100v-76l-12 -8l-17 4l-45 4l-73 -2l-27 6l-25 -6h-186l-33 -6l-84 2l-28 -8l-6 10l2 25v12l12 16l35 45l18 25l12 16l19 23l24 43l7 16l-43 103l-13 34l-12 13l-39 80v4 l8 8l4 14l27 49l22 52l43 69l7 6v6l-70 144l-37 71l-2 9l2 6l19 33l24 53l10 18l13 19l14 45l23 49l-62 119l-12 10l-43 63l-17 17zM193 965l2 26l6 45l10 25l16 29l15 12l30 22l9 -8l-7 -29l-14 -40l-16 -37l-21 -29l-22 -20zM197 748v28l2 4l18 -4l14 -14l21 -39l14 -39 l8 -45v-12l-2 -2l-6 2l-26 22l-21 25l-8 14l-10 35zM299 1456l8 23l55 100l27 41l14 12l13 19l16 37l35 59l16 16l27 43l18 41h6l7 -6l6 -14l16 -53l12 -29l13 -31l14 -28l-2 -13l-37 -26l-37 -31l-39 -19l-16 -28l-12 -6l-144 -119h-8l-6 4zM397 713l4 10l29 31l33 28 l24 17l76 90l12 12h11l2 -10v-41l-6 -49l4 -64l-4 -61l4 -160l-6 -6l-52 61l-14 9l-18 22l-7 19l-14 6l-61 59l-4 2z" />
<glyph unicode="&#xca;" horiz-adv-x="776" d="M74 1360l2 6h26l19 -2h31l4 -6v-12l-4 -17l2 -53l-2 -100l-9 -160l7 -21v-71l2 -15l-2 -18l-5 -47v-53v-78v-31l5 -31l-3 -14l3 -234v-32v-45l2 -21v-37l-2 -37l6 -235l-2 -2l-62 -2l-10 4v2l4 104v78l4 103v26l-2 84l4 43l-2 131l6 60l-6 73l-2 80l-2 4l4 50v53l-6 63 l4 47l2 13l-8 71l2 66l-2 35v37l4 26l-4 21v12l-4 57zM164 1098l4 35l4 28l10 23l15 24l10 17l12 2l6 -13l-4 -34l-4 -25l-10 -22l-19 -25l-14 -12h-6zM168 645l2 33l8 -4l17 -15l18 -32l16 -58l7 -26v-4l-11 -7l-12 3l-14 20l-17 25l-10 24zM172 227l2 21l10 31l15 24 l28 29l9 4h12l2 -12l-6 -29l-11 -25l-14 -20l-18 -19l-15 -6h-12zM180 1466l6 23l18 29l15 24l12 25l14 6l11 29l28 43l25 32l22 31l15 31l12 22l14 19l23 47l8 16l8 8h4l31 -47l68 -127l4 -24l29 -35l16 -33l47 -84l8 -22l6 -15l-2 -12l-4 -4l-18 12l-17 17l-8 12l-10 4 l-14 8l-9 17l-34 18l-29 31l-16 28l-5 4h-6l-30 25l-15 8h-6l-10 -12l-107 -84l-4 -16h-10l-76 -62h-12zM182 129l11 31l22 37l18 22l35 21l6 2l2 -2v-13l-4 -20l-4 -19l-22 -36l-21 -23l-18 -6l-14 -4l-7 2zM184 1343l2 15l9 4l67 -2l96 2l11 -6l41 6h59l37 4l18 -6h27 l61 4l4 -2l19 2l78 2l8 -6v-17v-43l2 -124l2 -11l-6 -12l4 -49l2 -19v-75l2 -78l-8 -14h-6l-8 14l-7 31l-18 47l-45 110l-8 13l-4 22l-41 53l-39 37l-37 21l-29 6l-18 10l-45 2l-31 -4l-2 -94l-2 -148l-6 -28l4 -25l2 -166l-2 -100v-88l-8 -72l6 -31l4 -49l-2 -123l2 -63 l-4 -68l4 -16l8 -103l4 -16l17 -2h51l20 -12l35 22l43 23l27 24l65 99l23 41l14 20l4 25l35 84l10 16l6 -2l2 -10v-23l-2 -71l-6 -84v-37l-6 -23v-100v-76l-12 -8l-17 4l-45 4l-73 -2l-27 6l-25 -6h-186l-33 -6l-84 2l-28 -8l-6 10l2 25v12l12 16l35 45l18 25l12 16l19 23 l24 43l7 16l-43 103l-13 34l-12 13l-39 80v4l8 8l4 14l27 49l22 52l43 69l7 6v6l-70 144l-37 71l-2 9l2 6l19 33l24 53l10 18l13 19l14 45l23 49l-62 119l-12 10l-43 63l-17 17zM193 965l2 26l6 45l10 25l16 29l15 12l30 22l9 -8l-7 -29l-14 -40l-16 -37l-21 -29l-22 -20z M197 748v28l2 4l18 -4l14 -14l21 -39l14 -39l8 -45v-12l-2 -2l-6 2l-26 22l-21 25l-8 14l-10 35zM397 713l4 10l29 31l33 28l24 17l76 90l12 12h11l2 -10v-41l-6 -49l4 -64l-4 -61l4 -160l-6 -6l-52 61l-14 9l-18 22l-7 19l-14 6l-61 59l-4 2z" />
<glyph unicode="&#xcb;" horiz-adv-x="776" d="M74 1360l2 6h26l19 -2h31l4 -6v-12l-4 -17l2 -53l-2 -100l-9 -160l7 -21v-71l2 -15l-2 -18l-5 -47v-53v-78v-31l5 -31l-3 -14l3 -234v-32v-45l2 -21v-37l-2 -37l6 -235l-2 -2l-62 -2l-10 4v2l4 104v78l4 103v26l-2 84l4 43l-2 131l6 60l-6 73l-2 80l-2 4l4 50v53l-6 63 l4 47l2 13l-8 71l2 66l-2 35v37l4 26l-4 21v12l-4 57zM164 1098l4 35l4 28l10 23l15 24l10 17l12 2l6 -13l-4 -34l-4 -25l-10 -22l-19 -25l-14 -12h-6zM168 645l2 33l8 -4l17 -15l18 -32l16 -58l7 -26v-4l-11 -7l-12 3l-14 20l-17 25l-10 24zM172 227l2 21l10 31l15 24 l28 29l9 4h12l2 -12l-6 -29l-11 -25l-14 -20l-18 -19l-15 -6h-12zM182 129l11 31l22 37l18 22l35 21l6 2l2 -2v-13l-4 -20l-4 -19l-22 -36l-21 -23l-18 -6l-14 -4l-7 2zM184 1343l2 15l9 4l67 -2l96 2l11 -6l41 6h59l37 4l18 -6h27l61 4l4 -2l19 2l78 2l8 -6v-17v-43l2 -124 l2 -11l-6 -12l4 -49l2 -19v-75l2 -78l-8 -14h-6l-8 14l-7 31l-18 47l-45 110l-8 13l-4 22l-41 53l-39 37l-37 21l-29 6l-18 10l-45 2l-31 -4l-2 -94l-2 -148l-6 -28l4 -25l2 -166l-2 -100v-88l-8 -72l6 -31l4 -49l-2 -123l2 -63l-4 -68l4 -16l8 -103l4 -16l17 -2h51l20 -12 l35 22l43 23l27 24l65 99l23 41l14 20l4 25l35 84l10 16l6 -2l2 -10v-23l-2 -71l-6 -84v-37l-6 -23v-100v-76l-12 -8l-17 4l-45 4l-73 -2l-27 6l-25 -6h-186l-33 -6l-84 2l-28 -8l-6 10l2 25v12l12 16l35 45l18 25l12 16l19 23l24 43l7 16l-43 103l-13 34l-12 13l-39 80v4 l8 8l4 14l27 49l22 52l43 69l7 6v6l-70 144l-37 71l-2 9l2 6l19 33l24 53l10 18l13 19l14 45l23 49l-62 119l-12 10l-43 63l-17 17zM184 1597v23l8 63l12 19l27 29l16 10l9 -2h28l15 -13l28 -61l8 -14l-2 -25l5 -33l-11 -24l-6 -19l-6 -14l-2 -14l-12 -21l-19 -4l-30 -18 l-23 4l-27 24l-12 23zM193 965l2 26l6 45l10 25l16 29l15 12l30 22l9 -8l-7 -29l-14 -40l-16 -37l-21 -29l-22 -20zM197 748v28l2 4l18 -4l14 -14l21 -39l14 -39l8 -45v-12l-2 -2l-6 2l-26 22l-21 25l-8 14l-10 35zM397 713l4 10l29 31l33 28l24 17l76 90l12 12h11l2 -10 v-41l-6 -49l4 -64l-4 -61l4 -160l-6 -6l-52 61l-14 9l-18 22l-7 19l-14 6l-61 59l-4 2zM460 1597v23l9 63l14 19l27 29l16 10l6 -2h29l14 -13l29 -61l8 -14l-2 -25l4 -33l-8 -24l-6 -19l-9 -14v-14l-14 -21l-18 -4l-31 -18l-23 4l-26 24l-12 23z" />
<glyph unicode="&#xcc;" horiz-adv-x="462" d="M70 1686l14 28l12 31l15 29l4 20l10 33l6 14l8 6h4l21 -41l24 -43l17 -16l35 -59l16 -37l14 -19l13 -12l26 -41l58 -100l6 -23l-2 -8l-4 -4h-11l-69 57l-74 62l-12 6l-15 28l-41 19l-36 31l-37 26zM74 1362l4 2l67 -2l7 -6l-9 -254l-2 -29l-4 -24l6 -138v-163l-2 -3 l-2 -28l4 -6l4 -17l-4 -71v-172l4 -76l-4 -31l2 -18l7 -17v-143l-5 -19l5 -28l6 -119l-2 -10l-78 4l-2 2l4 53l4 86v53l4 60v121l-4 22l-2 94l6 43l6 4l-4 43l-6 52l4 47l-6 102l6 64v26l-4 15v202v72l-8 31l4 65l-4 68v33zM164 1100l2 24l14 47l10 19l11 8l22 10l-4 -28 l-8 -37l-6 -17l-17 -26l-6 -10l-12 -11l-4 6zM168 645l6 6l21 -16l14 -31l4 -10l14 -62v-4l-4 -6l-28 19l-13 22l-12 35zM172 225l2 23l6 31l15 30l14 10l24 7l5 4l4 -8l-17 -46l-20 -38l-12 -13l-13 -2l-4 -4zM176 1321v35l4 8h56l20 -6l31 6h92v-14l-2 -82l-6 -23v-172 l2 -86l4 -117l-8 -28l6 -135l4 -127v-72l-4 -29l2 -41l-6 -22l8 -84l4 -31l-4 -57l4 -68l-6 -26v-56l12 -100l-4 -6l-98 8l-8 8l-56 -4l-22 -6l-8 6l2 47l57 78l14 6l49 88l-28 70l-13 14l-18 57l-4 9l-8 10l-17 37l-14 39l43 77l47 82l14 33l-24 53l-21 45l-6 7l-12 12 l-43 102l16 41l39 88l17 19l8 12l24 64l-32 65l-31 47l-14 37l-19 10zM184 125l9 29l12 36l14 23l17 18l12 7h18l6 -7l-10 -30l-22 -45l-31 -33l-16 -6zM188 965v18l11 47l12 41l12 19l13 16l22 14l4 6l4 -8l-4 -39l-4 -32l-14 -39l-19 -25l-30 -22zM195 748v12l4 4l6 4 l14 -10l8 -13l21 -28l18 -53l2 -35l-2 -13l-10 -2l-12 13l-21 26l-10 27l-12 37z" />
<glyph unicode="&#xcd;" horiz-adv-x="462" d="M74 1362l4 2l67 -2l7 -6l-9 -254l-2 -29l-4 -24l6 -138v-163l-2 -3l-2 -28l4 -6l4 -17l-4 -71v-172l4 -76l-4 -31l2 -18l7 -17v-143l-5 -19l5 -28l6 -119l-2 -10l-78 4l-2 2l4 53l4 86v53l4 60v121l-4 22l-2 94l6 43l6 4l-4 43l-6 52l4 47l-6 102l6 64v26l-4 15v202v72 l-8 31l4 65l-4 68v33zM82 1456l8 23l55 100l27 41l14 12l13 19l16 37l35 59l16 16l27 43l18 41h6l7 -6l6 -14l16 -53l12 -29l13 -31l14 -28l-2 -13l-37 -26l-37 -31l-39 -19l-16 -28l-12 -6l-144 -119h-8l-6 4zM164 1100l2 24l14 47l10 19l11 8l22 10l-4 -28l-8 -37l-6 -17 l-17 -26l-6 -10l-12 -11l-4 6zM168 645l6 6l21 -16l14 -31l4 -10l14 -62v-4l-4 -6l-28 19l-13 22l-12 35zM172 225l2 23l6 31l15 30l14 10l24 7l5 4l4 -8l-17 -46l-20 -38l-12 -13l-13 -2l-4 -4zM176 1321v35l4 8h56l20 -6l31 6h92v-14l-2 -82l-6 -23v-172l2 -86l4 -117 l-8 -28l6 -135l4 -127v-72l-4 -29l2 -41l-6 -22l8 -84l4 -31l-4 -57l4 -68l-6 -26v-56l12 -100l-4 -6l-98 8l-8 8l-56 -4l-22 -6l-8 6l2 47l57 78l14 6l49 88l-28 70l-13 14l-18 57l-4 9l-8 10l-17 37l-14 39l43 77l47 82l14 33l-24 53l-21 45l-6 7l-12 12l-43 102l16 41 l39 88l17 19l8 12l24 64l-32 65l-31 47l-14 37l-19 10zM184 125l9 29l12 36l14 23l17 18l12 7h18l6 -7l-10 -30l-22 -45l-31 -33l-16 -6zM188 965v18l11 47l12 41l12 19l13 16l22 14l4 6l4 -8l-4 -39l-4 -32l-14 -39l-19 -25l-30 -22zM195 748v12l4 4l6 4l14 -10l8 -13 l21 -28l18 -53l2 -35l-2 -13l-10 -2l-12 13l-21 26l-10 27l-12 37z" />
<glyph unicode="&#xce;" horiz-adv-x="462" d="M6 1466l6 23l23 35l10 18l14 25l13 6l12 29l29 43l20 32l25 31l14 31l14 22l15 19l28 63l9 8h4l30 -47l68 -127l4 -24l29 -35l16 -33l31 -53l16 -31l10 -22l5 -15l-2 -12l-5 -4l-18 12l-16 17l-7 12l-12 4l-12 8l-10 17l-33 18l-31 31l-14 28l-6 4h-6l-29 25l-17 8h-8 l-8 -12l-86 -68l-18 -16l-7 -16h-10l-73 -62h-15zM74 1362l4 2l67 -2l7 -6l-9 -254l-2 -29l-4 -24l6 -138v-163l-2 -3l-2 -28l4 -6l4 -17l-4 -71v-172l4 -76l-4 -31l2 -18l7 -17v-143l-5 -19l5 -28l6 -119l-2 -10l-78 4l-2 2l4 53l4 86v53l4 60v121l-4 22l-2 94l6 43l6 4 l-4 43l-6 52l4 47l-6 102l6 64v26l-4 15v202v72l-8 31l4 65l-4 68v33zM164 1100l2 24l14 47l10 19l11 8l22 10l-4 -28l-8 -37l-6 -17l-17 -26l-6 -10l-12 -11l-4 6zM168 645l6 6l21 -16l14 -31l4 -10l14 -62v-4l-4 -6l-28 19l-13 22l-12 35zM172 225l2 23l6 31l15 30l14 10 l24 7l5 4l4 -8l-17 -46l-20 -38l-12 -13l-13 -2l-4 -4zM176 1321v35l4 8h56l20 -6l31 6h92v-14l-2 -82l-6 -23v-172l2 -86l4 -117l-8 -28l6 -135l4 -127v-72l-4 -29l2 -41l-6 -22l8 -84l4 -31l-4 -57l4 -68l-6 -26v-56l12 -100l-4 -6l-98 8l-8 8l-56 -4l-22 -6l-8 6l2 47 l57 78l14 6l49 88l-28 70l-13 14l-18 57l-4 9l-8 10l-17 37l-14 39l43 77l47 82l14 33l-24 53l-21 45l-6 7l-12 12l-43 102l16 41l39 88l17 19l8 12l24 64l-32 65l-31 47l-14 37l-19 10zM184 125l9 29l12 36l14 23l17 18l12 7h18l6 -7l-10 -30l-22 -45l-31 -33l-16 -6z M188 965v18l11 47l12 41l12 19l13 16l22 14l4 6l4 -8l-4 -39l-4 -32l-14 -39l-19 -25l-30 -22zM195 748v12l4 4l6 4l14 -10l8 -13l21 -28l18 -53l2 -35l-2 -13l-10 -2l-12 13l-21 26l-10 27l-12 37z" />
<glyph unicode="&#xcf;" horiz-adv-x="462" d="M20 1597v23l9 63l12 19l25 29l18 10l6 -2h29l14 -13l29 -61l8 -14l-2 -25l6 -33l-10 -24l-6 -19l-6 -14l-2 -14l-13 -21l-20 -4l-31 -18l-20 4l-29 24l-10 23zM74 1362l4 2l67 -2l7 -6l-9 -254l-2 -29l-4 -24l6 -138v-163l-2 -3l-2 -28l4 -6l4 -17l-4 -71v-172l4 -76 l-4 -31l2 -18l7 -17v-143l-5 -19l5 -28l6 -119l-2 -10l-78 4l-2 2l4 53l4 86v53l4 60v121l-4 22l-2 94l6 43l6 4l-4 43l-6 52l4 47l-6 102l6 64v26l-4 15v202v72l-8 31l4 65l-4 68v33zM164 1100l2 24l14 47l10 19l11 8l22 10l-4 -28l-8 -37l-6 -17l-17 -26l-6 -10l-12 -11 l-4 6zM168 645l6 6l21 -16l14 -31l4 -10l14 -62v-4l-4 -6l-28 19l-13 22l-12 35zM172 225l2 23l6 31l15 30l14 10l24 7l5 4l4 -8l-17 -46l-20 -38l-12 -13l-13 -2l-4 -4zM176 1321v35l4 8h56l20 -6l31 6h92v-14l-2 -82l-6 -23v-172l2 -86l4 -117l-8 -28l6 -135l4 -127v-72 l-4 -29l2 -41l-6 -22l8 -84l4 -31l-4 -57l4 -68l-6 -26v-56l12 -100l-4 -6l-98 8l-8 8l-56 -4l-22 -6l-8 6l2 47l57 78l14 6l49 88l-28 70l-13 14l-18 57l-4 9l-8 10l-17 37l-14 39l43 77l47 82l14 33l-24 53l-21 45l-6 7l-12 12l-43 102l16 41l39 88l17 19l8 12l24 64 l-32 65l-31 47l-14 37l-19 10zM184 125l9 29l12 36l14 23l17 18l12 7h18l6 -7l-10 -30l-22 -45l-31 -33l-16 -6zM188 965v18l11 47l12 41l12 19l13 16l22 14l4 6l4 -8l-4 -39l-4 -32l-14 -39l-19 -25l-30 -22zM195 748v12l4 4l6 4l14 -10l8 -13l21 -28l18 -53l2 -35l-2 -13 l-10 -2l-12 13l-21 26l-10 27l-12 37zM297 1597v23l8 63l12 19l27 29l16 10l7 -2h28l15 -13l28 -61l8 -14l-2 -25l7 -33l-11 -24l-6 -19l-6 -14l-2 -14l-12 -21l-21 -4l-28 -18l-23 4l-29 24l-10 23z" />
<glyph unicode="&#xd1;" horiz-adv-x="862" d="M74 6l8 96v35l6 37l-4 25v28v41l4 43v51l4 23l-4 53v86l6 94l-6 41v148l6 123l-6 26v201l2 33l-2 24l-4 121l-4 23l2 10h16l33 -88l53 -125l6 -27l5 -20l41 -94l67 -183l21 -65l30 -49l41 -101l35 -92l12 -37l17 -24l59 -166l14 -12l15 -64l24 -47l4 -2l23 -51l27 -55 l37 -66l-5 -6l-43 2l-8 6l-20 -6h-17l-12 12l-22 72l-25 59l-6 33l-47 109l-72 178l-8 33l-12 18l-19 61l-6 23l-18 24l-11 29l-24 43l-39 107l-6 20l-29 47l-2 -82v-135l-6 -22l4 -68l4 -47l2 -53l-4 -58l-2 -18l8 -119l-2 -53v-84l10 -135l-69 6l-11 10l-18 -6l-21 -6h-26 zM137 1358l2 6l6 4l11 2h47l24 -2l17 -6l4 -4l35 10h92l22 -51l29 -82l8 -39l23 -45l14 -53l55 -127l6 -27l3 -14l26 -51l53 -136l35 -77l13 -25l10 -18l6 -31l20 -47l19 -47l18 -29l25 -70l28 -55l21 -35v-125l-2 -12l2 -57v-60v-35v-12l4 -8l-8 -6l-64 2l-6 96l2 64 l-14 57l-2 49l-6 90l-23 17l-47 24l-16 19h-23l-67 28l-4 6l2 11l-2 73l-3 70v25l11 69l2 64l-27 20l-20 17l-15 6l-28 2l-21 20l-26 2l-41 29l4 100l-2 7l8 22l-2 8l2 25l8 145l-41 41l-37 15l-45 28l-10 19h-8l-4 -9l-15 9l-45 22l-12 12l-12 17l-13 33zM223 1161l6 6 l23 7l43 -17l20 -18l19 -25l6 -18l-4 -6l-21 -11l-32 4l-21 13l-24 30zM256 1022l2 8l18 6h21l18 -6l25 -20l12 -37l-12 -6l-25 -4l-24 10l-19 22l-14 21zM305 1579l6 23l-4 69l2 4l16 13l35 16h15l12 -10l12 4l19 -6l12 -11l31 -14l18 -2l18 -10l21 -6l33 12l30 14l27 23 l6 4l2 -27v-33l-4 -47v-32l-6 -17l-31 -16l-14 -10l-14 -2l-7 2l-18 -7l-25 5l-20 12h-14l-37 22l-13 15h-16l-18 2l-35 -6l-33 -27l-4 4zM408 676v65l10 31l10 16l10 -22l6 -18l7 -41l-5 -43l-6 -33l-14 -21l-12 25zM469 610v47l2 21l14 47l9 -2l12 -29l8 -59v-35l-12 -72 l-6 -18h-7l-8 25l-10 34zM557 344l12 8l13 6l24 -2l23 -6l18 -12l17 -19l14 -28l-4 -6l-25 -13l-26 2l-31 19l-12 12l-11 14l-8 15zM594 209v6l6 6l12 4l31 -4l14 -6l17 -12l18 -29l13 -20l2 -15l-15 -12l-14 -2l-25 8l-28 23l-21 34zM678 1329v27l6 14l31 -2l37 -4l14 -6 l10 4l27 2l10 4l6 -4l2 -6l-4 -66l-4 -100l-6 -29v-20l2 -58l-2 -36v-107l2 -72v-39l-12 -65l10 -18l2 -25v-100l-4 -25l4 -35v-92v-49l-2 -6l-10 16l-31 68l-21 39v14l-16 18l-22 45l-11 31l-8 10l4 453l-6 59l-2 54z" />
<glyph unicode="&#xd2;" horiz-adv-x="958" d="M41 655l2 70l2 47l2 2l4 53l15 111l12 27l16 75l17 52l32 73l9 19l24 22l17 25l22 29l51 43l19 8l2 -8l2 -27v-39l-15 -18l-22 -25l-37 -47l-10 -10l-35 -56l-6 -28l-10 -29l-7 -8v-10l-22 -91l-4 -36l-8 -23l-11 -117l-8 -53l6 -31v-16l2 -66l11 -73l12 -76l6 -23 l-2 -12l2 -8l12 -10l37 -88v-2l13 -21h2l8 -24l18 -35l53 -60l11 -12l-6 -8l6 -33l-4 -37l-2 -10l-7 -2l-10 8l-47 45l-47 66l-8 22l-4 13l-35 53l-35 100l-16 68l-9 41v28l-16 78l-2 76zM119 662l6 22l10 49l10 25l15 20l28 27l5 -6l-5 -49l-6 -25l-12 -27l-6 -6l-12 -18 l-17 -15l-10 -6zM152 532v35l8 41l10 29l29 43l24 18h2l2 -2l2 -28l-4 -37l-8 -39l-12 -27l-29 -35l-2 -4l-20 -6zM182 455v6l11 12l36 57l9 37l12 19l24 53l-28 86l-15 59l-16 27l-33 100v7l56 57l12 16l14 6l10 13l25 34l10 9l4 28l2 138l4 24l3 94l26 19l43 16l12 -2 l17 8l35 13h57l8 -2h23l8 -7h18l23 -4l24 -8l25 -14l53 -43l15 -6l55 -60l8 -24v-6l25 -27l22 -43l17 -43l16 -29l10 -35h2l17 -55l26 -141l-4 -33l15 -80v-92v-59l-13 -78l-18 -72l-2 -31v-28l-17 -47l-18 -48l-62 -135l-55 -65l-12 -13h-19l-22 -30l-53 -29l-33 -24h-21 l-22 -13l-14 2l-31 -2l-37 -10l-31 6l-55 17l-31 16l-24 14l-15 17l-2 18l-2 90l2 10l6 9l-2 69l-2 31l-16 39l-35 49l-26 31l-37 53zM186 1010v12l19 55l22 29l25 22l18 7h17l-6 -29l-11 -37l-10 -16l-18 -23l-45 -26h-9zM199 330v18h12l25 -18l18 -29l16 -37l4 -35l5 -12 l-9 -2l-14 6l-18 12l-15 19l-12 29l-8 20zM324 1686l8 14l6 14l15 31l12 29l16 53l4 14l9 6h6l18 -41l27 -43l14 -16l37 -59l16 -37l13 -19l14 -12l25 -41l57 -100l6 -23v-8l-6 -4h-8l-146 119l-12 6l-14 28l-41 19l-37 31l-35 26zM330 727l6 -18l-2 -60h2v-24l6 -76v-55 l4 -39v-54l6 -34l19 -127l16 -60l16 -45l13 -20l16 -17v-6l10 -12l13 -6l26 -19l13 -4l61 19l25 39l20 18l12 31l19 35l16 53l4 24l6 49l13 29l-2 82l8 41l8 162l-2 41l4 28v19l-2 29v43l-8 63v18l-4 17l-2 43l-8 47v53l-3 41l-30 84l-6 25l-9 41l-26 32l-8 3l-11 18l-37 29 l-30 -7l-15 7h-10l-35 -23l-34 -49l-19 -45l-12 -31l-2 -29l-10 -53l-11 -80l-12 -63v-84l-6 -66zM373 690v6l49 37l45 25l47 8h16l27 -10l66 -49l2 -17l-15 -12l-30 -19l-23 -10l-31 -10l-32 4l-19 -4l-37 14l-47 21l-14 10zM401 489v7l58 34l39 9h10l22 -2l17 -5l22 -6 l43 -30l6 -7v-12l-61 -43l-39 -10l-43 6l-16 6l-27 17l-22 20zM406 915l14 17l37 31l16 6l29 6l41 -6l30 -17l41 -26l2 -8l-2 -3l-14 -16l-20 -12l-54 -19h-18l-31 4l-43 19l-14 12h-4l-8 6z" />
</font>
</defs>
</svg>
